<svg width="24" height="24" viewBox="0 0 24 24" fill="none" xmlns="http://www.w3.org/2000/svg">
<path d="M18.4667 23.6C18.2667 23.6 18 23.6 17.8 23.5333C13.6 22.6666 9.8 20.6666 6.73333 17.6666C3.73333 14.7333 1.66667 10.9333 0.733333 6.86664C0.533333 5.86664 0.866666 4.73331 1.66667 4.06664L4.33333 1.53331C4.6 1.26664 5 1.13331 5.33333 1.19997C5.73333 1.13331 6.06667 1.33331 6.26667 1.66664L9.6 6.59997C9.86667 6.99997 9.8 7.53331 9.53333 7.86664L7.86667 9.86664C8.53333 11.3333 9.46667 12.6666 10.6667 13.8C11.8 14.9333 13.2 15.8666 14.7333 16.5333L16.8 14.8666C17.1333 14.6 17.6667 14.5333 18.0667 14.8L23.0667 18.0666C23.6667 18.4666 23.9333 19.2666 23.5333 19.8666C23.4667 19.9333 23.4 20.0666 23.3333 20.1333L20.7333 22.7333C20.1333 23.3333 19.3333 23.6 18.4667 23.6ZM5.2 2.39997L2.53333 4.93331C2.13333 5.39997 1.93333 5.99997 2.06667 6.59997C2.93333 10.4666 4.86667 14 7.66667 16.8C10.5333 19.6 14.2 21.4666 18.0667 22.2666C18.6667 22.4 19.2667 22.2 19.7333 21.8L22.3333 19.2L17.4667 16.0666L15.2667 17.8666C15.0667 18 14.8667 18.0666 14.6667 18C12.8 17.3333 11.1333 16.2666 9.73333 14.8C8.33333 13.4666 7.2 11.8 6.46667 9.99997C6.4 9.79997 6.46667 9.53331 6.6 9.39997L8.4 7.26664L5.2 2.39997Z" fill="white"/>
</svg>
