<svg width="24" height="24" viewBox="0 0 24 24" fill="none" xmlns="http://www.w3.org/2000/svg">
<path d="M21.3333 4H2.66665C1.93331 4 1.33331 4.6 1.33331 5.33333V18.6667C1.33331 19.4 1.93331 20 2.66665 20H21.3333C22.0666 20 22.6666 19.4 22.6666 18.6667V5.33333C22.6666 4.6 22.0666 4 21.3333 4ZM20.3333 18.6667H3.79998L8.46665 13.8667L7.53331 12.9333L2.66665 17.8667V6.33333L10.9333 14.6C11.4666 15.1333 12.2666 15.1333 12.8 14.6L21.3333 6.13333V17.8L16.4 12.8667L15.4666 13.8L20.3333 18.6667ZM3.53331 5.33333H20.2666L11.8666 13.6667L3.53331 5.33333Z" fill="white"/>
</svg>
