<svg width="189" height="224" viewBox="0 0 189 224" fill="none" xmlns="http://www.w3.org/2000/svg">
<g opacity="0.4">
<mask id="mask0" mask-type="alpha" maskUnits="userSpaceOnUse" x="0" y="0" width="189" height="224">
<rect width="189" height="224" transform="matrix(1 0 0 -1 0 224)" fill="#FF7800"/>
</mask>
<g mask="url(#mask0)">
<g clip-path="url(#clip0)">
<path d="M728.794 19.3005L721.395 49.1197L691.464 56.6306L683.953 86.5619L654.022 94.0728L646.511 124.004L616.58 131.515L609.069 161.446L579.138 168.957L571.739 198.776L541.808 206.287L534.297 236.218L504.365 243.729L496.855 273.661L466.923 281.172L459.412 311.103L429.481 318.614L421.97 348.545L392.151 355.944L384.64 385.875L354.709 393.386L347.198 423.317L317.267 430.828L309.756 460.759L279.824 468.27L272.314 498.202L242.382 505.712L234.871 535.644L204.94 543.155L197.429 573.086" stroke="#FF7800" stroke-miterlimit="10"/>
</g>
<g clip-path="url(#clip1)">
<path d="M716.351 6.85724L708.952 36.6765L679.021 44.1873L671.51 74.1186L641.579 81.6295L634.068 111.561L604.136 119.072L596.626 149.003L566.694 156.514L559.295 186.333L529.364 193.844L521.853 223.775L491.922 231.286L484.411 261.217L454.48 268.728L446.969 298.66L417.038 306.17L409.527 336.102L379.708 343.5L372.197 373.432L342.265 380.943L334.755 410.874L304.823 418.385L297.312 448.316L267.381 455.827L259.87 485.758L229.939 493.269L222.428 523.2L192.497 530.711L184.986 560.643" stroke="#FF7800" stroke-miterlimit="10"/>
</g>
<g clip-path="url(#clip2)">
<path d="M703.908 -5.58612L696.509 24.2331L666.578 31.7439L659.067 61.6753L629.135 69.1861L621.625 99.1174L591.693 106.628L584.182 136.56L554.251 144.07L546.852 173.89L516.921 181.401L509.41 211.332L479.479 218.843L471.968 248.774L442.037 256.285L434.526 286.216L404.595 293.727L397.084 323.658L367.264 331.057L359.754 360.988L329.822 368.499L322.311 398.431L292.38 405.941L284.869 435.873L254.938 443.384L247.427 473.315L217.496 480.826L209.985 510.757L180.054 518.268L172.543 548.199" stroke="#FF7800" stroke-miterlimit="10"/>
</g>
<g clip-path="url(#clip3)">
<path d="M691.464 -18.0295L684.066 11.7897L654.134 19.3006L646.623 49.2319L616.692 56.7428L609.181 86.6741L579.25 94.1849L571.739 124.116L541.808 131.627L534.409 161.446L504.478 168.957L496.967 198.888L467.036 206.399L459.525 236.331L429.593 243.841L422.082 273.773L392.151 281.284L384.64 311.215L354.821 318.614L347.31 348.545L317.379 356.056L309.868 385.987L279.937 393.498L272.426 423.429L242.495 430.94L234.984 460.872L205.052 468.382L197.542 498.314L167.61 505.825L160.099 535.756" stroke="#FF7800" stroke-miterlimit="10"/>
</g>
<g clip-path="url(#clip4)">
<path d="M679.021 -30.4729L671.622 -0.653688L641.691 6.85717L634.18 36.7885L604.249 44.2993L596.738 74.2306L566.806 81.7415L559.295 111.673L529.364 119.184L521.965 149.003L492.034 156.514L484.523 186.445L454.592 193.956L447.081 223.887L417.15 231.398L409.639 261.329L379.708 268.84L372.197 298.772L342.377 306.17L334.867 336.102L304.935 343.613L297.424 373.544L267.493 381.055L259.982 410.986L230.051 418.497L222.54 448.428L192.609 455.939L185.098 485.87L155.167 493.381L147.656 523.312" stroke="#FF7800" stroke-miterlimit="10"/>
</g>
<g clip-path="url(#clip5)">
<path d="M666.577 -42.9162L659.179 -13.097L629.247 -5.58613L621.736 24.3452L591.805 31.856L584.294 61.7873L554.363 69.2982L546.852 99.2295L516.921 106.74L509.522 136.56L479.591 144.07L472.08 174.002L442.149 181.513L434.638 211.444L404.706 218.955L397.196 248.886L367.264 256.397L359.753 286.328L329.934 293.727L322.423 323.658L292.492 331.169L284.981 361.101L255.05 368.611L247.539 398.543L217.608 406.054L210.097 435.985L180.165 443.496L172.655 473.427L142.723 480.938L135.212 510.869" stroke="#FF7800" stroke-miterlimit="10"/>
</g>
<g clip-path="url(#clip6)">
<path d="M654.134 -55.3596L646.736 -25.5403L616.804 -18.0295L609.293 11.9018L579.362 19.4127L571.851 49.344L541.92 56.8548L534.409 86.7862L504.478 94.297L497.079 124.116L467.148 131.627L459.637 161.558L429.705 169.069L422.195 199.001L392.263 206.511L384.752 236.443L354.821 243.954L347.31 273.885L317.491 281.284L309.98 311.215L280.049 318.726L272.538 348.657L242.607 356.168L235.096 386.099L205.165 393.61L197.654 423.541L167.722 431.052L160.211 460.984L130.28 468.495L122.769 498.426" stroke="#FF7800" stroke-miterlimit="10"/>
</g>
<g clip-path="url(#clip7)">
<path d="M641.691 -67.8029L634.292 -37.9836L604.361 -30.4728L596.85 -0.541475L566.919 6.96938L559.408 36.9007L529.477 44.4115L521.966 74.3429L492.034 81.8537L484.636 111.673L454.704 119.184L447.193 149.115L417.262 156.626L409.751 186.557L379.82 194.068L372.309 223.999L342.378 231.51L334.867 261.442L305.048 268.84L297.537 298.772L267.605 306.283L260.095 336.214L230.163 343.725L222.652 373.656L192.721 381.167L185.21 411.098L155.279 418.609L147.768 448.54L117.837 456.051L110.326 485.983" stroke="#FF7800" stroke-miterlimit="10"/>
</g>
<g clip-path="url(#clip8)">
<path d="M629.247 -80.2464L621.849 -50.4272L591.917 -42.9163L584.406 -12.985L554.475 -5.47417L546.964 24.4571L517.033 31.968L509.522 61.8993L479.591 69.4102L472.192 99.2294L442.261 106.74L434.75 136.672L404.818 144.182L397.308 174.114L367.376 181.625L359.865 211.556L329.934 219.067L322.423 248.998L292.604 256.397L285.093 286.328L255.162 293.839L247.651 323.77L217.72 331.281L210.209 361.212L180.278 368.723L172.767 398.655L142.835 406.166L135.325 436.097L105.393 443.608L97.8823 473.539" stroke="#FF7800" stroke-miterlimit="10"/>
</g>
<g clip-path="url(#clip9)">
<path d="M616.804 -92.6897L609.405 -62.8705L579.474 -55.3596L571.963 -25.4283L542.032 -17.9175L534.521 12.0138L504.59 19.5247L497.079 49.456L467.147 56.9669L459.749 86.7861L429.817 94.2969L422.306 124.228L392.375 131.739L384.864 161.67L354.933 169.181L347.422 199.113L317.491 206.623L309.98 236.555L280.161 243.954L272.65 273.885L242.719 281.396L235.208 311.327L205.276 318.838L197.765 348.769L167.834 356.28L160.323 386.211L130.392 393.722L122.881 423.654L92.9498 431.164L85.439 461.096" stroke="#FF7800" stroke-miterlimit="10"/>
</g>
<g clip-path="url(#clip10)">
<path d="M604.361 -105.133L596.962 -75.3138L567.031 -67.8029L559.52 -37.8716L529.589 -30.3608L522.078 -0.429451L492.146 7.08141L484.636 37.0127L454.704 44.5236L447.306 74.3428L417.374 81.8537L409.863 111.785L379.932 119.296L372.421 149.227L342.49 156.738L334.979 186.669L305.048 194.18L297.537 224.111L267.718 231.51L260.207 261.442L230.275 268.952L222.765 298.884L192.833 306.395L185.322 336.326L155.391 343.837L147.88 373.768L117.949 381.279L110.438 411.21L80.5067 418.721L72.9959 448.652" stroke="#FF7800" stroke-miterlimit="10"/>
</g>
<g clip-path="url(#clip11)">
<path d="M591.917 -117.576L584.519 -87.7571L554.587 -80.2463L547.077 -50.315L517.145 -42.8041L509.634 -12.8728L479.703 -5.36195L472.192 24.5694L442.261 32.0802L434.862 61.8994L404.931 69.4103L397.42 99.3416L367.489 106.852L359.978 136.784L330.046 144.295L322.536 174.226L292.604 181.737L285.093 211.668L255.274 219.067L247.763 248.998L217.832 256.509L210.321 286.44L180.39 293.951L172.879 323.883L142.948 331.393L135.437 361.325L105.506 368.836L97.9947 398.767L68.0634 406.278L60.5525 436.209" stroke="#FF7800" stroke-miterlimit="10"/>
</g>
<g clip-path="url(#clip12)">
<path d="M579.474 -130.02L572.075 -100.2L542.144 -92.6896L534.633 -62.7583L504.702 -55.2474L497.191 -25.3161L467.26 -17.8052L459.749 12.1261L429.818 19.6369L422.419 49.4561L392.487 56.967L384.977 86.8983L355.045 94.4092L347.534 124.34L317.603 131.851L310.092 161.783L280.161 169.293L272.65 199.225L242.831 206.624L235.32 236.555L205.389 244.066L197.878 273.997L167.947 281.508L160.436 311.439L130.504 318.95L122.993 348.881L93.0622 356.392L85.5513 386.324L55.62 393.834L48.1092 423.766" stroke="#FF7800" stroke-miterlimit="10"/>
</g>
<g clip-path="url(#clip13)">
<path d="M567.031 -142.463L559.632 -112.644L529.701 -105.133L522.19 -75.2017L492.259 -67.6908L484.748 -37.7595L454.816 -30.2487L447.305 -0.317358L417.374 7.1935L409.975 37.0127L380.044 44.5236L372.533 74.4549L342.602 81.9657L335.091 111.897L305.16 119.408L297.649 149.339L267.718 156.85L260.207 186.781L230.387 194.18L222.877 224.111L192.945 231.622L185.434 261.554L155.503 269.064L147.992 298.996L118.061 306.507L110.55 336.438L80.6188 343.949L73.108 373.88L43.1766 381.391L35.6658 411.322" stroke="#FF7800" stroke-miterlimit="10"/>
</g>
<g clip-path="url(#clip14)">
<path d="M554.587 -154.906L547.189 -125.087L517.257 -117.576L509.746 -87.645L479.815 -80.1341L472.304 -50.2028L442.373 -42.692L434.862 -12.7607L404.931 -5.2498L397.532 24.5694L367.601 32.0803L360.09 62.0116L330.159 69.5224L322.648 99.4537L292.716 106.965L285.206 136.896L255.274 144.407L247.763 174.338L217.944 181.737L210.433 211.668L180.502 219.179L172.991 249.11L143.06 256.621L135.549 286.553L105.618 294.063L98.1068 323.995L68.1754 331.506L60.6646 361.437L30.7333 368.948L23.2224 398.879" stroke="#FF7800" stroke-miterlimit="10"/>
</g>
<g clip-path="url(#clip15)">
<path d="M542.144 -167.35L534.745 -137.531L504.814 -130.02L497.303 -100.088L467.372 -92.5776L459.861 -62.6462L429.93 -55.1354L422.419 -25.2041L392.487 -17.6932L385.089 12.126L355.157 19.6369L347.647 49.5682L317.715 57.079L310.204 87.0103L280.273 94.5212L272.762 124.453L242.831 131.963L235.32 161.895L205.501 169.293L197.99 199.225L168.059 206.736L160.548 236.667L130.616 244.178L123.106 274.109L93.1743 281.62L85.6634 311.551L55.7321 319.062L48.2212 348.993L18.2899 356.504L10.7791 386.436" stroke="#FF7800" stroke-miterlimit="10"/>
</g>
<g clip-path="url(#clip16)">
<path d="M529.701 -179.793L522.302 -149.974L492.371 -142.463L484.86 -112.532L454.928 -105.021L447.418 -75.0895L417.486 -67.5787L409.975 -37.6474L380.044 -30.1365L372.645 -0.317314L342.714 7.19356L335.203 37.1249L305.272 44.6357L297.761 74.567L267.83 82.0779L260.319 112.009L230.388 119.52L222.877 149.451L193.057 156.85L185.547 186.781L155.615 194.292L148.104 224.224L118.173 231.734L110.662 261.666L80.7309 269.177L73.22 299.108L43.2887 306.619L35.7779 336.55L5.84655 344.061L-1.66428 373.992" stroke="#FF7800" stroke-miterlimit="10"/>
</g>
<g clip-path="url(#clip17)">
<path d="M517.257 -192.236L509.859 -162.417L479.927 -154.906L472.416 -124.975L442.485 -117.464L434.974 -87.5329L405.043 -80.022L397.532 -50.0907L367.601 -42.5799L360.202 -12.7607L330.271 -5.2498L322.76 24.6815L292.828 32.1924L285.318 62.1237L255.386 69.6345L247.875 99.5658L217.944 107.077L210.433 137.008L180.614 144.407L173.103 174.338L143.172 181.849L135.661 211.78L105.73 219.291L98.2189 249.222L68.2876 256.733L60.7767 286.665L30.8454 294.175L23.3345 324.107L-6.59681 331.618L-14.1076 361.549" stroke="#FF7800" stroke-miterlimit="10"/>
</g>
<g clip-path="url(#clip18)">
<path d="M504.814 -204.68L497.415 -174.861L467.484 -167.35L459.973 -137.418L430.042 -129.908L422.531 -99.9763L392.6 -92.4655L385.089 -62.5342L355.157 -55.0233L347.759 -25.2041L317.827 -17.6932L310.316 12.2381L280.385 19.7489L272.874 49.6802L242.943 57.1911L235.432 87.1224L205.501 94.6333L197.99 124.565L168.171 131.963L160.66 161.895L130.729 169.406L123.218 199.337L93.2864 206.848L85.7755 236.779L55.8442 244.29L48.3333 274.221L18.402 281.732L10.8912 311.663L-19.0402 319.174L-26.551 349.106" stroke="#FF7800" stroke-miterlimit="10"/>
</g>
<g clip-path="url(#clip19)">
<path d="M492.371 -217.123L484.972 -187.304L455.041 -179.793L447.53 -149.862L417.598 -142.351L410.088 -112.42L380.156 -104.909L372.645 -74.9775L342.714 -67.4666L335.315 -37.6474L305.384 -30.1365L297.873 -0.205212L267.942 7.30564L260.431 37.237L230.5 44.7478L222.989 74.6791L193.057 82.19L185.547 112.121L155.727 119.52L148.217 149.451L118.285 156.962L110.774 186.894L80.843 194.404L73.3321 224.336L43.4008 231.847L35.89 261.778L5.95864 269.289L-1.5522 299.22L-31.4835 306.731L-38.9944 336.662" stroke="#FF7800" stroke-miterlimit="10"/>
</g>
<g clip-path="url(#clip20)">
<path d="M479.927 -229.567L472.528 -199.747L442.597 -192.236L435.086 -162.305L405.155 -154.794L397.644 -124.863L367.713 -117.352L360.202 -87.4208L330.271 -79.91L322.872 -50.0908L292.941 -42.5799L285.43 -12.6486L255.498 -5.13772L247.988 24.7936L218.056 32.3044L210.545 62.2358L180.614 69.7466L173.103 99.678L143.284 107.077L135.773 137.008L105.842 144.519L98.3309 174.45L68.3996 181.961L60.8888 211.892L30.9575 219.403L23.4466 249.335L-6.48472 256.845L-13.9956 286.777L-43.9269 294.288L-51.4377 324.219" stroke="#FF7800" stroke-miterlimit="10"/>
</g>
<g clip-path="url(#clip21)">
<path d="M467.484 -242.01L460.085 -212.191L430.154 -204.68L422.643 -174.749L392.712 -167.238L385.201 -137.306L355.269 -129.795L347.759 -99.8642L317.827 -92.3533L310.429 -62.5341L280.497 -55.0232L272.986 -25.0919L243.055 -17.5811L235.544 12.3502L205.613 19.8611L198.102 49.7924L168.171 57.3033L160.66 87.2346L130.841 94.6334L123.33 124.565L93.3985 132.076L85.8876 162.007L55.9563 169.518L48.4454 199.449L18.5141 206.96L11.0033 236.891L-18.9281 244.402L-26.4389 274.333L-56.3702 281.844L-63.8811 311.775" stroke="#FF7800" stroke-miterlimit="10"/>
</g>
<g clip-path="url(#clip22)">
<path d="M455.041 -254.453L447.642 -224.634L417.71 -217.123L410.2 -187.192L380.268 -179.681L372.757 -149.75L342.826 -142.239L335.315 -112.308L305.384 -104.797L297.985 -74.9775L268.054 -67.4666L260.543 -37.5353L230.612 -30.0244L223.101 -0.0931274L193.17 7.41772L185.659 37.3491L155.727 44.8599L148.216 74.7912L118.397 82.19L110.886 112.121L80.9551 119.632L73.4442 149.563L43.5129 157.074L36.0021 187.006L6.07076 194.516L-1.44011 224.448L-31.3714 231.959L-38.8823 261.89L-68.8136 269.401L-76.3244 299.332" stroke="#FF7800" stroke-miterlimit="10"/>
</g>
<g clip-path="url(#clip23)">
<path d="M442.597 -266.897L435.198 -237.077L405.267 -229.567L397.756 -199.635L367.825 -192.124L360.314 -162.193L330.383 -154.682L322.872 -124.751L292.941 -117.24L285.542 -87.4208L255.611 -79.91L248.1 -49.9786L218.168 -42.4678L210.657 -12.5365L180.726 -5.02564L173.215 24.9057L143.284 32.4165L135.773 62.3479L105.954 69.7466L98.4431 99.6779L68.5117 107.189L61.0009 137.12L31.0696 144.631L23.5587 174.562L-6.3726 182.073L-13.8835 212.004L-43.8148 219.515L-51.3256 249.447L-81.257 256.957L-88.7678 286.889" stroke="#FF7800" stroke-miterlimit="10"/>
</g>
<g clip-path="url(#clip24)">
<path d="M430.154 -279.34L422.755 -249.521L392.824 -242.01L385.313 -212.079L355.382 -204.568L347.871 -174.636L317.939 -167.126L310.429 -137.194L280.497 -129.683L273.098 -99.8642L243.167 -92.3533L235.656 -62.422L205.725 -54.9112L198.214 -24.9798L168.283 -17.469L160.772 12.4623L130.841 19.9732L123.33 49.9045L93.5105 57.3033L85.9997 87.2346L56.0684 94.7454L48.5575 124.677L18.6262 132.188L11.1153 162.119L-18.816 169.63L-26.3268 199.561L-56.2582 207.072L-63.769 237.003L-93.7003 244.514L-101.211 274.445" stroke="#FF7800" stroke-miterlimit="10"/>
</g>
<g clip-path="url(#clip25)">
<path d="M417.71 -291.783L410.312 -261.964L380.38 -254.453L372.87 -224.522L342.938 -217.011L335.427 -187.08L305.496 -179.569L297.985 -149.638L268.054 -142.127L260.655 -112.308L230.724 -104.797L223.213 -74.8654L193.282 -67.3545L185.771 -37.4232L155.839 -29.9124L148.329 0.0189539L118.397 7.5298L110.886 37.4611L81.0672 44.8599L73.5564 74.7912L43.625 82.302L36.1142 112.233L6.18288 119.744L-1.32799 149.676L-31.2593 157.186L-38.7702 187.118L-68.7015 194.629L-76.2123 224.56L-106.144 232.071L-113.654 262.002" stroke="#FF7800" stroke-miterlimit="10"/>
</g>
<g clip-path="url(#clip26)">
<path d="M405.267 -304.227L397.868 -274.407L367.937 -266.897L360.426 -236.965L330.495 -229.454L322.984 -199.523L293.053 -192.012L285.542 -162.081L255.611 -154.57L248.212 -124.751L218.28 -117.24L210.77 -87.3087L180.838 -79.7979L173.327 -49.8666L143.396 -42.3557L135.885 -12.4244L105.954 -4.91356L98.4431 25.0178L68.6238 32.4165L61.113 62.3478L31.1817 69.8587L23.6708 99.79L-6.26048 107.301L-13.7713 137.232L-43.7026 144.743L-51.2135 174.674L-81.1448 182.185L-88.6557 212.116L-118.587 219.627L-126.098 249.559" stroke="#FF7800" stroke-miterlimit="10"/>
</g>
<g clip-path="url(#clip27)">
<path d="M392.824 -316.67L385.425 -286.851L355.494 -279.34L347.983 -249.409L318.051 -241.898L310.541 -211.967L280.609 -204.456L273.098 -174.524L243.167 -167.013L235.768 -137.194L205.837 -129.683L198.326 -99.7521L168.395 -92.2413L160.884 -62.3099L130.953 -54.7991L123.442 -24.8678L93.5106 -17.3569L85.9997 12.5744L56.1805 19.9732L48.6697 49.9045L18.7383 57.4153L11.2275 87.3467L-18.7038 94.8575L-26.2147 124.789L-56.146 132.3L-63.6569 162.231L-93.5882 169.742L-101.099 199.673L-131.03 207.184L-138.541 237.115" stroke="#FF7800" stroke-miterlimit="10"/>
</g>
<g clip-path="url(#clip28)">
<path d="M380.38 -329.113L372.982 -299.294L343.05 -291.783L335.539 -261.852L305.608 -254.341L298.097 -224.41L268.166 -216.899L260.655 -186.968L230.724 -179.457L223.325 -149.638L193.394 -142.127L185.883 -112.195L155.952 -104.685L148.441 -74.7533L118.509 -67.2425L110.999 -37.3111L81.0672 -29.8003L73.5563 0.131053L43.7371 7.52981L36.2263 37.4611L6.29497 44.972L-1.2159 74.9033L-31.1472 82.4141L-38.6581 112.345L-68.5894 119.856L-76.1002 149.788L-106.032 157.298L-113.542 187.23L-143.474 194.741L-150.985 224.672" stroke="#FF7800" stroke-miterlimit="10"/>
</g>
<g clip-path="url(#clip29)">
<path d="M367.937 -341.557L360.538 -311.738L330.607 -304.227L323.096 -274.295L293.165 -266.785L285.654 -236.853L255.723 -229.342L248.212 -199.411L218.28 -191.9L210.882 -162.081L180.95 -154.57L173.44 -124.639L143.508 -117.128L135.997 -87.1967L106.066 -79.6858L98.5552 -49.7545L68.6239 -42.2436L61.113 -12.3123L31.2938 -4.91355L23.7829 25.0177L-6.14839 32.5286L-13.6593 62.4599L-43.5906 69.9708L-51.1014 99.9021L-81.0327 107.413L-88.5436 137.344L-118.475 144.855L-125.986 174.786L-155.917 182.297L-163.428 212.229" stroke="#FF7800" stroke-miterlimit="10"/>
</g>
<g clip-path="url(#clip30)">
<path d="M355.494 -354L348.095 -324.181L318.164 -316.67L310.653 -286.739L280.721 -279.228L273.211 -249.297L243.279 -241.786L235.768 -211.854L205.837 -204.344L198.438 -174.524L168.507 -167.013L160.996 -137.082L131.065 -129.571L123.554 -99.64L93.6227 -92.1292L86.1118 -62.1978L56.1805 -54.687L48.6696 -24.7557L18.8504 -17.3569L11.3396 12.5744L-18.5918 20.0853L-26.1026 50.0166L-56.0339 57.5274L-63.5448 87.4587L-93.4761 94.9696L-100.987 124.901L-130.918 132.412L-138.429 162.343L-168.36 169.854L-175.871 199.785" stroke="#FF7800" stroke-miterlimit="10"/>
</g>
<g clip-path="url(#clip31)">
<path d="M343.05 -366.443L335.652 -336.624L305.72 -329.113L298.209 -299.182L268.278 -291.671L260.767 -261.74L230.836 -254.229L223.325 -224.298L193.394 -216.787L185.995 -186.968L156.064 -179.457L148.553 -149.526L118.621 -142.015L111.111 -112.083L81.1793 -104.573L73.6685 -74.6412L43.7371 -67.1304L36.2263 -37.199L6.40705 -29.8003L-1.10378 0.131025L-31.0351 7.64189L-38.546 37.5732L-68.4773 45.0841L-75.9881 75.0154L-105.919 82.5262L-113.43 112.458L-143.362 119.968L-150.872 149.9L-180.804 157.411L-188.315 187.342" stroke="#FF7800" stroke-miterlimit="10"/>
</g>
<g clip-path="url(#clip32)">
<path d="M330.607 -378.887L323.208 -349.068L293.277 -341.557L285.766 -311.625L255.835 -304.114L248.324 -274.183L218.393 -266.672L210.882 -236.741L180.95 -229.23L173.552 -199.411L143.62 -191.9L136.109 -161.969L106.178 -154.458L98.6673 -124.527L68.736 -117.016L61.2251 -87.0844L31.2938 -79.5736L23.7829 -49.6423L-6.03631 -42.2435L-13.5471 -12.3122L-43.4785 -4.80135L-50.9893 25.13L-80.9206 32.6408L-88.4315 62.5721L-118.363 70.083L-125.874 100.014L-155.805 107.525L-163.316 137.456L-193.247 144.967L-200.758 174.899" stroke="#FF7800" stroke-miterlimit="10"/>
</g>
<g clip-path="url(#clip33)">
<path d="M318.164 -391.33L310.765 -361.511L280.834 -354L273.323 -324.069L243.391 -316.558L235.88 -286.627L205.949 -279.116L198.438 -249.184L168.507 -241.674L161.108 -211.854L131.177 -204.344L123.666 -174.412L93.7348 -166.901L86.2239 -136.97L56.2926 -129.459L48.7817 -99.5279L18.8504 -92.0171L11.3396 -62.0857L-18.4797 -54.687L-25.9905 -24.7557L-55.9218 -17.2448L-63.4327 12.6865L-93.364 20.1973L-100.875 50.1287L-130.806 57.6395L-138.317 87.5708L-168.248 95.0817L-175.759 125.013L-205.691 132.524L-213.201 162.455" stroke="#FF7800" stroke-miterlimit="10"/>
</g>
<g clip-path="url(#clip34)">
<path d="M305.72 -403.774L298.321 -373.954L268.39 -366.443L260.879 -336.512L230.948 -329.001L223.437 -299.07L193.506 -291.559L185.995 -261.628L156.064 -254.117L148.665 -224.298L118.734 -216.787L111.223 -186.856L81.2914 -179.345L73.7806 -149.413L43.8492 -141.903L36.3384 -111.971L6.40706 -104.46L-1.10381 -74.5291L-30.923 -67.1303L-38.4339 -37.1991L-68.3652 -29.6882L-75.8761 0.243141L-105.807 7.75397L-113.318 37.6853L-143.25 45.1961L-150.76 75.1275L-180.692 82.6383L-188.203 112.57L-218.134 120.08L-225.645 150.012" stroke="#FF7800" stroke-miterlimit="10"/>
</g>
<g clip-path="url(#clip35)">
<path d="M293.277 -416.217L285.878 -386.398L255.947 -378.887L248.436 -348.956L218.505 -341.445L210.994 -311.513L181.062 -304.003L173.552 -274.071L143.62 -266.56L136.222 -236.741L106.29 -229.23L98.7794 -199.299L68.848 -191.788L61.3372 -161.857L31.4059 -154.346L23.895 -124.415L-6.0363 -116.904L-13.5472 -86.9725L-43.3664 -79.5737L-50.8772 -49.6424L-80.8085 -42.1315L-88.3194 -12.2002L-118.251 -4.68939L-125.762 25.2419L-155.693 32.7528L-163.204 62.6841L-193.135 70.195L-200.646 100.126L-230.577 107.637L-238.088 137.568" stroke="#FF7800" stroke-miterlimit="10"/>
</g>
</g>
</g>
<defs>
<clipPath id="clip0">
<rect width="768.11" height="17.5976" transform="matrix(-0.707107 0.707107 0.707107 0.707107 728.458 18.2916)" fill="white"/>
</clipPath>
<clipPath id="clip1">
<rect width="768.11" height="17.5976" transform="matrix(-0.707107 0.707107 0.707107 0.707107 716.014 5.84833)" fill="white"/>
</clipPath>
<clipPath id="clip2">
<rect width="768.11" height="17.5976" transform="matrix(-0.707107 0.707107 0.707107 0.707107 703.571 -6.59503)" fill="white"/>
</clipPath>
<clipPath id="clip3">
<rect width="768.11" height="17.5976" transform="matrix(-0.707107 0.707107 0.707107 0.707107 691.128 -19.0384)" fill="white"/>
</clipPath>
<clipPath id="clip4">
<rect width="768.11" height="17.5976" transform="matrix(-0.707107 0.707107 0.707107 0.707107 678.684 -31.4818)" fill="white"/>
</clipPath>
<clipPath id="clip5">
<rect width="768.11" height="17.5976" transform="matrix(-0.707107 0.707107 0.707107 0.707107 666.241 -43.9251)" fill="white"/>
</clipPath>
<clipPath id="clip6">
<rect width="768.11" height="17.5976" transform="matrix(-0.707107 0.707107 0.707107 0.707107 653.798 -56.3685)" fill="white"/>
</clipPath>
<clipPath id="clip7">
<rect width="768.11" height="17.5976" transform="matrix(-0.707107 0.707107 0.707107 0.707107 641.354 -68.8118)" fill="white"/>
</clipPath>
<clipPath id="clip8">
<rect width="768.11" height="17.5976" transform="matrix(-0.707107 0.707107 0.707107 0.707107 628.911 -81.2553)" fill="white"/>
</clipPath>
<clipPath id="clip9">
<rect width="768.11" height="17.5976" transform="matrix(-0.707107 0.707107 0.707107 0.707107 616.468 -93.6986)" fill="white"/>
</clipPath>
<clipPath id="clip10">
<rect width="768.11" height="17.5976" transform="matrix(-0.707107 0.707107 0.707107 0.707107 604.024 -106.142)" fill="white"/>
</clipPath>
<clipPath id="clip11">
<rect width="768.11" height="17.5976" transform="matrix(-0.707107 0.707107 0.707107 0.707107 591.581 -118.585)" fill="white"/>
</clipPath>
<clipPath id="clip12">
<rect width="768.11" height="17.5976" transform="matrix(-0.707107 0.707107 0.707107 0.707107 579.138 -131.029)" fill="white"/>
</clipPath>
<clipPath id="clip13">
<rect width="768.11" height="17.5976" transform="matrix(-0.707107 0.707107 0.707107 0.707107 566.694 -143.472)" fill="white"/>
</clipPath>
<clipPath id="clip14">
<rect width="768.11" height="17.5976" transform="matrix(-0.707107 0.707107 0.707107 0.707107 554.251 -155.915)" fill="white"/>
</clipPath>
<clipPath id="clip15">
<rect width="768.11" height="17.5976" transform="matrix(-0.707107 0.707107 0.707107 0.707107 541.808 -168.359)" fill="white"/>
</clipPath>
<clipPath id="clip16">
<rect width="768.11" height="17.5976" transform="matrix(-0.707107 0.707107 0.707107 0.707107 529.364 -180.802)" fill="white"/>
</clipPath>
<clipPath id="clip17">
<rect width="768.11" height="17.5976" transform="matrix(-0.707107 0.707107 0.707107 0.707107 516.921 -193.245)" fill="white"/>
</clipPath>
<clipPath id="clip18">
<rect width="768.11" height="17.5976" transform="matrix(-0.707107 0.707107 0.707107 0.707107 504.478 -205.689)" fill="white"/>
</clipPath>
<clipPath id="clip19">
<rect width="768.11" height="17.5976" transform="matrix(-0.707107 0.707107 0.707107 0.707107 492.034 -218.132)" fill="white"/>
</clipPath>
<clipPath id="clip20">
<rect width="768.11" height="17.5976" transform="matrix(-0.707107 0.707107 0.707107 0.707107 479.591 -230.575)" fill="white"/>
</clipPath>
<clipPath id="clip21">
<rect width="768.11" height="17.5976" transform="matrix(-0.707107 0.707107 0.707107 0.707107 467.147 -243.019)" fill="white"/>
</clipPath>
<clipPath id="clip22">
<rect width="768.11" height="17.5976" transform="matrix(-0.707107 0.707107 0.707107 0.707107 454.704 -255.462)" fill="white"/>
</clipPath>
<clipPath id="clip23">
<rect width="768.11" height="17.5976" transform="matrix(-0.707107 0.707107 0.707107 0.707107 442.261 -267.906)" fill="white"/>
</clipPath>
<clipPath id="clip24">
<rect width="768.11" height="17.5976" transform="matrix(-0.707107 0.707107 0.707107 0.707107 429.817 -280.349)" fill="white"/>
</clipPath>
<clipPath id="clip25">
<rect width="768.11" height="17.5976" transform="matrix(-0.707107 0.707107 0.707107 0.707107 417.374 -292.792)" fill="white"/>
</clipPath>
<clipPath id="clip26">
<rect width="768.11" height="17.5976" transform="matrix(-0.707107 0.707107 0.707107 0.707107 404.931 -305.236)" fill="white"/>
</clipPath>
<clipPath id="clip27">
<rect width="768.11" height="17.5976" transform="matrix(-0.707107 0.707107 0.707107 0.707107 392.487 -317.679)" fill="white"/>
</clipPath>
<clipPath id="clip28">
<rect width="768.11" height="17.5976" transform="matrix(-0.707107 0.707107 0.707107 0.707107 380.044 -330.122)" fill="white"/>
</clipPath>
<clipPath id="clip29">
<rect width="768.11" height="17.5976" transform="matrix(-0.707107 0.707107 0.707107 0.707107 367.601 -342.566)" fill="white"/>
</clipPath>
<clipPath id="clip30">
<rect width="768.11" height="17.5976" transform="matrix(-0.707107 0.707107 0.707107 0.707107 355.157 -355.009)" fill="white"/>
</clipPath>
<clipPath id="clip31">
<rect width="768.11" height="17.5976" transform="matrix(-0.707107 0.707107 0.707107 0.707107 342.714 -367.452)" fill="white"/>
</clipPath>
<clipPath id="clip32">
<rect width="768.11" height="17.5976" transform="matrix(-0.707107 0.707107 0.707107 0.707107 330.271 -379.896)" fill="white"/>
</clipPath>
<clipPath id="clip33">
<rect width="768.11" height="17.5976" transform="matrix(-0.707107 0.707107 0.707107 0.707107 317.827 -392.339)" fill="white"/>
</clipPath>
<clipPath id="clip34">
<rect width="768.11" height="17.5976" transform="matrix(-0.707107 0.707107 0.707107 0.707107 305.384 -404.782)" fill="white"/>
</clipPath>
<clipPath id="clip35">
<rect width="768.11" height="17.5976" transform="matrix(-0.707107 0.707107 0.707107 0.707107 292.94 -417.226)" fill="white"/>
</clipPath>
</defs>
</svg>
