<svg width="768" height="285" viewBox="0 0 768 285" fill="none" xmlns="http://www.w3.org/2000/svg">
<mask id="mask0" mask-type="alpha" maskUnits="userSpaceOnUse" x="0" y="0" width="768" height="285">
<rect width="768" height="285" fill="#FF7800"/>
</mask>
<g mask="url(#mask0)">
<path d="M1081.15 207.151L1072.49 168.131L1037.46 158.303L1028.67 119.136L993.645 109.307L984.856 70.1407L949.829 60.3123L941.039 21.1456L906.013 11.3172L897.354 -27.7028L862.327 -37.5312L853.538 -76.698L818.511 -86.5263L809.721 -125.693L774.695 -135.521L765.905 -174.688L730.878 -184.517L722.089 -223.683L687.193 -233.365L678.403 -272.532L643.377 -282.36L634.587 -321.527L599.56 -331.355L590.771 -370.522L555.744 -380.35L546.954 -419.517L511.927 -429.346L503.138 -468.512L468.111 -478.341L459.321 -517.507" stroke="#E5E5E5" stroke-miterlimit="10"/>
<path d="M1066.59 223.434L1057.93 184.413L1022.9 174.585L1014.11 135.418L979.084 125.59L970.294 86.4233L935.267 76.5949L926.478 37.4282L891.451 27.5998L882.793 -11.4202L847.766 -21.2486L838.976 -60.4154L803.949 -70.2437L795.16 -109.41L760.133 -119.239L751.344 -158.406L716.317 -168.234L707.527 -207.401L672.631 -217.082L663.842 -256.249L628.815 -266.077L620.025 -305.244L584.999 -315.073L576.209 -354.239L541.182 -364.068L532.393 -403.234L497.366 -413.063L488.576 -452.229L453.549 -462.058L444.76 -501.225" stroke="#E5E5E5" stroke-miterlimit="10"/>
<path d="M1052.02 239.717L1043.37 200.697L1008.34 190.868L999.549 151.702L964.522 141.873L955.733 102.706L920.706 92.8781L911.916 53.7113L876.889 43.883L868.231 4.86291L833.204 -4.96547L824.415 -44.1322L789.388 -53.9606L780.598 -93.1274L745.571 -102.956L736.782 -142.122L701.755 -151.951L692.965 -191.118L658.07 -200.799L649.28 -239.966L614.253 -249.794L605.464 -288.961L570.437 -298.79L561.647 -337.956L526.62 -347.785L517.831 -386.951L482.804 -396.78L474.015 -435.947L438.988 -445.775L430.198 -484.942" stroke="#E5E5E5" stroke-miterlimit="10"/>
<path d="M1037.46 255.999L1028.8 216.979L993.777 207.151L984.987 167.984L949.961 158.156L941.171 118.989L906.144 109.161L897.355 69.9939L862.328 60.1655L853.669 21.1455L818.643 11.3171L809.853 -27.8496L774.826 -37.678L766.037 -76.8448L731.01 -86.6731L722.22 -125.84L687.193 -135.668L678.404 -174.835L643.508 -184.517L634.719 -223.683L599.692 -233.512L590.902 -272.679L555.875 -282.507L547.086 -321.674L512.059 -331.502L503.269 -370.669L468.243 -380.497L459.453 -419.664L424.426 -429.492L415.637 -468.659" stroke="#E5E5E5" stroke-miterlimit="10"/>
<path d="M1022.9 272.282L1014.24 233.262L979.215 223.434L970.425 184.267L935.399 174.439L926.609 135.272L891.582 125.444L882.793 86.2768L847.766 76.4484L839.107 37.4284L804.081 27.6L795.291 -11.5668L760.264 -21.3951L751.475 -60.5619L716.448 -70.3902L707.658 -109.557L672.631 -119.385L663.842 -158.552L628.946 -168.234L620.157 -207.401L585.13 -217.229L576.34 -256.396L541.313 -266.224L532.524 -305.391L497.497 -315.219L488.707 -354.386L453.68 -364.214L444.891 -403.381L409.864 -413.209L401.075 -452.376" stroke="#E5E5E5" stroke-miterlimit="10"/>
<path d="M1008.34 288.565L999.68 249.545L964.653 239.717L955.864 200.55L920.837 190.722L912.047 151.555L877.02 141.726L868.231 102.56L833.204 92.7312L824.546 53.7112L789.519 43.8828L780.729 4.71603L745.702 -5.11233L736.913 -44.2791L701.886 -54.1074L693.096 -93.2742L658.07 -103.103L649.28 -142.269L614.384 -151.951L605.595 -191.118L570.568 -200.946L561.778 -240.113L526.752 -249.941L517.962 -289.108L482.935 -298.936L474.146 -338.103L439.119 -347.932L430.329 -387.098L395.302 -396.927L386.513 -436.093" stroke="#E5E5E5" stroke-miterlimit="10"/>
<path d="M993.777 304.848L985.119 265.828L950.092 255.999L941.302 216.833L906.275 207.004L897.486 167.837L862.459 158.009L853.669 118.842L818.642 109.014L809.984 69.9939L774.957 60.1656L766.168 20.9988L731.141 11.1705L722.351 -27.9963L687.324 -37.8247L678.535 -76.9914L643.508 -86.8198L634.719 -125.987L599.823 -135.668L591.033 -174.835L556.006 -184.663L547.217 -223.83L512.19 -233.658L503.4 -272.825L468.374 -282.654L459.584 -321.82L424.557 -331.649L415.768 -370.815L380.741 -380.644L371.951 -419.811" stroke="#E5E5E5" stroke-miterlimit="10"/>
<path d="M979.215 321.131L970.557 282.111L935.53 272.282L926.74 233.116L891.713 223.287L882.924 184.121L847.897 174.292L839.107 135.125L804.08 125.297L795.422 86.277L760.395 76.4486L751.606 37.2819L716.579 27.4535L707.789 -11.7132L672.762 -21.5416L663.973 -60.7084L628.946 -70.5367L620.157 -109.704L585.261 -119.385L576.471 -158.552L541.444 -168.38L532.655 -207.547L497.628 -217.375L488.839 -256.542L453.812 -266.371L445.022 -305.537L409.995 -315.366L401.206 -354.532L366.179 -364.361L357.389 -403.527" stroke="#E5E5E5" stroke-miterlimit="10"/>
<path d="M964.653 337.414L955.995 298.394L920.968 288.565L912.178 249.398L877.151 239.57L868.362 200.403L833.335 190.575L824.546 151.408L789.519 141.58L780.86 102.56L745.833 92.7314L737.044 53.5646L702.017 43.7362L693.228 4.56949L658.201 -5.25887L649.411 -44.4256L614.384 -54.254L605.595 -93.4208L570.699 -103.102L561.91 -142.269L526.883 -152.098L518.093 -191.264L483.066 -201.093L474.277 -240.259L439.25 -250.088L430.46 -289.255L395.433 -299.083L386.644 -338.25L351.617 -348.078L342.828 -387.245" stroke="#E5E5E5" stroke-miterlimit="10"/>
<path d="M950.092 353.696L941.433 314.676L906.406 304.848L897.617 265.681L862.59 255.853L853.8 216.686L818.774 206.858L809.984 167.691L774.957 157.863L766.299 118.843L731.272 109.014L722.482 69.8474L687.456 60.019L678.666 20.8523L643.639 11.0239L634.85 -28.1428L599.823 -37.9712L591.033 -77.138L556.138 -86.8197L547.348 -125.986L512.321 -135.815L503.532 -174.982L468.505 -184.81L459.715 -223.977L424.688 -233.805L415.899 -272.972L380.872 -282.8L372.082 -321.967L337.056 -331.795L328.266 -370.962" stroke="#E5E5E5" stroke-miterlimit="10"/>
<path d="M935.53 369.979L926.871 330.959L891.845 321.131L883.055 281.964L848.028 272.136L839.239 232.969L804.212 223.14L795.422 183.974L760.395 174.145L751.737 135.125L716.71 125.297L707.921 86.1302L672.894 76.3018L664.104 37.1351L629.077 27.3067L620.288 -11.8601L585.261 -21.6884L576.471 -60.8552L541.576 -70.5369L532.786 -109.704L497.759 -119.532L488.97 -158.699L453.943 -168.527L445.153 -207.694L410.127 -217.522L401.337 -256.689L366.31 -266.517L357.521 -305.684L322.494 -315.512L313.704 -354.679" stroke="#E5E5E5" stroke-miterlimit="10"/>
<path d="M920.968 386.262L912.31 347.242L877.283 337.413L868.493 298.247L833.466 288.418L824.677 249.252L789.65 239.423L780.86 200.256L745.834 190.428L737.175 151.408L702.148 141.58L693.359 102.413L658.332 92.5846L649.542 53.4178L614.516 43.5895L605.726 4.42268L570.699 -5.40567L561.91 -44.5725L527.014 -54.2541L518.224 -93.4209L483.198 -103.249L474.408 -142.416L439.381 -152.244L430.592 -191.411L395.565 -201.239L386.775 -240.406L351.748 -250.235L342.959 -289.401L307.932 -299.23L299.142 -338.396" stroke="#E5E5E5" stroke-miterlimit="10"/>
<path d="M906.406 402.545L897.748 363.525L862.721 353.696L853.932 314.53L818.905 304.701L810.115 265.534L775.088 255.706L766.299 216.539L731.272 206.711L722.614 167.691L687.587 157.863L678.797 118.696L643.77 108.867L634.981 69.7007L599.954 59.8723L591.164 20.7056L556.137 10.8772L547.348 -28.2896L512.452 -37.9713L503.663 -77.138L468.636 -86.9664L459.846 -126.133L424.819 -135.961L416.03 -175.128L381.003 -184.957L372.214 -224.123L337.187 -233.952L328.397 -273.118L293.37 -282.947L284.581 -322.114" stroke="#E5E5E5" stroke-miterlimit="10"/>
<path d="M891.844 418.827L883.186 379.807L848.159 369.979L839.37 330.812L804.343 320.984L795.553 281.817L760.526 271.989L751.737 232.822L716.71 222.994L708.052 183.974L673.025 174.145L664.235 134.978L629.208 125.15L620.419 85.9834L585.392 76.155L576.603 36.9883L541.576 27.1599L532.786 -12.0069L497.89 -21.6886L489.101 -60.8553L454.074 -70.6837L445.284 -109.85L410.258 -119.679L401.468 -158.846L366.441 -168.674L357.652 -207.841L322.625 -217.669L313.835 -256.836L278.808 -266.664L270.019 -305.831" stroke="#E5E5E5" stroke-miterlimit="10"/>
<path d="M877.283 435.11L868.625 396.09L833.598 386.262L824.808 347.095L789.781 337.267L780.992 298.1L745.965 288.272L737.175 249.105L702.149 239.277L693.49 200.257L658.463 190.428L649.674 151.261L614.647 141.433L605.857 102.266L570.83 92.438L562.041 53.2712L527.014 43.4428L518.225 4.27605L483.329 -5.40564L474.539 -44.5724L439.512 -54.4008L430.723 -93.5675L395.696 -103.396L386.906 -142.563L351.88 -152.391L343.09 -191.558L308.063 -201.386L299.274 -240.553L264.247 -250.381L255.457 -289.548" stroke="#E5E5E5" stroke-miterlimit="10"/>
<path d="M862.721 451.393L854.063 412.373L819.036 402.545L810.246 363.378L775.219 353.55L766.43 314.383L731.403 304.555L722.613 265.388L687.587 255.559L678.928 216.539L643.901 206.711L635.112 167.544L600.085 157.716L591.295 118.549L556.268 108.721L547.479 69.554L512.452 59.7256L503.663 20.5588L468.767 10.8771L459.977 -28.2896L424.95 -38.118L416.161 -77.2848L381.134 -87.1131L372.345 -126.28L337.318 -136.108L328.528 -175.275L293.501 -185.103L284.712 -224.27L249.685 -234.099L240.895 -273.265" stroke="#E5E5E5" stroke-miterlimit="10"/>
<path d="M848.159 467.676L839.501 428.656L804.474 418.828L795.684 379.661L760.658 369.833L751.868 330.666L716.841 320.837L708.052 281.671L673.025 271.842L664.366 232.822L629.34 222.994L620.55 183.827L585.523 173.999L576.734 134.832L541.707 125.004L532.917 85.8369L497.89 76.0085L489.101 36.8418L454.205 27.1601L445.416 -12.0066L410.389 -21.835L401.599 -61.0018L366.572 -70.8301L357.783 -109.997L322.756 -119.825L313.966 -158.992L278.94 -168.82L270.15 -207.987L235.123 -217.815L226.334 -256.982" stroke="#E5E5E5" stroke-miterlimit="10"/>
<path d="M833.598 483.959L824.939 444.939L789.912 435.11L781.123 395.944L746.096 386.115L737.307 346.949L702.28 337.12L693.49 297.953L658.463 288.125L649.805 249.105L614.778 239.277L605.989 200.11L570.962 190.282L562.172 151.115L527.145 141.286L518.356 102.12L483.329 92.2913L474.539 53.1245L439.644 43.4428L430.854 4.27611L395.827 -5.55227L387.038 -44.719L352.011 -54.5474L343.221 -93.7141L308.194 -103.542L299.405 -142.709L264.378 -152.538L255.589 -191.704L220.562 -201.533L211.772 -240.699" stroke="#E5E5E5" stroke-miterlimit="10"/>
<path d="M819.036 500.242L810.377 461.222L775.35 451.393L766.561 412.227L731.534 402.398L722.745 363.231L687.718 353.403L678.928 314.236L643.901 304.408L635.243 265.388L600.216 255.559L591.427 216.393L556.4 206.564L547.61 167.398L512.583 157.569L503.794 118.403L468.767 108.574L459.977 69.4074L425.082 59.7257L416.292 20.559L381.265 10.7306L372.476 -28.4362L337.449 -38.2645L328.659 -77.4313L293.632 -87.2596L284.843 -126.426L249.816 -136.255L241.027 -175.422L206 -185.25L197.21 -224.417" stroke="#E5E5E5" stroke-miterlimit="10"/>
<path d="M804.474 516.525L795.816 477.505L760.789 467.676L751.999 428.509L716.973 418.681L708.183 379.514L673.156 369.686L664.367 330.519L629.34 320.691L620.681 281.671L585.655 271.842L576.865 232.676L541.838 222.847L533.049 183.68L498.022 173.852L489.232 134.685L454.205 124.857L445.416 85.6902L410.52 76.0085L401.731 36.8418L366.704 27.0134L357.914 -12.1533L322.887 -21.9817L314.098 -61.1484L279.071 -70.9768L270.281 -110.144L235.255 -119.972L226.465 -159.139L191.438 -168.967L182.649 -208.134" stroke="#E5E5E5" stroke-miterlimit="10"/>
<path d="M789.912 532.807L781.254 493.787L746.227 483.959L737.437 444.792L702.41 434.964L693.621 395.797L658.594 385.969L649.805 346.802L614.778 336.974L606.119 297.954L571.092 288.125L562.303 248.958L527.276 239.13L518.487 199.963L483.46 190.135L474.67 150.968L439.643 141.14L430.854 101.973L395.958 92.2913L387.169 53.1246L352.142 43.2962L343.352 4.12943L308.325 -5.69891L299.536 -44.8657L264.509 -54.694L255.719 -93.8608L220.692 -103.689L211.903 -142.856L176.876 -152.684L168.086 -191.851" stroke="#E5E5E5" stroke-miterlimit="10"/>
<path d="M775.351 549.09L766.692 510.07L731.665 500.242L722.876 461.075L687.849 451.247L679.059 412.08L644.033 402.252L635.243 363.085L600.216 353.256L591.558 314.236L556.531 304.408L547.741 265.241L512.715 255.413L503.925 216.246L468.898 206.418L460.109 167.251L425.082 157.423L416.292 118.256L381.396 108.574L372.607 69.4074L337.58 59.579L328.791 20.4122L293.764 10.5839L284.974 -28.5829L249.947 -38.4112L241.158 -77.578L206.131 -87.4064L197.341 -126.573L162.314 -136.401L153.525 -175.568" stroke="#E5E5E5" stroke-miterlimit="10"/>
<path d="M760.789 565.373L752.13 526.353L717.104 516.525L708.314 477.358L673.287 467.529L664.498 428.363L629.471 418.534L620.681 379.368L585.654 369.539L576.996 330.519L541.969 320.691L533.18 281.524L498.153 271.696L489.363 232.529L454.336 222.701L445.547 183.534L410.52 173.705L401.73 134.539L366.835 124.857L358.045 85.6902L323.018 75.8619L314.229 36.6951L279.202 26.8667L270.412 -12.3L235.386 -22.1284L226.596 -61.2952L191.569 -71.1235L182.78 -110.29L147.753 -120.119L138.963 -159.285" stroke="#E5E5E5" stroke-miterlimit="10"/>
<path d="M746.227 581.656L737.569 542.636L702.542 532.807L693.753 493.641L658.726 483.812L649.936 444.645L614.909 434.817L606.12 395.65L571.093 385.822L562.435 346.802L527.408 336.974L518.618 297.807L483.591 287.978L474.802 248.812L439.775 238.983L430.985 199.817L395.958 189.988L387.169 150.821L352.273 141.14L343.484 101.973L308.457 92.1446L299.667 52.9778L264.64 43.1495L255.851 3.98268L220.824 -5.84566L212.034 -45.0124L177.008 -54.8408L168.218 -94.0076L133.191 -103.836L124.402 -143.003" stroke="#E5E5E5" stroke-miterlimit="10"/>
<path d="M731.665 597.939L723.007 558.919L687.98 549.09L679.191 509.923L644.164 500.095L635.374 460.928L600.347 451.1L591.558 411.933L556.531 402.105L547.873 363.085L512.846 353.256L504.056 314.09L469.029 304.261L460.24 265.095L425.213 255.266L416.423 216.099L381.396 206.271L372.607 167.104L337.711 157.423L328.922 118.256L293.895 108.428L285.105 69.2608L250.078 59.4325L241.289 20.2657L206.262 10.4374L197.473 -28.7294L162.446 -38.5578L153.656 -77.7245L118.629 -87.5529L109.84 -126.72" stroke="#E5E5E5" stroke-miterlimit="10"/>
<path d="M717.104 614.221L708.445 575.201L673.418 565.373L664.629 526.206L629.602 516.378L620.812 477.211L585.785 467.383L576.996 428.216L541.969 418.388L533.311 379.368L498.284 369.539L489.494 330.372L454.467 320.544L445.678 281.377L410.651 271.549L401.862 232.382L366.835 222.554L358.045 183.387L323.149 173.705L314.36 134.539L279.333 124.71L270.543 85.5435L235.517 75.7151L226.727 36.5483L191.7 26.72L182.911 -12.4468L147.884 -22.2752L139.094 -61.4419L104.067 -71.2703L95.2779 -110.437" stroke="#E5E5E5" stroke-miterlimit="10"/>
<path d="M702.542 630.504L693.884 591.484L658.857 581.656L650.067 542.489L615.04 532.661L606.251 493.494L571.224 483.666L562.434 444.499L527.408 434.67L518.749 395.65L483.722 385.822L474.933 346.655L439.906 336.827L431.116 297.66L396.09 287.832L387.3 248.665L352.273 238.837L343.484 199.67L308.588 189.988L299.798 150.821L264.771 140.993L255.982 101.826L220.955 91.9979L212.166 52.8311L177.139 43.0028L168.349 3.836L133.322 -5.99239L124.533 -45.1591L89.5058 -54.9875L80.7163 -94.1542" stroke="#E5E5E5" stroke-miterlimit="10"/>
<path d="M687.98 646.787L679.322 607.767L644.295 597.939L635.505 558.772L600.479 548.943L591.689 509.777L556.662 499.948L547.873 460.782L512.846 450.953L504.187 411.933L469.161 402.105L460.371 362.938L425.344 353.11L416.555 313.943L381.528 304.114L372.738 264.948L337.711 255.119L328.922 215.953L294.026 206.271L285.237 167.104L250.21 157.276L241.42 118.109L206.393 108.281L197.604 69.1139L162.577 59.2855L153.787 20.1188L118.761 10.2904L109.971 -28.8764L74.9441 -38.7047L66.1546 -77.8715" stroke="#E5E5E5" stroke-miterlimit="10"/>
<path d="M673.418 663.07L664.76 624.05L629.733 614.222L620.943 575.055L585.917 565.227L577.127 526.06L542.1 516.231L533.311 477.065L498.284 467.236L489.625 428.216L454.599 418.388L445.809 379.221L410.782 369.393L401.993 330.226L366.966 320.398L358.176 281.231L323.149 271.402L314.36 232.236L279.464 222.554L270.675 183.387L235.648 173.559L226.858 134.392L191.831 124.564L183.042 85.397L148.015 75.5686L139.225 36.4019L104.198 26.5735L95.409 -12.5933L60.3821 -22.4216L51.5926 -61.5884" stroke="#E5E5E5" stroke-miterlimit="10"/>
<path d="M658.856 679.353L650.198 640.333L615.171 630.504L606.382 591.338L571.355 581.509L562.565 542.342L527.538 532.514L518.749 493.347L483.722 483.519L475.064 444.499L440.037 434.671L431.247 395.504L396.22 385.675L387.431 346.509L352.404 336.68L343.614 297.514L308.588 287.685L299.798 248.518L264.902 238.837L256.113 199.67L221.086 189.842L212.296 150.675L177.27 140.846L168.48 101.68L133.453 91.8514L124.664 52.6846L89.6367 42.8562L80.8472 3.68946L45.8203 -6.13893L37.0308 -45.3057" stroke="#E5E5E5" stroke-miterlimit="10"/>
<path d="M644.295 695.636L635.637 656.615L600.61 646.787L591.82 607.62L556.793 597.792L548.004 558.625L512.977 548.797L504.187 509.63L469.161 499.802L460.502 460.782L425.475 450.953L416.686 411.787L381.659 401.958L372.869 362.791L337.842 352.963L329.053 313.796L294.026 303.968L285.237 264.801L250.341 255.12L241.551 215.953L206.524 206.124L197.735 166.958L162.708 157.129L153.919 117.963L118.892 108.134L110.102 68.9674L75.0752 59.1391L66.2857 19.9723L31.2588 10.1439L22.4693 -29.0228" stroke="#E5E5E5" stroke-miterlimit="10"/>
<path d="M629.733 711.918L621.075 672.898L586.048 663.07L577.258 623.903L542.232 614.075L533.442 574.908L498.415 565.08L489.626 525.913L454.599 516.084L445.94 477.064L410.914 467.236L402.124 428.069L367.097 418.241L358.308 379.074L323.281 369.246L314.491 330.079L279.464 320.251L270.675 281.084L235.779 271.402L226.99 232.235L191.963 222.407L183.173 183.24L148.146 173.412L139.357 134.245L104.33 124.417L95.5404 85.2501L60.5135 75.4217L51.724 36.255L16.6971 26.4266L7.90765 -12.7401" stroke="#E5E5E5" stroke-miterlimit="10"/>
<path d="M615.171 728.201L606.513 689.181L571.486 679.353L562.697 640.186L527.67 630.357L518.88 591.191L483.853 581.362L475.064 542.196L440.037 532.367L431.379 493.347L396.352 483.519L387.562 444.352L352.535 434.524L343.746 395.357L308.719 385.529L299.929 346.362L264.903 336.533L256.113 297.367L221.217 287.685L212.428 248.518L177.401 238.69L168.611 199.523L133.584 189.695L124.795 150.528L89.7681 140.7L80.9786 101.533L45.9517 91.7045L37.1622 52.5377L2.13526 42.7093L-6.65423 3.54261" stroke="#E5E5E5" stroke-miterlimit="10"/>
<path d="M600.61 744.484L591.951 705.464L556.924 695.636L548.135 656.469L513.108 646.64L504.319 607.474L469.292 597.645L460.502 558.479L425.475 548.65L416.817 509.63L381.79 499.802L373 460.635L337.974 450.807L329.184 411.64L294.157 401.812L285.368 362.645L250.341 352.816L241.551 313.65L206.656 303.968L197.866 264.801L162.839 254.973L154.05 215.806L119.023 205.978L110.233 166.811L75.2064 156.983L66.4169 117.816L31.39 107.987L22.6005 68.8207L-12.4264 58.9924L-21.2159 19.8256" stroke="#E5E5E5" stroke-miterlimit="10"/>
<path d="M586.048 760.767L577.39 721.747L542.363 711.918L533.573 672.752L498.546 662.923L489.757 623.756L454.73 613.928L445.94 574.761L410.913 564.933L402.255 525.913L367.228 516.084L358.439 476.918L323.412 467.089L314.622 427.923L279.595 418.094L270.806 378.927L235.779 369.099L226.989 329.932L192.094 320.251L183.304 281.084L148.277 271.256L139.488 232.089L104.461 222.26L95.6715 183.094L60.6446 173.265L51.8551 134.099L16.8282 124.27L8.0387 85.1034L-26.9882 75.275L-35.7777 36.1083" stroke="#E5E5E5" stroke-miterlimit="10"/>
<path d="M571.486 777.05L562.828 738.03L527.801 728.201L519.012 689.034L483.985 679.206L475.195 640.039L440.168 630.211L431.379 591.044L396.352 581.216L387.694 542.196L352.667 532.367L343.877 493.201L308.85 483.372L300.061 444.206L265.034 434.377L256.244 395.21L221.217 385.382L212.428 346.215L177.532 336.534L168.743 297.367L133.716 287.538L124.926 248.372L89.8994 238.543L81.1099 199.376L46.083 189.548L37.2935 150.381L2.2666 140.553L-6.5229 101.386L-41.5498 91.5578L-50.3393 52.3911" stroke="#E5E5E5" stroke-miterlimit="10"/>
<path d="M556.925 793.332L548.266 754.312L513.239 744.484L504.45 705.317L469.423 695.489L460.633 656.322L425.607 646.494L416.817 607.327L381.79 597.499L373.132 558.479L338.105 548.65L329.315 509.484L294.289 499.655L285.499 460.488L250.472 450.66L241.683 411.493L206.656 401.665L197.866 362.498L162.971 352.817L154.181 313.65L119.154 303.821L110.365 264.655L75.3378 254.826L66.5482 215.66L31.5214 205.831L22.7318 166.664L-12.295 156.836L-21.0845 117.669L-56.1114 107.841L-64.9009 68.6742" stroke="#E5E5E5" stroke-miterlimit="10"/>
<path d="M542.363 809.615L533.704 770.595L498.678 760.767L489.888 721.6L454.861 711.772L446.072 672.605L411.045 662.776L402.255 623.61L367.228 613.781L358.57 574.761L323.543 564.933L314.754 525.766L279.727 515.938L270.937 476.771L235.91 466.943L227.121 427.776L192.094 417.948L183.304 378.781L148.409 369.099L139.619 329.932L104.592 320.104L95.8028 280.937L60.7759 271.109L51.9864 231.942L16.9595 222.114L8.16997 182.947L-26.8569 173.119L-35.6464 133.952L-70.6733 124.124L-79.4628 84.9569" stroke="#E5E5E5" stroke-miterlimit="10"/>
<path d="M527.801 825.898L519.143 786.878L484.116 777.05L475.326 737.883L440.299 728.055L431.51 688.888L396.483 679.059L387.693 639.893L352.667 630.064L344.008 591.044L308.981 581.216L300.192 542.049L265.165 532.221L256.375 493.054L221.349 483.226L212.559 444.059L177.532 434.23L168.743 395.064L133.847 385.382L125.057 346.215L90.0305 336.387L81.241 297.22L46.2141 287.392L37.4246 248.225L2.39775 238.397L-6.39179 199.23L-41.4187 189.401L-50.2082 150.235L-85.2351 140.406L-94.0246 101.24" stroke="#E5E5E5" stroke-miterlimit="10"/>
<path d="M513.239 842.181L504.581 803.161L469.554 793.332L460.765 754.166L425.738 744.337L416.948 705.17L381.921 695.342L373.132 656.175L338.105 646.347L329.447 607.327L294.42 597.499L285.63 558.332L250.603 548.503L241.814 509.337L206.787 499.508L197.997 460.342L162.97 450.513L154.181 411.346L119.285 401.665L110.496 362.498L75.4688 352.67L66.6793 313.503L31.6524 303.675L22.8629 264.508L-12.164 254.679L-20.9535 215.513L-55.9804 205.684L-64.7699 166.518L-99.7968 156.689L-108.586 117.522" stroke="#E5E5E5" stroke-miterlimit="10"/>
<path d="M498.677 858.464L490.019 819.444L454.992 809.615L446.203 770.448L411.176 760.62L402.386 721.453L367.359 711.625L358.57 672.458L323.543 662.63L314.885 623.61L279.858 613.781L271.068 574.615L236.041 564.786L227.252 525.62L192.225 515.791L183.436 476.624L148.409 466.796L139.619 427.629L104.723 417.948L95.9339 378.781L60.907 368.952L52.1175 329.786L17.0906 319.957L8.30106 280.791L-26.7258 270.962L-35.5153 231.795L-70.5422 221.967L-79.3317 182.8L-114.359 172.972L-123.148 133.805" stroke="#E5E5E5" stroke-miterlimit="10"/>
<path d="M484.116 874.746L475.457 835.726L440.431 825.898L431.641 786.731L396.614 776.903L387.825 737.736L352.798 727.908L344.008 688.741L308.981 678.913L300.323 639.893L265.296 630.064L256.507 590.897L221.48 581.069L212.69 541.902L177.663 532.074L168.874 492.907L133.847 483.079L125.057 443.912L90.1617 434.23L81.3722 395.064L46.3453 385.235L37.5557 346.069L2.52889 336.24L-6.26065 297.073L-41.2875 287.245L-50.077 248.078L-85.1039 238.25L-93.8934 199.083L-128.92 189.255L-137.71 150.088" stroke="#E5E5E5" stroke-miterlimit="10"/>
<path d="M469.554 891.029L460.896 852.009L425.869 842.181L417.079 803.014L382.053 793.186L373.263 754.019L338.236 744.191L329.447 705.024L294.42 695.195L285.761 656.175L250.735 646.347L241.945 607.18L206.918 597.352L198.129 558.185L163.102 548.357L154.312 509.19L119.285 499.362L110.496 460.195L75.6001 450.513L66.8106 411.346L31.7837 401.518L22.9942 362.351L-12.0327 352.523L-20.8222 313.356L-55.8491 303.528L-64.6386 264.361L-99.6655 254.533L-108.455 215.366L-143.482 205.538L-152.271 166.371" stroke="#E5E5E5" stroke-miterlimit="10"/>
<path d="M454.992 907.312L446.334 868.292L411.307 858.464L402.518 819.297L367.491 809.469L358.701 770.302L323.674 760.473L314.885 721.307L279.858 711.478L271.2 672.458L236.173 662.63L227.383 623.463L192.356 613.635L183.567 574.468L148.54 564.64L139.75 525.473L104.724 515.644L95.934 476.478L61.0383 466.796L52.2488 427.629L17.2219 417.801L8.43238 378.634L-26.5945 368.806L-35.384 329.639L-70.4109 319.811L-79.2004 280.644L-114.227 270.815L-123.017 231.649L-158.044 221.82L-166.833 182.654" stroke="#E5E5E5" stroke-miterlimit="10"/>
<path d="M440.431 923.595L431.772 884.575L396.745 874.747L387.956 835.58L352.929 825.752L344.14 786.585L309.113 776.756L300.323 737.59L265.296 727.761L256.638 688.741L221.611 678.913L212.821 639.746L177.795 629.918L169.005 590.751L133.978 580.922L125.189 541.756L90.1618 531.927L81.3723 492.761L46.4766 483.079L37.6871 443.912L2.66017 434.084L-6.12937 394.917L-41.1562 385.089L-49.9458 345.922L-84.9726 336.093L-93.7622 296.927L-128.789 287.098L-137.579 247.932L-172.605 238.103L-181.395 198.936" stroke="#E5E5E5" stroke-miterlimit="10"/>
<path d="M425.869 939.878L417.211 900.858L382.184 891.029L373.394 851.862L338.367 842.034L329.578 802.867L294.551 793.039L285.761 753.872L250.734 744.044L242.076 705.024L207.049 695.195L198.26 656.029L163.233 646.2L154.443 607.034L119.416 597.205L110.627 558.038L75.6001 548.21L66.8105 509.043L31.9148 499.362L23.1253 460.195L-11.9016 450.366L-20.6911 411.2L-55.718 401.371L-64.5075 362.205L-99.5343 352.376L-108.324 313.21L-143.351 303.381L-152.14 264.214L-187.167 254.386L-195.957 215.219" stroke="#E5E5E5" stroke-miterlimit="10"/>
<path d="M411.307 956.161L402.649 917.14L367.622 907.312L358.832 868.145L323.806 858.317L315.016 819.15L279.989 809.322L271.2 770.155L236.173 760.327L227.514 721.307L192.488 711.478L183.698 672.312L148.671 662.483L139.882 623.316L104.855 613.488L96.0652 574.321L61.0383 564.493L52.2488 525.326L17.3531 515.644L8.56358 476.478L-26.4633 466.649L-35.2528 427.483L-70.2797 417.654L-79.0692 378.487L-114.096 368.659L-122.886 329.492L-157.913 319.664L-166.702 280.497L-201.729 270.669L-210.518 231.502" stroke="#E5E5E5" stroke-miterlimit="10"/>
<path d="M396.745 972.443L388.087 933.423L353.06 923.595L344.271 884.428L309.244 874.6L300.454 835.433L265.427 825.605L256.638 786.438L221.611 776.609L212.953 737.589L177.926 727.761L169.136 688.594L134.109 678.766L125.32 639.599L90.293 629.771L81.5034 590.604L46.4765 580.776L37.687 541.609L2.79131 531.927L-5.99818 492.76L-41.0251 482.932L-49.8146 443.765L-84.8415 433.937L-93.631 394.77L-128.658 384.942L-137.447 345.775L-172.474 335.947L-181.264 296.78L-216.291 286.952L-225.08 247.785" stroke="#E5E5E5" stroke-miterlimit="10"/>
<path d="M382.184 988.726L373.525 949.706L338.498 939.878L329.709 900.711L294.682 890.883L285.892 851.716L250.866 841.887L242.076 802.721L207.049 792.892L198.391 753.872L163.364 744.044L154.574 704.877L119.548 695.049L110.758 655.882L75.7312 646.054L66.9416 606.887L31.9148 597.058L23.1252 557.892L-11.7705 548.21L-20.56 509.043L-55.5869 499.215L-64.3764 460.048L-99.4033 450.22L-108.193 411.053L-143.22 401.225L-152.009 362.058L-187.036 352.229L-195.826 313.063L-230.852 303.234L-239.642 264.068" stroke="#E5E5E5" stroke-miterlimit="10"/>
<path d="M367.622 1005.01L358.963 965.989L323.937 956.16L315.147 916.994L280.12 907.165L271.331 867.999L236.304 858.17L227.514 819.003L192.487 809.175L183.829 770.155L148.802 760.327L140.013 721.16L104.986 711.332L96.1963 672.165L61.1694 662.336L52.3799 623.17L17.353 613.341L8.56346 574.174L-26.3322 564.493L-35.1217 525.326L-70.1486 515.498L-78.9382 476.331L-113.965 466.503L-122.755 427.336L-157.781 417.507L-166.571 378.341L-201.598 368.512L-210.387 329.346L-245.414 319.517L-254.204 280.35" stroke="#E5E5E5" stroke-miterlimit="10"/>
</g>
</svg>
