<svg width="364" height="380" viewBox="0 0 364 380" fill="none" xmlns="http://www.w3.org/2000/svg">
<mask id="mask0" mask-type="alpha" maskUnits="userSpaceOnUse" x="0" y="0" width="364" height="380">
<rect width="364" height="380" fill="#FF7800"/>
</mask>
<g mask="url(#mask0)">
<g clip-path="url(#clip0)">
<path d="M903.001 186.492L895.603 156.673L865.671 149.162L858.16 119.231L828.229 111.72L820.718 81.7888L790.787 74.2779L783.276 44.3466L753.345 36.8357L745.946 7.01654L716.015 -0.494322L708.504 -30.4256L678.573 -37.9365L671.062 -67.8678L641.13 -75.3786L633.619 -105.31L603.688 -112.821L596.177 -142.752L566.358 -150.151L558.847 -180.082L528.916 -187.593L521.405 -217.524L491.474 -225.035L483.963 -254.967L454.032 -262.477L446.521 -292.409L416.589 -299.92L409.079 -329.851L379.147 -337.362L371.636 -367.293" stroke="#E5E5E5" stroke-miterlimit="10"/>
</g>
<g clip-path="url(#clip1)">
<path d="M890.558 198.936L883.159 169.117L853.228 161.606L845.717 131.674L815.786 124.164L808.275 94.2323L778.343 86.7214L770.833 56.7901L740.901 49.2792L733.503 19.46L703.571 11.9492L696.06 -17.9822L666.129 -25.493L658.618 -55.4243L628.687 -62.9352L621.176 -92.8665L591.245 -100.377L583.734 -130.309L553.915 -137.707L546.404 -167.639L516.472 -175.15L508.962 -205.081L479.03 -212.592L471.519 -242.523L441.588 -250.034L434.077 -279.965L404.146 -287.476L396.635 -317.407L366.704 -324.918L359.193 -354.85" stroke="#E5E5E5" stroke-miterlimit="10"/>
</g>
<g clip-path="url(#clip2)">
<path d="M878.115 211.379L870.716 181.56L840.784 174.049L833.274 144.118L803.342 136.607L795.831 106.676L765.9 99.1647L758.389 69.2334L728.458 61.7225L721.059 31.9033L691.128 24.3925L683.617 -5.53885L653.686 -13.0497L646.175 -42.981L616.244 -50.4919L608.733 -80.4232L578.801 -87.934L571.29 -117.865L541.471 -125.264L533.96 -155.195L504.029 -162.706L496.518 -192.638L466.587 -200.148L459.076 -230.08L429.145 -237.591L421.634 -267.522L391.703 -275.033L384.192 -304.964L354.26 -312.475L346.75 -342.406" stroke="#E5E5E5" stroke-miterlimit="10"/>
</g>
<g clip-path="url(#clip3)">
<path d="M865.671 223.822L858.272 194.003L828.341 186.492L820.83 156.561L790.899 149.05L783.388 119.119L753.457 111.608L745.946 81.6767L716.015 74.1659L708.616 44.3467L678.684 36.8358L671.174 6.90451L641.242 -0.606343L633.731 -30.5377L603.8 -38.0485L596.289 -67.9798L566.358 -75.4907L558.847 -105.422L529.028 -112.821L521.517 -142.752L491.586 -150.263L484.075 -180.194L454.144 -187.705L446.633 -217.636L416.701 -225.147L409.191 -255.079L379.259 -262.589L371.748 -292.521L341.817 -300.032L334.306 -329.963" stroke="#E5E5E5" stroke-miterlimit="10"/>
</g>
<g clip-path="url(#clip4)">
<path d="M853.228 236.266L845.829 206.447L815.898 198.936L808.387 169.004L778.456 161.494L770.945 131.562L741.013 124.051L733.503 94.12L703.571 86.6092L696.172 56.79L666.241 49.2791L658.73 19.3478L628.799 11.837L621.288 -18.0944L591.357 -25.6052L583.846 -55.5365L553.915 -63.0474L546.404 -92.9787L516.585 -100.377L509.074 -130.309L479.142 -137.82L471.632 -167.751L441.7 -175.262L434.189 -205.193L404.258 -212.704L396.747 -242.635L366.816 -250.146L359.305 -280.077L329.374 -287.588L321.863 -317.52" stroke="#E5E5E5" stroke-miterlimit="10"/>
</g>
<g clip-path="url(#clip5)">
<path d="M840.784 248.709L833.386 218.89L803.454 211.379L795.944 181.448L766.012 173.937L758.501 144.006L728.57 136.495L721.059 106.563L691.128 99.0525L683.729 69.2333L653.798 61.7225L646.287 31.7912L616.356 24.2803L608.845 -5.651L578.913 -13.1618L571.403 -43.0932L541.471 -50.604L533.96 -80.5354L504.141 -87.9341L496.63 -117.865L466.699 -125.376L459.188 -155.308L429.257 -162.818L421.746 -192.75L391.815 -200.261L384.304 -230.192L354.372 -237.703L346.862 -267.634L316.93 -275.145L309.419 -305.076" stroke="#E5E5E5" stroke-miterlimit="10"/>
</g>
<g clip-path="url(#clip6)">
<path d="M828.341 261.153L820.942 231.333L791.011 223.822L783.5 193.891L753.569 186.38L746.058 156.449L716.127 148.938L708.616 119.007L678.684 111.496L671.286 81.6768L641.354 74.1659L633.844 44.2346L603.912 36.7237L596.401 6.79242L566.47 -0.718425L558.959 -30.6498L529.028 -38.1606L521.517 -68.0919L491.698 -75.4907L484.187 -105.422L454.256 -112.933L446.745 -142.864L416.813 -150.375L409.303 -180.306L379.371 -187.817L371.86 -217.748L341.929 -225.259L334.418 -255.191L304.487 -262.702L296.976 -292.633" stroke="#E5E5E5" stroke-miterlimit="10"/>
</g>
<g clip-path="url(#clip7)">
<path d="M815.898 273.596L808.499 243.777L778.568 236.266L771.057 206.335L741.125 198.824L733.615 168.892L703.683 161.381L696.172 131.45L666.241 123.939L658.842 94.1201L628.911 86.6092L621.4 56.6779L591.469 49.1671L583.958 19.2358L554.027 11.7249L546.516 -18.2064L516.585 -25.7173L509.074 -55.6486L479.254 -63.0474L471.744 -92.9786L441.812 -100.49L434.301 -130.421L404.37 -137.932L396.859 -167.863L366.928 -175.374L359.417 -205.305L329.486 -212.816L321.975 -242.747L292.044 -250.258L284.533 -280.189" stroke="#E5E5E5" stroke-miterlimit="10"/>
</g>
<g clip-path="url(#clip8)">
<path d="M803.454 286.039L796.056 256.22L766.124 248.709L758.613 218.778L728.682 211.267L721.171 181.336L691.24 173.825L683.729 143.893L653.798 136.383L646.399 106.563L616.468 99.0525L608.957 69.1212L579.026 61.6104L571.515 31.6791L541.583 24.1682L534.072 -5.76311L504.141 -13.274L496.63 -43.2053L466.811 -50.6041L459.3 -80.5353L429.369 -88.0462L421.858 -117.978L391.927 -125.488L384.416 -155.42L354.485 -162.931L346.974 -192.862L317.042 -200.373L309.532 -230.304L279.6 -237.815L272.089 -267.746" stroke="#E5E5E5" stroke-miterlimit="10"/>
</g>
<g clip-path="url(#clip9)">
<path d="M791.011 298.483L783.612 268.663L753.681 261.152L746.17 231.221L716.239 223.71L708.728 193.779L678.797 186.268L671.286 156.337L641.355 148.826L633.956 119.007L604.024 111.496L596.514 81.5646L566.582 74.0537L559.071 44.1224L529.14 36.6116L521.629 6.68025L491.698 -0.830607L484.187 -30.7619L454.368 -38.1607L446.857 -68.092L416.926 -75.6029L409.415 -105.534L379.484 -113.045L371.973 -142.976L342.041 -150.487L334.53 -180.419L304.599 -187.929L297.088 -217.861L267.157 -225.372L259.646 -255.303" stroke="#E5E5E5" stroke-miterlimit="10"/>
</g>
<g clip-path="url(#clip10)">
<path d="M778.568 310.926L771.169 281.107L741.238 273.596L733.727 243.665L703.795 236.154L696.285 206.222L666.353 198.712L658.842 168.78L628.911 161.269L621.512 131.45L591.581 123.939L584.07 94.0081L554.139 86.4972L546.628 56.5659L516.697 49.0551L509.186 19.1237L479.254 11.6129L471.744 -18.3184L441.924 -25.7172L434.414 -55.6485L404.482 -63.1593L396.971 -93.0907L367.04 -100.602L359.529 -130.533L329.598 -138.044L322.087 -167.975L292.156 -175.486L284.645 -205.417L254.714 -212.928L247.203 -242.859" stroke="#E5E5E5" stroke-miterlimit="10"/>
</g>
<g clip-path="url(#clip11)">
<path d="M766.124 323.369L758.726 293.55L728.794 286.039L721.283 256.108L691.352 248.597L683.841 218.666L653.91 211.155L646.399 181.224L616.468 173.713L609.069 143.894L579.138 136.383L571.627 106.451L541.695 98.9405L534.185 69.0092L504.253 61.4984L496.742 31.567L466.811 24.0562L459.3 -5.87513L429.481 -13.2739L421.97 -43.2052L392.039 -50.716L384.528 -80.6474L354.597 -88.1582L347.086 -118.09L317.155 -125.6L309.644 -155.532L279.712 -163.043L272.202 -192.974L242.27 -200.485L234.759 -230.416" stroke="#E5E5E5" stroke-miterlimit="10"/>
</g>
<g clip-path="url(#clip12)">
<path d="M753.681 335.813L746.282 305.993L716.351 298.483L708.84 268.551L678.909 261.04L671.398 231.109L641.467 223.598L633.956 193.667L604.024 186.156L596.626 156.337L566.694 148.826L559.183 118.895L529.252 111.384L521.741 81.4526L491.81 73.9417L484.299 44.0104L454.368 36.4996L446.857 6.56823L417.038 -0.83053L409.527 -30.7618L379.596 -38.2727L372.085 -68.204L342.153 -75.7148L334.642 -105.646L304.711 -113.157L297.2 -143.088L267.269 -150.599L259.758 -180.53L229.827 -188.041L222.316 -217.973" stroke="#E5E5E5" stroke-miterlimit="10"/>
</g>
<g clip-path="url(#clip13)">
<path d="M741.238 348.256L733.839 318.437L703.908 310.926L696.397 280.995L666.465 273.484L658.955 243.552L629.023 236.042L621.512 206.11L591.581 198.599L584.182 168.78L554.251 161.269L546.74 131.338L516.809 123.827L509.298 93.8959L479.367 86.385L471.856 56.4537L441.925 48.9429L434.414 19.0115L404.594 11.6128L397.084 -18.3185L367.152 -25.8294L359.641 -55.7607L329.71 -63.2716L322.199 -93.2029L292.268 -100.714L284.757 -130.645L254.826 -138.156L247.315 -168.087L217.384 -175.598L209.873 -205.529" stroke="#E5E5E5" stroke-miterlimit="10"/>
</g>
<g clip-path="url(#clip14)">
<path d="M728.794 360.699L721.395 330.88L691.464 323.369L683.953 293.438L654.022 285.927L646.511 255.996L616.58 248.485L609.069 218.554L579.138 211.043L571.739 181.224L541.808 173.713L534.297 143.782L504.365 136.271L496.855 106.339L466.923 98.8285L459.412 68.8972L429.481 61.3863L421.97 31.455L392.151 24.0562L384.64 -5.87507L354.709 -13.3859L347.198 -43.3173L317.267 -50.8281L309.756 -80.7594L279.824 -88.2703L272.314 -118.202L242.382 -125.712L234.871 -155.644L204.94 -163.155L197.429 -193.086" stroke="#E5E5E5" stroke-miterlimit="10"/>
</g>
<g clip-path="url(#clip15)">
<path d="M716.351 373.143L708.952 343.324L679.021 335.813L671.51 305.881L641.579 298.371L634.068 268.439L604.136 260.928L596.626 230.997L566.694 223.486L559.295 193.667L529.364 186.156L521.853 156.225L491.922 148.714L484.411 118.783L454.48 111.272L446.969 81.3405L417.038 73.8296L409.527 43.8983L379.708 36.4995L372.197 6.56823L342.265 -0.94264L334.755 -30.874L304.823 -38.3848L297.312 -68.3161L267.381 -75.827L259.87 -105.758L229.939 -113.269L222.428 -143.2L192.497 -150.711L184.986 -180.643" stroke="#E5E5E5" stroke-miterlimit="10"/>
</g>
<g clip-path="url(#clip16)">
<path d="M703.907 385.586L696.509 355.767L666.577 348.256L659.067 318.325L629.135 310.814L621.624 280.883L591.693 273.372L584.182 243.44L554.251 235.93L546.852 206.11L516.921 198.599L509.41 168.668L479.479 161.157L471.968 131.226L442.036 123.715L434.526 93.7838L404.594 86.273L397.083 56.3416L367.264 48.9429L359.753 19.0116L329.822 11.5007L322.311 -18.4306L292.38 -25.9414L284.869 -55.8728L254.938 -63.3836L247.427 -93.3149L217.496 -100.826L209.985 -130.757L180.053 -138.268L172.543 -168.199" stroke="#E5E5E5" stroke-miterlimit="10"/>
</g>
<g clip-path="url(#clip17)">
<path d="M691.464 398.029L684.065 368.21L654.134 360.699L646.623 330.768L616.692 323.257L609.181 293.326L579.25 285.815L571.739 255.884L541.808 248.373L534.409 218.554L504.477 211.043L496.967 181.112L467.035 173.601L459.524 143.669L429.593 136.159L422.082 106.227L392.151 98.7163L384.64 68.785L354.821 61.3862L347.31 31.4549L317.379 23.9441L309.868 -5.98725L279.937 -13.4981L272.426 -43.4294L242.494 -50.9402L234.983 -80.8716L205.052 -88.3824L197.541 -118.314L167.61 -125.825L160.099 -155.756" stroke="#E5E5E5" stroke-miterlimit="10"/>
</g>
<g clip-path="url(#clip18)">
<path d="M679.021 410.473L671.622 380.654L641.691 373.143L634.18 343.212L604.248 335.701L596.738 305.769L566.806 298.258L559.295 268.327L529.364 260.816L521.965 230.997L492.034 223.486L484.523 193.555L454.592 186.044L447.081 156.113L417.15 148.602L409.639 118.671L379.707 111.16L372.197 81.2284L342.377 73.8297L334.867 43.8984L304.935 36.3875L297.424 6.45617L267.493 -1.05466L259.982 -30.986L230.051 -38.4968L222.54 -68.4282L192.609 -75.939L185.098 -105.87L155.166 -113.381L147.656 -143.312" stroke="#E5E5E5" stroke-miterlimit="10"/>
</g>
<g clip-path="url(#clip19)">
<path d="M666.577 422.916L659.179 393.097L629.247 385.586L621.736 355.655L591.805 348.144L584.294 318.213L554.363 310.702L546.852 280.77L516.921 273.26L509.522 243.44L479.591 235.93L472.08 205.998L442.149 198.487L434.638 168.556L404.706 161.045L397.196 131.114L367.264 123.603L359.753 93.6717L329.934 86.273L322.423 56.3417L292.492 48.8308L284.981 18.8995L255.05 11.3886L247.539 -18.5427L217.608 -26.0535L210.097 -55.9849L180.165 -63.4957L172.655 -93.427L142.723 -100.938L135.212 -130.869" stroke="#E5E5E5" stroke-miterlimit="10"/>
</g>
<g clip-path="url(#clip20)">
<path d="M654.134 435.36L646.735 405.54L616.804 398.029L609.293 368.098L579.362 360.587L571.851 330.656L541.92 323.145L534.409 293.214L504.477 285.703L497.079 255.884L467.147 248.373L459.637 218.442L429.705 210.931L422.194 180.999L392.263 173.489L384.752 143.557L354.821 136.046L347.31 106.115L317.491 98.7163L309.98 68.785L280.049 61.2742L272.538 31.3428L242.606 23.832L235.096 -6.09933L205.164 -13.6102L197.653 -43.5415L167.722 -51.0524L160.211 -80.9837L130.28 -88.4945L122.769 -118.426" stroke="#E5E5E5" stroke-miterlimit="10"/>
</g>
<g clip-path="url(#clip21)">
<path d="M641.691 447.803L634.292 417.984L604.361 410.473L596.85 380.541L566.918 373.031L559.408 343.099L529.476 335.588L521.965 305.657L492.034 298.146L484.635 268.327L454.704 260.816L447.193 230.885L417.262 223.374L409.751 193.443L379.82 185.932L372.309 156.001L342.377 148.49L334.867 118.558L305.047 111.16L297.537 81.2283L267.605 73.7175L260.094 43.7861L230.163 36.2753L222.652 6.34396L192.721 -1.16687L185.21 -31.0982L155.279 -38.6091L147.768 -68.5404L117.837 -76.0512L110.326 -105.983" stroke="#E5E5E5" stroke-miterlimit="10"/>
</g>
<g clip-path="url(#clip22)">
<path d="M629.247 460.246L621.848 430.427L591.917 422.916L584.406 392.985L554.475 385.474L546.964 355.543L517.033 348.032L509.522 318.101L479.591 310.59L472.192 280.771L442.261 273.26L434.75 243.328L404.818 235.818L397.308 205.886L367.376 198.375L359.865 168.444L329.934 160.933L322.423 131.002L292.604 123.603L285.093 93.6719L255.162 86.161L247.651 56.2297L217.72 48.7188L210.209 18.7875L180.277 11.2767L172.767 -18.6547L142.835 -26.1655L135.324 -56.0968L105.393 -63.6077L97.8822 -93.539" stroke="#E5E5E5" stroke-miterlimit="10"/>
</g>
<g clip-path="url(#clip23)">
<path d="M616.804 472.69L609.405 442.87L579.474 435.36L571.963 405.428L542.032 397.917L534.521 367.986L504.59 360.475L497.079 330.544L467.147 323.033L459.749 293.214L429.817 285.703L422.306 255.772L392.375 248.261L384.864 218.33L354.933 210.819L347.422 180.887L317.491 173.377L309.98 143.445L280.161 136.046L272.65 106.115L242.719 98.6043L235.208 68.673L205.276 61.1621L197.765 31.2308L167.834 23.72L160.323 -6.21136L130.392 -13.7222L122.881 -43.6535L92.9498 -51.1644L85.439 -81.0957" stroke="#E5E5E5" stroke-miterlimit="10"/>
</g>
<g clip-path="url(#clip24)">
<path d="M604.361 485.133L596.962 455.314L567.031 447.803L559.52 417.872L529.588 410.361L522.078 380.429L492.146 372.919L484.635 342.987L454.704 335.476L447.305 305.657L417.374 298.146L409.863 268.215L379.932 260.704L372.421 230.773L342.49 223.262L334.979 193.331L305.047 185.82L297.537 155.889L267.717 148.49L260.206 118.558L230.275 111.048L222.764 81.1163L192.833 73.6054L185.322 43.6741L155.391 36.1633L147.88 6.23194L117.949 -1.27893L110.438 -31.2102L80.5065 -38.7211L72.9956 -68.6524" stroke="#E5E5E5" stroke-miterlimit="10"/>
</g>
<g clip-path="url(#clip25)">
<path d="M591.917 497.576L584.518 467.757L554.587 460.246L547.076 430.315L517.145 422.804L509.634 392.873L479.703 385.362L472.192 355.431L442.261 347.92L434.862 318.101L404.931 310.59L397.42 280.658L367.488 273.148L359.978 243.216L330.046 235.705L322.535 205.774L292.604 198.263L285.093 168.332L255.274 160.933L247.763 131.002L217.832 123.491L210.321 93.5596L180.39 86.0488L172.879 56.1175L142.947 48.6066L135.437 18.6753L105.505 11.1644L97.9944 -18.7669L68.0631 -26.2777L60.5523 -56.209" stroke="#E5E5E5" stroke-miterlimit="10"/>
</g>
<g clip-path="url(#clip26)">
<path d="M579.474 510.02L572.075 480.2L542.144 472.69L534.633 442.758L504.702 435.247L497.191 405.316L467.259 397.805L459.749 367.874L429.817 360.363L422.419 330.544L392.487 323.033L384.976 293.102L355.045 285.591L347.534 255.66L317.603 248.149L310.092 218.217L280.161 210.707L272.65 180.775L242.831 173.376L235.32 143.445L205.388 135.934L197.878 106.003L167.946 98.4921L160.435 68.5608L130.504 61.0499L122.993 31.1186L93.0619 23.6077L85.5511 -6.32356L55.6197 -13.8344L48.1089 -43.7657" stroke="#E5E5E5" stroke-miterlimit="10"/>
</g>
<g clip-path="url(#clip27)">
<path d="M567.031 522.463L559.632 492.644L529.7 485.133L522.19 455.202L492.258 447.691L484.747 417.76L454.816 410.249L447.305 380.317L417.374 372.806L409.975 342.987L380.044 335.476L372.533 305.545L342.602 298.034L335.091 268.103L305.16 260.592L297.649 230.661L267.717 223.15L260.206 193.219L230.387 185.82L222.876 155.889L192.945 148.378L185.434 118.446L155.503 110.936L147.992 81.0042L118.061 73.4933L110.55 43.562L80.6186 36.0512L73.1077 6.11986L43.1764 -1.39101L35.6656 -31.3223" stroke="#E5E5E5" stroke-miterlimit="10"/>
</g>
<g clip-path="url(#clip28)">
<path d="M554.587 534.906L547.188 505.087L517.257 497.576L509.746 467.645L479.815 460.134L472.304 430.203L442.373 422.692L434.862 392.761L404.931 385.25L397.532 355.431L367.6 347.92L360.09 317.988L330.158 310.478L322.647 280.546L292.716 273.035L285.205 243.104L255.274 235.593L247.763 205.662L217.944 198.263L210.433 168.332L180.502 160.821L172.991 130.89L143.06 123.379L135.549 93.4475L105.617 85.9366L98.1065 56.0053L68.1752 48.4944L60.6644 18.5632L30.733 11.0523L23.2222 -18.879" stroke="#E5E5E5" stroke-miterlimit="10"/>
</g>
<g clip-path="url(#clip29)">
<path d="M542.144 547.35L534.745 517.531L504.814 510.02L497.303 480.088L467.372 472.578L459.861 442.646L429.929 435.135L422.419 405.204L392.487 397.693L385.088 367.874L355.157 360.363L347.646 330.432L317.715 322.921L310.204 292.99L280.273 285.479L272.762 255.547L242.831 248.037L235.32 218.105L205.501 210.707L197.99 180.775L168.058 173.264L160.547 143.333L130.616 135.822L123.105 105.891L93.174 98.3801L85.6632 68.4487L55.7318 60.9379L48.221 31.0066L18.2897 23.4957L10.7788 -6.43559" stroke="#E5E5E5" stroke-miterlimit="10"/>
</g>
<g clip-path="url(#clip30)">
<path d="M529.701 559.793L522.302 529.974L492.37 522.463L484.86 492.532L454.928 485.021L447.417 455.09L417.486 447.579L409.975 417.647L380.044 410.137L372.645 380.317L342.714 372.806L335.203 342.875L305.272 335.364L297.761 305.433L267.83 297.922L260.319 267.991L230.387 260.48L222.877 230.549L193.057 223.15L185.546 193.219L155.615 185.708L148.104 155.776L118.173 148.266L110.662 118.334L80.7308 110.823L73.2199 80.892L43.2886 73.3812L35.7778 43.4499L5.84643 35.939L-1.66441 6.00771" stroke="#E5E5E5" stroke-miterlimit="10"/>
</g>
<g clip-path="url(#clip31)">
<path d="M517.257 572.236L509.858 542.417L479.927 534.906L472.416 504.975L442.485 497.464L434.974 467.533L405.043 460.022L397.532 430.091L367.601 422.58L360.202 392.761L330.271 385.25L322.76 355.318L292.828 347.808L285.318 317.876L255.386 310.365L247.875 280.434L217.944 272.923L210.433 242.992L180.614 235.593L173.103 205.662L143.172 198.151L135.661 168.22L105.73 160.709L98.2187 130.778L68.2874 123.267L60.7766 93.3354L30.8452 85.8245L23.3344 55.8932L-6.59693 48.3824L-14.1078 18.4511" stroke="#E5E5E5" stroke-miterlimit="10"/>
</g>
<g clip-path="url(#clip32)">
<path d="M504.814 584.68L497.415 554.861L467.484 547.35L459.973 517.418L430.042 509.908L422.531 479.976L392.599 472.465L385.089 442.534L355.157 435.023L347.759 405.204L317.827 397.693L310.316 367.762L280.385 360.251L272.874 330.32L242.943 322.809L235.432 292.878L205.501 285.367L197.99 255.435L168.171 248.037L160.66 218.105L130.728 210.594L123.218 180.663L93.2862 173.152L85.7754 143.221L55.8441 135.71L48.3332 105.779L18.4019 98.2679L10.891 68.3367L-19.0403 60.8258L-26.5511 30.8945" stroke="#E5E5E5" stroke-miterlimit="10"/>
</g>
<g clip-path="url(#clip33)">
<path d="M492.37 597.123L484.972 567.304L455.04 559.793L447.53 529.862L417.598 522.351L410.087 492.42L380.156 484.909L372.645 454.977L342.714 447.467L335.315 417.647L305.384 410.137L297.873 380.205L267.942 372.694L260.431 342.763L230.499 335.252L222.989 305.321L193.057 297.81L185.546 267.879L155.727 260.48L148.216 230.549L118.285 223.038L110.774 193.106L80.8429 185.596L73.332 155.664L43.4007 148.153L35.8898 118.222L5.95852 110.711L-1.55232 80.78L-31.4836 73.2691L-38.9945 43.3378" stroke="#E5E5E5" stroke-miterlimit="10"/>
</g>
<g clip-path="url(#clip34)">
<path d="M479.927 609.567L472.528 579.747L442.597 572.236L435.086 542.305L405.155 534.794L397.644 504.863L367.713 497.352L360.202 467.421L330.27 459.91L322.872 430.091L292.94 422.58L285.429 392.649L255.498 385.138L247.987 355.206L218.056 347.696L210.545 317.764L180.614 310.253L173.103 280.322L143.284 272.923L135.773 242.992L105.842 235.481L98.3307 205.55L68.3994 198.039L60.8885 168.108L30.9572 160.597L23.4464 130.665L-6.48496 123.155L-13.9958 93.2233L-43.9271 85.7124L-51.438 55.7811" stroke="#E5E5E5" stroke-miterlimit="10"/>
</g>
<g clip-path="url(#clip35)">
<path d="M467.484 622.01L460.085 592.191L430.154 584.68L422.643 554.749L392.712 547.238L385.201 517.306L355.269 509.795L347.758 479.864L317.827 472.353L310.428 442.534L280.497 435.023L272.986 405.092L243.055 397.581L235.544 367.65L205.613 360.139L198.102 330.208L168.171 322.697L160.66 292.765L130.84 285.367L123.33 255.435L93.3983 247.924L85.8875 217.993L55.9562 210.482L48.4453 180.551L18.514 173.04L11.0031 143.109L-18.9282 135.598L-26.439 105.667L-56.3704 98.1558L-63.8812 68.2245" stroke="#E5E5E5" stroke-miterlimit="10"/>
</g>
<g clip-path="url(#clip36)">
<path d="M455.04 634.453L447.642 604.634L417.71 597.123L410.199 567.192L380.268 559.681L372.757 529.75L342.826 522.239L335.315 492.308L305.384 484.797L297.985 454.977L268.054 447.467L260.543 417.535L230.612 410.024L223.101 380.093L193.169 372.582L185.659 342.651L155.727 335.14L148.216 305.209L118.397 297.81L110.886 267.879L80.955 260.368L73.4441 230.437L43.5128 222.926L36.0019 192.994L6.07064 185.484L-1.44023 155.552L-31.3716 148.041L-38.8824 118.11L-68.8137 110.599L-76.3246 80.6679" stroke="#E5E5E5" stroke-miterlimit="10"/>
</g>
<g clip-path="url(#clip37)">
<path d="M442.597 646.897L435.198 617.077L405.267 609.567L397.756 579.635L367.825 572.124L360.314 542.193L330.383 534.682L322.872 504.751L292.94 497.24L285.542 467.421L255.61 459.91L248.1 429.979L218.168 422.468L210.657 392.536L180.726 385.026L173.215 355.094L143.284 347.583L135.773 317.652L105.954 310.253L98.4429 280.322L68.5116 272.811L61.0007 242.88L31.0694 235.369L23.5586 205.438L-6.37272 197.927L-13.8836 167.996L-43.8149 160.485L-51.3258 130.553L-81.2571 123.043L-88.7679 93.1112" stroke="#E5E5E5" stroke-miterlimit="10"/>
</g>
<g clip-path="url(#clip38)">
<path d="M430.154 659.34L422.755 629.521L392.824 622.01L385.313 592.079L355.381 584.568L347.871 554.636L317.939 547.126L310.428 517.194L280.497 509.683L273.098 479.864L243.167 472.353L235.656 442.422L205.725 434.911L198.214 404.98L168.283 397.469L160.772 367.538L130.841 360.027L123.33 330.095L93.5104 322.697L85.9996 292.765L56.0683 285.255L48.5574 255.323L18.6261 247.812L11.1152 217.881L-18.8161 210.37L-26.3269 180.439L-56.2583 172.928L-63.7691 142.997L-93.7004 135.486L-101.211 105.555" stroke="#E5E5E5" stroke-miterlimit="10"/>
</g>
<g clip-path="url(#clip39)">
<path d="M417.71 671.783L410.312 641.964L380.38 634.453L372.869 604.522L342.938 597.011L335.427 567.08L305.496 559.569L297.985 529.638L268.054 522.127L260.655 492.308L230.724 484.797L223.213 454.865L193.282 447.355L185.771 417.423L155.839 409.912L148.328 379.981L118.397 372.47L110.886 342.539L81.0671 335.14L73.5563 305.209L43.6249 297.698L36.1141 267.767L6.18276 260.256L-1.32811 230.324L-31.2594 222.814L-38.7703 192.882L-68.7016 185.371L-76.2124 155.44L-106.144 147.929L-113.655 117.998" stroke="#E5E5E5" stroke-miterlimit="10"/>
</g>
<g clip-path="url(#clip40)">
<path d="M405.267 684.227L397.868 654.407L367.937 646.897L360.426 616.965L330.495 609.454L322.984 579.523L293.053 572.012L285.542 542.081L255.61 534.57L248.212 504.751L218.28 497.24L210.769 467.309L180.838 459.798L173.327 429.867L143.396 422.356L135.885 392.424L105.954 384.914L98.4429 354.982L68.6237 347.583L61.1129 317.652L31.1816 310.141L23.6707 280.21L-6.2606 272.699L-13.7715 242.768L-43.7028 235.257L-51.2136 205.326L-81.145 197.815L-88.6558 167.884L-118.587 160.373L-126.098 130.441" stroke="#E5E5E5" stroke-miterlimit="10"/>
</g>
<g clip-path="url(#clip41)">
<path d="M392.824 696.67L385.425 666.851L355.494 659.34L347.983 629.409L318.051 621.898L310.541 591.967L280.609 584.456L273.098 554.524L243.167 547.013L235.768 517.194L205.837 509.683L198.326 479.752L168.395 472.241L160.884 442.31L130.953 434.799L123.442 404.868L93.5105 397.357L85.9996 367.426L56.1804 360.027L48.6695 330.096L18.7382 322.585L11.2273 292.653L-18.704 285.143L-26.2148 255.211L-56.1461 247.7L-63.657 217.769L-93.5883 210.258L-101.099 180.327L-131.03 172.816L-138.541 142.885" stroke="#E5E5E5" stroke-miterlimit="10"/>
</g>
<g clip-path="url(#clip42)">
<path d="M380.38 709.113L372.981 679.294L343.05 671.783L335.539 641.852L305.608 634.341L298.097 604.41L268.166 596.899L260.655 566.968L230.724 559.457L223.325 529.638L193.394 522.127L185.883 492.195L155.951 484.685L148.441 454.753L118.509 447.242L110.998 417.311L81.0671 409.8L73.5562 379.869L43.737 372.47L36.2262 342.539L6.29484 335.028L-1.21602 305.097L-31.1473 297.586L-38.6582 267.655L-68.5895 260.144L-76.1004 230.212L-106.032 222.702L-113.543 192.77L-143.474 185.259L-150.985 155.328" stroke="#E5E5E5" stroke-miterlimit="10"/>
</g>
<g clip-path="url(#clip43)">
<path d="M367.937 721.557L360.538 691.738L330.607 684.227L323.096 654.295L293.165 646.785L285.654 616.853L255.722 609.342L248.212 579.411L218.28 571.9L210.882 542.081L180.95 534.57L173.439 504.639L143.508 497.128L135.997 467.197L106.066 459.686L98.555 429.754L68.6237 422.244L61.1129 392.312L31.2936 384.914L23.7828 354.982L-6.14852 347.471L-13.6594 317.54L-43.5907 310.029L-51.1015 280.098L-81.0328 272.587L-88.5437 242.656L-118.475 235.145L-125.986 205.214L-155.917 197.703L-163.428 167.771" stroke="#E5E5E5" stroke-miterlimit="10"/>
</g>
<g clip-path="url(#clip44)">
<path d="M355.494 734L348.095 704.181L318.163 696.67L310.653 666.739L280.721 659.228L273.21 629.297L243.279 621.786L235.768 591.854L205.837 584.344L198.438 554.524L168.507 547.013L160.996 517.082L131.065 509.571L123.554 479.64L93.6226 472.129L86.1117 442.198L56.1804 434.687L48.6695 404.756L18.8503 397.357L11.3395 367.426L-18.5919 359.915L-26.1027 329.983L-56.034 322.473L-63.5449 292.541L-93.4762 285.03L-100.987 255.099L-130.918 247.588L-138.429 217.657L-168.361 210.146L-175.871 180.215" stroke="#E5E5E5" stroke-miterlimit="10"/>
</g>
<g clip-path="url(#clip45)">
<path d="M343.05 746.443L335.651 716.624L305.72 709.113L298.209 679.182L268.278 671.671L260.767 641.74L230.836 634.229L223.325 604.298L193.394 596.787L185.995 566.968L156.064 559.457L148.553 529.526L118.621 522.015L111.111 492.083L81.1792 484.573L73.6683 454.641L43.737 447.13L36.2261 417.199L6.40693 409.8L-1.10391 379.869L-31.0352 372.358L-38.5461 342.427L-68.4774 334.916L-75.9883 304.985L-105.92 297.474L-113.43 267.542L-143.362 260.032L-150.873 230.1L-180.804 222.589L-188.315 192.658" stroke="#E5E5E5" stroke-miterlimit="10"/>
</g>
<g clip-path="url(#clip46)">
<path d="M330.607 758.887L323.208 729.068L293.277 721.557L285.766 691.625L255.835 684.114L248.324 654.183L218.392 646.672L210.882 616.741L180.95 609.23L173.551 579.411L143.62 571.9L136.109 541.969L106.178 534.458L98.6671 504.527L68.7358 497.016L61.225 467.084L31.2937 459.574L23.7828 429.642L-6.03643 422.244L-13.5473 392.312L-43.4786 384.801L-50.9895 354.87L-80.9208 347.359L-88.4316 317.428L-118.363 309.917L-125.874 279.986L-155.805 272.475L-163.316 242.544L-193.247 235.033L-200.758 205.101" stroke="#E5E5E5" stroke-miterlimit="10"/>
</g>
<g clip-path="url(#clip47)">
<path d="M318.163 771.33L310.765 741.511L280.833 734L273.323 704.069L243.391 696.558L235.88 666.627L205.949 659.116L198.438 629.184L168.507 621.674L161.108 591.854L131.177 584.344L123.666 554.412L93.7346 546.901L86.2238 516.97L56.2925 509.459L48.7816 479.528L18.8503 472.017L11.3394 442.086L-18.4798 434.687L-25.9906 404.756L-55.922 397.245L-63.4328 367.313L-93.3641 359.803L-100.875 329.871L-130.806 322.361L-138.317 292.429L-168.248 284.918L-175.759 254.987L-205.691 247.476L-213.201 217.545" stroke="#E5E5E5" stroke-miterlimit="10"/>
</g>
<g clip-path="url(#clip48)">
<path d="M305.72 783.774L298.321 753.954L268.39 746.443L260.879 716.512L230.948 709.001L223.437 679.07L193.506 671.559L185.995 641.628L156.064 634.117L148.665 604.298L118.733 596.787L111.223 566.856L81.2913 559.345L73.7804 529.413L43.8491 521.903L36.3383 491.971L6.40694 484.46L-1.10393 454.529L-30.9231 447.13L-38.434 417.199L-68.3653 409.688L-75.8762 379.757L-105.807 372.246L-113.318 342.315L-143.25 334.804L-150.761 304.873L-180.692 297.362L-188.203 267.43L-218.134 259.92L-225.645 229.988" stroke="#E5E5E5" stroke-miterlimit="10"/>
</g>
<g clip-path="url(#clip49)">
<path d="M293.277 796.217L285.878 766.398L255.947 758.887L248.436 728.956L218.504 721.445L210.994 691.513L181.062 684.003L173.551 654.071L143.62 646.56L136.221 616.741L106.29 609.23L98.7792 579.299L68.8479 571.788L61.3371 541.857L31.4058 534.346L23.8949 504.415L-6.03642 496.904L-13.5473 466.972L-43.3665 459.574L-50.8773 429.642L-80.8087 422.132L-88.3195 392.2L-118.251 384.689L-125.762 354.758L-155.693 347.247L-163.204 317.316L-193.135 309.805L-200.646 279.874L-230.577 272.363L-238.088 242.432" stroke="#E5E5E5" stroke-miterlimit="10"/>
</g>
</g>
<defs>
<clipPath id="clip0">
<rect x="902.665" y="187.501" width="768.11" height="17.5976" transform="rotate(-135 902.665 187.501)" fill="white"/>
</clipPath>
<clipPath id="clip1">
<rect x="890.222" y="199.945" width="768.11" height="17.5976" transform="rotate(-135 890.222 199.945)" fill="white"/>
</clipPath>
<clipPath id="clip2">
<rect x="877.778" y="212.388" width="768.11" height="17.5976" transform="rotate(-135 877.778 212.388)" fill="white"/>
</clipPath>
<clipPath id="clip3">
<rect x="865.335" y="224.831" width="768.11" height="17.5976" transform="rotate(-135 865.335 224.831)" fill="white"/>
</clipPath>
<clipPath id="clip4">
<rect x="852.891" y="237.275" width="768.11" height="17.5976" transform="rotate(-135 852.891 237.275)" fill="white"/>
</clipPath>
<clipPath id="clip5">
<rect x="840.448" y="249.718" width="768.11" height="17.5976" transform="rotate(-135 840.448 249.718)" fill="white"/>
</clipPath>
<clipPath id="clip6">
<rect x="828.005" y="262.161" width="768.11" height="17.5976" transform="rotate(-135 828.005 262.161)" fill="white"/>
</clipPath>
<clipPath id="clip7">
<rect x="815.561" y="274.605" width="768.11" height="17.5976" transform="rotate(-135 815.561 274.605)" fill="white"/>
</clipPath>
<clipPath id="clip8">
<rect x="803.118" y="287.048" width="768.11" height="17.5976" transform="rotate(-135 803.118 287.048)" fill="white"/>
</clipPath>
<clipPath id="clip9">
<rect x="790.675" y="299.491" width="768.11" height="17.5976" transform="rotate(-135 790.675 299.491)" fill="white"/>
</clipPath>
<clipPath id="clip10">
<rect x="778.231" y="311.935" width="768.11" height="17.5976" transform="rotate(-135 778.231 311.935)" fill="white"/>
</clipPath>
<clipPath id="clip11">
<rect x="765.788" y="324.378" width="768.11" height="17.5976" transform="rotate(-135 765.788 324.378)" fill="white"/>
</clipPath>
<clipPath id="clip12">
<rect x="753.345" y="336.822" width="768.11" height="17.5976" transform="rotate(-135 753.345 336.822)" fill="white"/>
</clipPath>
<clipPath id="clip13">
<rect x="740.901" y="349.265" width="768.11" height="17.5976" transform="rotate(-135 740.901 349.265)" fill="white"/>
</clipPath>
<clipPath id="clip14">
<rect x="728.458" y="361.708" width="768.11" height="17.5976" transform="rotate(-135 728.458 361.708)" fill="white"/>
</clipPath>
<clipPath id="clip15">
<rect x="716.015" y="374.152" width="768.11" height="17.5976" transform="rotate(-135 716.015 374.152)" fill="white"/>
</clipPath>
<clipPath id="clip16">
<rect x="703.571" y="386.595" width="768.11" height="17.5976" transform="rotate(-135 703.571 386.595)" fill="white"/>
</clipPath>
<clipPath id="clip17">
<rect x="691.128" y="399.038" width="768.11" height="17.5976" transform="rotate(-135 691.128 399.038)" fill="white"/>
</clipPath>
<clipPath id="clip18">
<rect x="678.684" y="411.482" width="768.11" height="17.5976" transform="rotate(-135 678.684 411.482)" fill="white"/>
</clipPath>
<clipPath id="clip19">
<rect x="666.241" y="423.925" width="768.11" height="17.5976" transform="rotate(-135 666.241 423.925)" fill="white"/>
</clipPath>
<clipPath id="clip20">
<rect x="653.798" y="436.368" width="768.11" height="17.5976" transform="rotate(-135 653.798 436.368)" fill="white"/>
</clipPath>
<clipPath id="clip21">
<rect x="641.354" y="448.812" width="768.11" height="17.5976" transform="rotate(-135 641.354 448.812)" fill="white"/>
</clipPath>
<clipPath id="clip22">
<rect x="628.911" y="461.255" width="768.11" height="17.5976" transform="rotate(-135 628.911 461.255)" fill="white"/>
</clipPath>
<clipPath id="clip23">
<rect x="616.468" y="473.699" width="768.11" height="17.5976" transform="rotate(-135 616.468 473.699)" fill="white"/>
</clipPath>
<clipPath id="clip24">
<rect x="604.024" y="486.142" width="768.11" height="17.5976" transform="rotate(-135 604.024 486.142)" fill="white"/>
</clipPath>
<clipPath id="clip25">
<rect x="591.581" y="498.585" width="768.11" height="17.5976" transform="rotate(-135 591.581 498.585)" fill="white"/>
</clipPath>
<clipPath id="clip26">
<rect x="579.138" y="511.029" width="768.11" height="17.5976" transform="rotate(-135 579.138 511.029)" fill="white"/>
</clipPath>
<clipPath id="clip27">
<rect x="566.694" y="523.472" width="768.11" height="17.5976" transform="rotate(-135 566.694 523.472)" fill="white"/>
</clipPath>
<clipPath id="clip28">
<rect x="554.251" y="535.915" width="768.11" height="17.5976" transform="rotate(-135 554.251 535.915)" fill="white"/>
</clipPath>
<clipPath id="clip29">
<rect x="541.807" y="548.359" width="768.11" height="17.5976" transform="rotate(-135 541.807 548.359)" fill="white"/>
</clipPath>
<clipPath id="clip30">
<rect x="529.364" y="560.802" width="768.11" height="17.5976" transform="rotate(-135 529.364 560.802)" fill="white"/>
</clipPath>
<clipPath id="clip31">
<rect x="516.921" y="573.245" width="768.11" height="17.5976" transform="rotate(-135 516.921 573.245)" fill="white"/>
</clipPath>
<clipPath id="clip32">
<rect x="504.478" y="585.689" width="768.11" height="17.5976" transform="rotate(-135 504.478 585.689)" fill="white"/>
</clipPath>
<clipPath id="clip33">
<rect x="492.034" y="598.132" width="768.11" height="17.5976" transform="rotate(-135 492.034 598.132)" fill="white"/>
</clipPath>
<clipPath id="clip34">
<rect x="479.591" y="610.575" width="768.11" height="17.5976" transform="rotate(-135 479.591 610.575)" fill="white"/>
</clipPath>
<clipPath id="clip35">
<rect x="467.147" y="623.019" width="768.11" height="17.5976" transform="rotate(-135 467.147 623.019)" fill="white"/>
</clipPath>
<clipPath id="clip36">
<rect x="454.704" y="635.462" width="768.11" height="17.5976" transform="rotate(-135 454.704 635.462)" fill="white"/>
</clipPath>
<clipPath id="clip37">
<rect x="442.261" y="647.906" width="768.11" height="17.5976" transform="rotate(-135 442.261 647.906)" fill="white"/>
</clipPath>
<clipPath id="clip38">
<rect x="429.817" y="660.349" width="768.11" height="17.5976" transform="rotate(-135 429.817 660.349)" fill="white"/>
</clipPath>
<clipPath id="clip39">
<rect x="417.374" y="672.792" width="768.11" height="17.5976" transform="rotate(-135 417.374 672.792)" fill="white"/>
</clipPath>
<clipPath id="clip40">
<rect x="404.931" y="685.236" width="768.11" height="17.5976" transform="rotate(-135 404.931 685.236)" fill="white"/>
</clipPath>
<clipPath id="clip41">
<rect x="392.487" y="697.679" width="768.11" height="17.5976" transform="rotate(-135 392.487 697.679)" fill="white"/>
</clipPath>
<clipPath id="clip42">
<rect x="380.044" y="710.122" width="768.11" height="17.5976" transform="rotate(-135 380.044 710.122)" fill="white"/>
</clipPath>
<clipPath id="clip43">
<rect x="367.601" y="722.566" width="768.11" height="17.5976" transform="rotate(-135 367.601 722.566)" fill="white"/>
</clipPath>
<clipPath id="clip44">
<rect x="355.157" y="735.009" width="768.11" height="17.5976" transform="rotate(-135 355.157 735.009)" fill="white"/>
</clipPath>
<clipPath id="clip45">
<rect x="342.714" y="747.452" width="768.11" height="17.5976" transform="rotate(-135 342.714 747.452)" fill="white"/>
</clipPath>
<clipPath id="clip46">
<rect x="330.271" y="759.896" width="768.11" height="17.5976" transform="rotate(-135 330.271 759.896)" fill="white"/>
</clipPath>
<clipPath id="clip47">
<rect x="317.827" y="772.339" width="768.11" height="17.5976" transform="rotate(-135 317.827 772.339)" fill="white"/>
</clipPath>
<clipPath id="clip48">
<rect x="305.384" y="784.782" width="768.11" height="17.5976" transform="rotate(-135 305.384 784.782)" fill="white"/>
</clipPath>
<clipPath id="clip49">
<rect x="292.94" y="797.226" width="768.11" height="17.5976" transform="rotate(-135 292.94 797.226)" fill="white"/>
</clipPath>
</defs>
</svg>
