<svg width="945" height="422" viewBox="0 0 945 422" fill="none" xmlns="http://www.w3.org/2000/svg">
<mask id="mask0" mask-type="alpha" maskUnits="userSpaceOnUse" x="0" y="0" width="945" height="422">
<rect width="945" height="422" fill="#FF7800"/>
</mask>
<g mask="url(#mask0)">
<path d="M1081.15 100.696L1072.49 65.8006L1037.46 57.0111L1028.67 21.9842L993.646 13.1947L984.856 -21.8322L949.829 -30.6217L941.04 -65.6486L906.013 -74.4381L897.355 -109.334L862.328 -118.123L853.538 -153.15L818.511 -161.94L809.722 -196.967L774.695 -205.756L765.905 -240.783L730.878 -249.572L722.089 -284.599L687.193 -293.258L678.404 -328.285L643.377 -337.074L634.587 -372.101L599.56 -380.89L590.771 -415.917L555.744 -424.707L546.955 -459.734L511.928 -468.523L503.138 -503.55L468.111 -512.34L459.322 -547.366" stroke="#E5E5E5" stroke-miterlimit="10"/>
<path d="M1066.59 115.258L1057.93 80.3623L1022.9 71.5728L1014.11 36.546L979.084 27.7564L970.294 -7.27043L935.268 -16.06L926.478 -51.0868L891.451 -59.8763L882.793 -94.772L847.766 -103.562L838.976 -138.588L803.95 -147.378L795.16 -182.405L760.133 -191.194L751.344 -226.221L716.317 -235.011L707.527 -270.038L672.632 -278.696L663.842 -313.723L628.815 -322.512L620.026 -357.539L584.999 -366.329L576.209 -401.356L541.182 -410.145L532.393 -445.172L497.366 -453.962L488.576 -488.988L453.55 -497.778L444.76 -532.805" stroke="#E5E5E5" stroke-miterlimit="10"/>
<path d="M1052.02 129.82L1043.37 94.9241L1008.34 86.1346L999.549 51.1077L964.522 42.3182L955.733 7.29129L920.706 -1.49823L911.916 -36.5251L876.889 -45.3146L868.231 -80.2103L833.204 -88.9998L824.415 -124.027L789.388 -132.816L780.598 -167.843L745.571 -176.633L736.782 -211.659L701.755 -220.449L692.965 -255.476L658.07 -264.134L649.28 -299.161L614.253 -307.951L605.464 -342.978L570.437 -351.767L561.647 -386.794L526.621 -395.583L517.831 -430.61L482.804 -439.4L474.015 -474.427L438.988 -483.216L430.198 -518.243" stroke="#E5E5E5" stroke-miterlimit="10"/>
<path d="M1037.46 144.381L1028.8 109.486L993.777 100.696L984.987 65.6694L949.96 56.8799L941.171 21.853L906.144 13.0635L897.355 -21.9634L862.328 -30.7529L853.669 -65.6486L818.642 -74.4381L809.853 -109.465L774.826 -118.254L766.037 -153.281L731.01 -162.071L722.22 -197.098L687.193 -205.887L678.404 -240.914L643.508 -249.573L634.719 -284.599L599.692 -293.389L590.902 -328.416L555.875 -337.205L547.086 -372.232L512.059 -381.022L503.269 -416.049L468.242 -424.838L459.453 -459.865L424.426 -468.654L415.637 -503.681" stroke="#E5E5E5" stroke-miterlimit="10"/>
<path d="M1022.9 158.943L1014.24 124.048L979.215 115.258L970.425 80.2313L935.399 71.4418L926.609 36.4149L891.582 27.6254L882.793 -7.40149L847.766 -16.191L839.107 -51.0867L804.081 -59.8762L795.291 -94.9031L760.264 -103.693L751.475 -138.719L716.448 -147.509L707.658 -182.536L672.631 -191.325L663.842 -226.352L628.946 -235.011L620.157 -270.037L585.13 -278.827L576.34 -313.854L541.313 -322.643L532.524 -357.67L497.497 -366.46L488.707 -401.487L453.681 -410.276L444.891 -445.303L409.864 -454.093L401.075 -489.119" stroke="#E5E5E5" stroke-miterlimit="10"/>
<path d="M1008.34 173.505L999.68 138.609L964.653 129.82L955.864 94.7929L920.837 86.0034L912.047 50.9765L877.021 42.187L868.231 7.16015L833.204 -1.62937L824.546 -36.525L789.519 -45.3146L780.729 -80.3415L745.703 -89.131L736.913 -124.158L701.886 -132.947L693.097 -167.974L658.07 -176.764L649.28 -211.791L614.385 -220.449L605.595 -255.476L570.568 -264.265L561.779 -299.292L526.752 -308.082L517.962 -343.109L482.935 -351.898L474.146 -386.925L439.119 -395.715L430.329 -430.741L395.303 -439.531L386.513 -474.558" stroke="#E5E5E5" stroke-miterlimit="10"/>
<path d="M993.777 188.067L985.118 153.171L950.092 144.382L941.302 109.355L906.275 100.565L897.486 65.5383L862.459 56.7487L853.669 21.7219L818.642 12.9323L809.984 -21.9633L774.957 -30.7529L766.168 -65.7797L731.141 -74.5692L722.351 -109.596L687.324 -118.386L678.535 -153.413L643.508 -162.202L634.719 -197.229L599.823 -205.887L591.033 -240.914L556.006 -249.704L547.217 -284.731L512.19 -293.52L503.4 -328.547L468.374 -337.336L459.584 -372.363L424.557 -381.153L415.768 -416.18L380.741 -424.969L371.951 -459.996" stroke="#E5E5E5" stroke-miterlimit="10"/>
<path d="M979.215 202.629L970.557 167.733L935.53 158.943L926.74 123.917L891.713 115.127L882.924 80.1001L847.897 71.3106L839.107 36.2837L804.081 27.4942L795.422 -7.40147L760.395 -16.191L751.606 -51.2179L716.579 -60.0074L707.789 -95.0343L672.763 -103.824L663.973 -138.851L628.946 -147.64L620.157 -182.667L585.261 -191.325L576.471 -226.352L541.445 -235.142L532.655 -270.169L497.628 -278.958L488.839 -313.985L453.812 -322.775L445.022 -357.801L409.995 -366.591L401.206 -401.618L366.179 -410.407L357.39 -445.434" stroke="#E5E5E5" stroke-miterlimit="10"/>
<path d="M964.653 217.19L955.995 182.295L920.968 173.505L912.179 138.478L877.152 129.689L868.362 94.6618L833.335 85.8723L824.546 50.8454L789.519 42.0559L780.861 7.16024L745.834 -1.62929L737.044 -36.6562L702.017 -45.4457L693.228 -80.4725L658.201 -89.2621L649.411 -124.289L614.384 -133.078L605.595 -168.105L570.699 -176.764L561.91 -211.791L526.883 -220.58L518.093 -255.607L483.066 -264.396L474.277 -299.423L439.25 -308.213L430.461 -343.24L395.434 -352.029L386.644 -387.056L351.617 -395.846L342.828 -430.873" stroke="#E5E5E5" stroke-miterlimit="10"/>
<path d="M950.092 231.752L941.433 196.856L906.406 188.067L897.617 153.04L862.59 144.25L853.8 109.224L818.774 100.434L809.984 65.4072L774.957 56.6176L766.299 21.722L731.272 12.9324L722.482 -22.0944L687.456 -30.8839L678.666 -65.9108L643.639 -74.7003L634.85 -109.727L599.823 -118.517L591.033 -153.544L556.138 -162.202L547.348 -197.229L512.321 -206.018L503.532 -241.045L468.505 -249.835L459.715 -284.862L424.688 -293.651L415.899 -328.678L380.872 -337.468L372.082 -372.494L337.056 -381.284L328.266 -416.311" stroke="#E5E5E5" stroke-miterlimit="10"/>
<path d="M935.53 246.314L926.872 211.418L891.845 202.629L883.055 167.602L848.028 158.812L839.239 123.785L804.212 114.996L795.422 79.9688L760.395 71.1793L751.737 36.2836L716.71 27.4941L707.921 -7.53276L672.894 -16.3223L664.104 -51.3491L629.077 -60.1386L620.288 -95.1655L585.261 -103.955L576.472 -138.982L541.576 -147.64L532.786 -182.667L497.759 -191.457L488.97 -226.484L453.943 -235.273L445.154 -270.3L410.127 -279.089L401.337 -314.116L366.31 -322.906L357.521 -357.933L322.494 -366.722L313.704 -401.749" stroke="#E5E5E5" stroke-miterlimit="10"/>
<path d="M920.968 260.875L912.31 225.98L877.283 217.19L868.493 182.163L833.467 173.374L824.677 138.347L789.65 129.557L780.861 94.5306L745.834 85.7411L737.175 50.8454L702.149 42.0558L693.359 7.02897L658.332 -1.76054L649.543 -36.7874L614.516 -45.5769L605.726 -80.6038L570.699 -89.3933L561.91 -124.42L527.014 -133.079L518.225 -168.105L483.198 -176.895L474.408 -211.922L439.381 -220.711L430.592 -255.738L395.565 -264.528L386.775 -299.555L351.749 -308.344L342.959 -343.371L307.932 -352.161L299.143 -387.187" stroke="#E5E5E5" stroke-miterlimit="10"/>
<path d="M906.406 275.437L897.748 240.542L862.721 231.752L853.932 196.725L818.905 187.936L810.115 152.909L775.088 144.119L766.299 109.092L731.272 100.303L722.614 65.4072L687.587 56.6177L678.797 21.5908L643.77 12.8013L634.981 -22.2256L599.954 -31.0151L591.164 -66.042L556.138 -74.8315L547.348 -109.858L512.452 -118.517L503.663 -153.544L468.636 -162.333L459.846 -197.36L424.82 -206.15L416.03 -241.176L381.003 -249.966L372.214 -284.993L337.187 -293.782L328.397 -328.809L293.37 -337.599L284.581 -372.626" stroke="#E5E5E5" stroke-miterlimit="10"/>
<path d="M891.845 289.999L883.186 255.103L848.159 246.314L839.37 211.287L804.343 202.497L795.554 167.47L760.527 158.681L751.737 123.654L716.71 114.865L708.052 79.9689L673.025 71.1793L664.235 36.1525L629.209 27.363L620.419 -7.66392L585.392 -16.4534L576.603 -51.4803L541.576 -60.2698L532.786 -95.2967L497.891 -103.955L489.101 -138.982L454.074 -147.771L445.285 -182.798L410.258 -191.588L401.468 -226.615L366.441 -235.404L357.652 -270.431L322.625 -279.221L313.835 -314.248L278.809 -323.037L270.019 -358.064" stroke="#E5E5E5" stroke-miterlimit="10"/>
<path d="M877.283 304.561L868.625 269.665L833.598 260.875L824.808 225.849L789.781 217.059L780.992 182.032L745.965 173.243L737.175 138.216L702.148 129.426L693.49 94.5306L658.463 85.7411L649.674 50.7142L614.647 41.9247L605.857 6.8978L570.83 -1.89171L562.041 -36.9186L527.014 -45.7081L518.225 -80.735L483.329 -89.3934L474.539 -124.42L439.512 -133.21L430.723 -168.237L395.696 -177.026L386.907 -212.053L351.88 -220.843L343.09 -255.869L308.063 -264.659L299.274 -299.686L264.247 -308.475L255.457 -343.502" stroke="#E5E5E5" stroke-miterlimit="10"/>
<path d="M862.721 319.122L854.063 284.227L819.036 275.437L810.246 240.41L775.22 231.621L766.43 196.594L731.403 187.804L722.614 152.778L687.587 143.988L678.928 109.092L643.902 100.303L635.112 65.2759L600.085 56.4864L591.296 21.4595L556.269 12.67L547.479 -22.3569L512.452 -31.1464L503.663 -66.1733L468.767 -74.8316L459.978 -109.858L424.951 -118.648L416.161 -153.675L381.134 -162.464L372.345 -197.491L337.318 -206.281L328.528 -241.308L293.501 -250.097L284.712 -285.124L249.685 -293.914L240.896 -328.94" stroke="#E5E5E5" stroke-miterlimit="10"/>
<path d="M848.159 333.684L839.501 298.789L804.474 289.999L795.685 254.972L760.658 246.183L751.868 211.156L716.841 202.366L708.052 167.339L673.025 158.55L664.367 123.654L629.34 114.865L620.55 79.8378L585.523 71.0483L576.734 36.0214L541.707 27.2319L532.917 -7.795L497.891 -16.5845L489.101 -51.6114L454.205 -60.2697L445.416 -95.2966L410.389 -104.086L401.599 -139.113L366.573 -147.903L357.783 -182.929L322.756 -191.719L313.967 -226.746L278.94 -235.535L270.15 -270.562L235.123 -279.352L226.334 -314.379" stroke="#E5E5E5" stroke-miterlimit="10"/>
<path d="M833.598 348.246L824.939 313.35L789.912 304.561L781.123 269.534L746.096 260.744L737.306 225.718L702.28 216.928L693.49 181.901L658.463 173.112L649.805 138.216L614.778 129.426L605.988 94.3995L570.962 85.61L562.172 50.5831L527.145 41.7936L518.356 6.76674L483.329 -2.02277L474.539 -37.0497L439.644 -45.708L430.854 -80.7349L395.827 -89.5244L387.038 -124.551L352.011 -133.341L343.221 -168.368L308.194 -177.157L299.405 -212.184L264.378 -220.974L255.589 -256L220.562 -264.79L211.772 -299.817" stroke="#E5E5E5" stroke-miterlimit="10"/>
<path d="M819.036 362.808L810.378 327.912L775.351 319.122L766.561 284.096L731.534 275.306L722.745 240.279L687.718 231.49L678.928 196.463L643.901 187.673L635.243 152.778L600.216 143.988L591.427 108.961L556.4 100.172L547.61 65.1448L512.584 56.3553L503.794 21.3284L468.767 12.5389L459.978 -22.488L425.082 -31.1463L416.292 -66.1731L381.265 -74.9627L372.476 -109.99L337.449 -118.779L328.66 -153.806L293.633 -162.595L284.843 -197.622L249.816 -206.412L241.027 -241.439L206 -250.228L197.21 -285.255" stroke="#E5E5E5" stroke-miterlimit="10"/>
<path d="M804.474 377.369L795.816 342.474L760.789 333.684L751.999 298.657L716.973 289.868L708.183 254.841L673.156 246.051L664.367 211.025L629.34 202.235L620.681 167.339L585.655 158.55L576.865 123.523L541.838 114.733L533.049 79.7065L498.022 70.917L489.232 35.8901L454.205 27.1006L445.416 -7.92628L410.52 -16.5846L401.731 -51.6115L366.704 -60.401L357.914 -95.4279L322.887 -104.217L314.098 -139.244L279.071 -148.034L270.281 -183.061L235.255 -191.85L226.465 -226.877L191.438 -235.667L182.649 -270.693" stroke="#E5E5E5" stroke-miterlimit="10"/>
<path d="M789.912 391.931L781.254 357.036L746.227 348.246L737.438 313.219L702.411 304.43L693.621 269.403L658.594 260.613L649.805 225.586L614.778 216.797L606.12 181.901L571.093 173.112L562.303 138.085L527.276 129.295L518.487 94.2683L483.46 85.4788L474.67 50.4519L439.644 41.6624L430.854 6.63553L395.958 -2.02281L387.169 -37.0497L352.142 -45.8392L343.352 -80.8661L308.325 -89.6556L299.536 -124.682L264.509 -133.472L255.72 -168.499L220.693 -177.288L211.903 -212.315L176.876 -221.105L168.087 -256.132" stroke="#E5E5E5" stroke-miterlimit="10"/>
<path d="M775.351 406.493L766.692 371.597L731.665 362.808L722.876 327.781L687.849 318.991L679.06 283.964L644.033 275.175L635.243 240.148L600.216 231.359L591.558 196.463L556.531 187.673L547.741 152.646L512.715 143.857L503.925 108.83L468.898 100.041L460.109 65.0137L425.082 56.2241L416.292 21.1973L381.397 12.5389L372.607 -22.4879L337.58 -31.2775L328.791 -66.3044L293.764 -75.0939L284.974 -110.121L249.947 -118.91L241.158 -153.937L206.131 -162.727L197.341 -197.754L162.315 -206.543L153.525 -241.57" stroke="#E5E5E5" stroke-miterlimit="10"/>
<path d="M760.789 421.055L752.131 386.159L717.104 377.369L708.314 342.343L673.287 333.553L664.498 298.526L629.471 289.737L620.681 254.71L585.654 245.92L576.996 211.025L541.969 202.235L533.18 167.208L498.153 158.419L489.363 123.392L454.336 114.602L445.547 79.5754L410.52 70.7859L401.731 35.759L366.835 27.1006L358.045 -7.92624L323.018 -16.7158L314.229 -51.7427L279.202 -60.5322L270.413 -95.5591L235.386 -104.349L226.596 -139.375L191.569 -148.165L182.78 -183.192L147.753 -191.981L138.963 -227.008" stroke="#E5E5E5" stroke-miterlimit="10"/>
<path d="M746.227 435.616L737.569 400.721L702.542 391.931L693.752 356.904L658.726 348.115L649.936 313.088L614.909 304.298L606.12 269.271L571.093 260.482L562.434 225.586L527.408 216.797L518.618 181.77L483.591 172.98L474.802 137.953L439.775 129.164L430.985 94.1371L395.958 85.3476L387.169 50.3207L352.273 41.6623L343.484 6.63547L308.457 -2.15406L299.667 -37.181L264.64 -45.9705L255.851 -80.9973L220.824 -89.7868L212.034 -124.814L177.008 -133.603L168.218 -168.63L133.191 -177.42L124.402 -212.447" stroke="#E5E5E5" stroke-miterlimit="10"/>
<path d="M731.665 450.178L723.007 415.283L687.98 406.493L679.191 371.466L644.164 362.677L635.374 327.65L600.347 318.86L591.558 283.833L556.531 275.044L547.873 240.148L512.846 231.359L504.056 196.332L469.029 187.542L460.24 152.515L425.213 143.726L416.423 108.699L381.396 99.9094L372.607 64.8825L337.711 56.2242L328.922 21.1973L293.895 12.4078L285.105 -22.6191L250.078 -31.4086L241.289 -66.4355L206.262 -75.225L197.473 -110.252L162.446 -119.041L153.656 -154.068L118.629 -162.858L109.84 -197.885" stroke="#E5E5E5" stroke-miterlimit="10"/>
<path d="M717.104 464.74L708.445 429.844L673.418 421.055L664.629 386.028L629.602 377.238L620.813 342.211L585.786 333.422L576.996 298.395L541.969 289.605L533.311 254.71L498.284 245.92L489.495 210.893L454.468 202.104L445.678 167.077L410.651 158.287L401.862 123.261L366.835 114.471L358.045 79.4442L323.15 70.7858L314.36 35.759L279.333 26.9694L270.544 -8.05745L235.517 -16.8469L226.727 -51.8738L191.7 -60.6633L182.911 -95.6902L147.884 -104.48L139.095 -139.507L104.068 -148.296L95.2781 -183.323" stroke="#E5E5E5" stroke-miterlimit="10"/>
<path d="M702.542 479.302L693.884 444.406L658.857 435.616L650.067 400.59L615.04 391.8L606.251 356.773L571.224 347.984L562.434 312.957L527.408 304.167L518.749 269.272L483.722 260.482L474.933 225.455L439.906 216.666L431.116 181.639L396.09 172.849L387.3 137.822L352.273 129.033L343.484 94.0059L308.588 85.3476L299.798 50.3207L264.772 41.5312L255.982 6.50428L220.955 -2.28521L212.166 -37.3121L177.139 -46.1016L168.349 -81.1285L133.322 -89.918L124.533 -124.945L89.5059 -133.734L80.7164 -168.761" stroke="#E5E5E5" stroke-miterlimit="10"/>
<path d="M687.98 493.863L679.322 458.968L644.295 450.178L635.506 415.151L600.479 406.362L591.689 371.335L556.662 362.545L547.873 327.518L512.846 318.729L504.188 283.833L469.161 275.044L460.371 240.017L425.344 231.227L416.555 196.2L381.528 187.411L372.738 152.384L337.711 143.595L328.922 108.568L294.026 99.9093L285.237 64.8824L250.21 56.0929L241.42 21.066L206.393 12.2765L197.604 -22.7504L162.577 -31.5399L153.787 -66.5668L118.761 -75.3563L109.971 -110.383L74.9442 -119.173L66.1547 -154.2" stroke="#E5E5E5" stroke-miterlimit="10"/>
<path d="M673.418 508.425L664.76 473.53L629.733 464.74L620.944 429.713L585.917 420.924L577.127 385.897L542.1 377.107L533.311 342.08L498.284 333.291L489.626 298.395L454.599 289.606L445.809 254.579L410.782 245.789L401.993 210.762L366.966 201.973L358.176 166.946L323.15 158.156L314.36 123.13L279.464 114.471L270.675 79.4443L235.648 70.6548L226.858 35.6279L191.832 26.8384L183.042 -8.18848L148.015 -16.978L139.226 -52.0049L104.199 -60.7944L95.4092 -95.8213L60.3823 -104.611L51.5928 -139.638" stroke="#E5E5E5" stroke-miterlimit="10"/>
<path d="M658.857 522.987L650.198 488.091L615.171 479.302L606.382 444.275L571.355 435.485L562.566 400.458L527.539 391.669L518.749 356.642L483.722 347.852L475.064 312.957L440.037 304.167L431.248 269.14L396.221 260.351L387.431 225.324L352.404 216.534L343.615 181.508L308.588 172.718L299.798 137.691L264.903 129.033L256.113 94.006L221.086 85.2165L212.297 50.1896L177.27 41.4001L168.48 6.37317L133.453 -2.41633L124.664 -37.4432L89.637 -46.2328L80.8475 -81.2596L45.8206 -90.0491L37.0311 -125.076" stroke="#E5E5E5" stroke-miterlimit="10"/>
<path d="M644.295 537.549L635.637 502.653L600.61 493.863L591.82 458.837L556.793 450.047L548.004 415.02L512.977 406.231L504.187 371.204L469.161 362.414L460.502 327.519L425.475 318.729L416.686 283.702L381.659 274.913L372.869 239.886L337.843 231.096L329.053 196.069L294.026 187.28L285.237 152.253L250.341 143.595L241.551 108.568L206.525 99.7782L197.735 64.7513L162.708 55.9618L153.919 20.9349L118.892 12.1454L110.102 -22.8815L75.0753 -31.671L66.2858 -66.6978L31.2589 -75.4874L22.4694 -110.514" stroke="#E5E5E5" stroke-miterlimit="10"/>
<path d="M629.733 552.11L621.075 517.215L586.048 508.425L577.259 473.398L542.232 464.609L533.442 429.582L498.415 420.792L489.626 385.765L454.599 376.976L445.941 342.08L410.914 333.291L402.124 298.264L367.097 289.474L358.308 254.447L323.281 245.658L314.491 210.631L279.464 201.842L270.675 166.815L235.779 158.156L226.99 123.129L191.963 114.34L183.173 79.313L148.146 70.5235L139.357 35.4966L104.33 26.7071L95.5405 -8.31978L60.5136 -17.1093L51.7241 -52.1362L16.6972 -60.9257L7.9077 -95.9526" stroke="#E5E5E5" stroke-miterlimit="10"/>
<path d="M615.172 566.672L606.513 531.776L571.486 522.987L562.697 487.96L527.67 479.17L518.88 444.144L483.854 435.354L475.064 400.327L440.037 391.538L431.379 356.642L396.352 347.852L387.562 312.826L352.536 304.036L343.746 269.009L308.719 260.22L299.93 225.193L264.903 216.403L256.113 181.376L221.217 172.718L212.428 137.691L177.401 128.902L168.612 93.8747L133.585 85.0852L124.795 50.0583L89.7683 41.2688L80.9788 6.2419L45.9519 -2.54764L37.1624 -37.5745L2.13548 -46.364L-6.65402 -81.3909" stroke="#E5E5E5" stroke-miterlimit="10"/>
<path d="M600.61 581.234L591.951 546.338L556.925 537.549L548.135 502.522L513.108 493.732L504.319 458.705L469.292 449.916L460.502 414.889L425.475 406.099L416.817 371.204L381.79 362.414L373.001 327.387L337.974 318.598L329.184 283.571L294.157 274.781L285.368 239.755L250.341 230.965L241.551 195.938L206.656 187.28L197.866 152.253L162.839 143.463L154.05 108.437L119.023 99.647L110.233 64.6201L75.2065 55.8306L66.417 20.8037L31.3901 12.0142L22.6006 -23.0127L-12.4263 -31.8022L-21.2158 -66.8291" stroke="#E5E5E5" stroke-miterlimit="10"/>
<path d="M586.048 595.796L577.39 560.9L542.363 552.11L533.573 517.083L498.546 508.294L489.757 473.267L454.73 464.477L445.941 429.451L410.914 420.661L402.255 385.765L367.228 376.976L358.439 341.949L323.412 333.159L314.623 298.133L279.596 289.343L270.806 254.316L235.779 245.527L226.99 210.5L192.094 201.841L183.305 166.815L148.278 158.025L139.488 122.998L104.461 114.209L95.6717 79.1818L60.6448 70.3923L51.8553 35.3654L16.8284 26.5759L8.03889 -8.45099L-26.988 -17.2405L-35.7775 -52.2674" stroke="#E5E5E5" stroke-miterlimit="10"/>
<path d="M571.486 610.357L562.828 575.462L527.801 566.672L519.012 531.645L483.985 522.856L475.195 487.829L440.168 479.039L431.379 444.012L396.352 435.223L387.694 400.327L352.667 391.538L343.877 356.511L308.85 347.721L300.061 312.694L265.034 303.905L256.244 268.878L221.217 260.088L212.428 225.062L177.532 216.403L168.743 181.376L133.716 172.587L124.926 137.56L89.8994 128.77L81.1099 93.7436L46.083 84.9541L37.2935 49.9272L2.2666 41.1376L-6.5229 6.11078L-41.5498 -2.67875L-50.3393 -37.7056" stroke="#E5E5E5" stroke-miterlimit="10"/>
<path d="M556.925 624.919L548.266 590.023L513.239 581.234L504.45 546.207L469.423 537.417L460.633 502.391L425.607 493.601L416.817 458.574L381.79 449.785L373.132 414.889L338.105 406.099L329.315 371.073L294.289 362.283L285.499 327.256L250.472 318.467L241.683 283.44L206.656 274.65L197.866 239.623L162.971 230.965L154.181 195.938L119.154 187.149L110.365 152.122L75.3378 143.332L66.5482 108.305L31.5214 99.5158L22.7318 64.4889L-12.2951 55.6994L-21.0846 20.6725L-56.1115 11.883L-64.901 -23.1438" stroke="#E5E5E5" stroke-miterlimit="10"/>
<path d="M542.363 639.481L533.705 604.585L498.678 595.796L489.888 560.769L454.861 551.979L446.072 516.952L411.045 508.163L402.255 473.136L367.228 464.346L358.57 429.451L323.543 420.661L314.754 385.634L279.727 376.845L270.937 341.818L235.91 333.028L227.121 298.001L192.094 289.212L183.305 254.185L148.409 245.527L139.619 210.5L104.592 201.71L95.8029 166.683L60.776 157.894L51.9865 122.867L16.9596 114.078L8.1701 79.0506L-26.8568 70.2611L-35.6463 35.2343L-70.6732 26.4447L-79.4627 -8.58214" stroke="#E5E5E5" stroke-miterlimit="10"/>
<path d="M527.801 654.043L519.143 619.147L484.116 610.357L475.326 575.33L440.299 566.541L431.51 531.514L396.483 522.725L387.694 487.698L352.667 478.908L344.008 444.012L308.981 435.223L300.192 400.196L265.165 391.407L256.376 356.38L221.349 347.59L212.559 312.563L177.532 303.774L168.743 268.747L133.847 260.088L125.058 225.062L90.0306 216.272L81.2411 181.245L46.2142 172.456L37.4247 137.429L2.39785 128.639L-6.39169 93.6124L-41.4186 84.8229L-50.2081 49.796L-85.235 41.0065L-94.0245 5.97963" stroke="#E5E5E5" stroke-miterlimit="10"/>
<path d="M513.239 668.604L504.581 633.709L469.554 624.919L460.765 589.892L425.738 581.103L416.948 546.076L381.921 537.286L373.132 502.259L338.105 493.47L329.447 458.574L294.42 449.785L285.63 414.758L250.603 405.968L241.814 370.941L206.787 362.152L197.997 327.125L162.971 318.335L154.181 283.309L119.285 274.65L110.496 239.623L75.4689 230.834L66.6794 195.807L31.6525 187.017L22.863 151.991L-12.1639 143.201L-20.9534 108.174L-55.9803 99.3846L-64.7698 64.3577L-99.7967 55.5682L-108.586 20.5413" stroke="#E5E5E5" stroke-miterlimit="10"/>
<path d="M498.678 683.166L490.019 648.27L454.992 639.481L446.203 604.454L411.176 595.664L402.387 560.637L367.36 551.848L358.57 516.821L323.543 508.032L314.885 473.136L279.858 464.346L271.068 429.319L236.042 420.53L227.252 385.503L192.225 376.714L183.436 341.687L148.409 332.897L139.619 297.87L104.724 289.212L95.9341 254.185L60.9072 245.396L52.1176 210.369L17.0908 201.579L8.30124 166.552L-26.7256 157.763L-35.5152 122.736L-70.542 113.946L-79.3315 78.9195L-114.358 70.1299L-123.148 35.1031" stroke="#E5E5E5" stroke-miterlimit="10"/>
<path d="M484.116 697.728L475.458 662.832L440.431 654.043L431.641 619.016L396.614 610.226L387.825 575.199L352.798 566.41L344.008 531.383L308.981 522.593L300.323 487.698L265.296 478.908L256.507 443.881L221.48 435.092L212.69 400.065L177.663 391.275L168.874 356.248L133.847 347.459L125.058 312.432L90.1618 303.774L81.3723 268.747L46.3454 259.957L37.5559 224.93L2.52902 216.141L-6.26052 181.114L-41.2874 172.325L-50.0769 137.298L-85.1038 128.508L-93.8933 93.4812L-128.92 84.6917L-137.71 49.6648" stroke="#E5E5E5" stroke-miterlimit="10"/>
<path d="M469.554 712.289L460.896 677.394L425.869 668.604L417.079 633.577L382.053 624.788L373.263 589.761L338.236 580.971L329.447 545.945L294.42 537.155L285.761 502.259L250.735 493.47L241.945 458.443L206.918 449.653L198.129 414.627L163.102 405.837L154.312 370.81L119.285 362.021L110.496 326.994L75.6002 318.335L66.8107 283.309L31.7838 274.519L22.9942 239.492L-12.0326 230.703L-20.8222 195.676L-55.849 186.886L-64.6386 151.859L-99.6655 143.07L-108.455 108.043L-143.482 99.2534L-152.271 64.2265" stroke="#E5E5E5" stroke-miterlimit="10"/>
<path d="M454.992 726.851L446.334 691.956L411.307 683.166L402.518 648.139L367.491 639.35L358.701 604.323L323.674 595.533L314.885 560.506L279.858 551.717L271.2 516.821L236.173 508.032L227.383 473.005L192.356 464.215L183.567 429.188L148.54 420.399L139.751 385.372L104.724 376.582L95.9341 341.555L61.0384 332.897L52.2489 297.87L17.222 289.081L8.43246 254.054L-26.5944 245.264L-35.3839 210.237L-70.4108 201.448L-79.2003 166.421L-114.227 157.632L-123.017 122.605L-158.044 113.815L-166.833 78.7883" stroke="#E5E5E5" stroke-miterlimit="10"/>
<path d="M440.431 741.413L431.772 706.517L396.746 697.728L387.956 662.701L352.929 653.911L344.14 618.884L309.113 610.095L300.323 575.068L265.296 566.279L256.638 531.383L221.611 522.593L212.822 487.566L177.795 478.777L169.005 443.75L133.978 434.961L125.189 399.934L90.1619 391.144L81.3724 356.117L46.4767 347.459L37.6872 312.432L2.66028 303.642L-6.12926 268.616L-41.1561 259.826L-49.9457 224.799L-84.9725 216.01L-93.762 180.983L-128.789 172.193L-137.578 137.166L-172.605 128.377L-181.395 93.35" stroke="#E5E5E5" stroke-miterlimit="10"/>
<path d="M425.869 755.975L417.211 721.079L382.184 712.289L373.394 677.263L338.367 668.473L329.578 633.446L294.551 624.657L285.761 589.63L250.735 580.84L242.076 545.945L207.049 537.155L198.26 502.128L163.233 493.339L154.443 458.312L119.417 449.522L110.627 414.495L75.6002 405.706L66.8106 370.679L31.9149 362.021L23.1254 326.994L-11.9015 318.204L-20.691 283.177L-55.7178 274.388L-64.5074 239.361L-99.5342 230.572L-108.324 195.545L-143.351 186.755L-152.14 151.728L-187.167 142.939L-195.957 107.912" stroke="#E5E5E5" stroke-miterlimit="10"/>
<path d="M411.307 770.536L402.649 735.641L367.622 726.851L358.833 691.824L323.806 683.035L315.016 648.008L279.989 639.218L271.2 604.192L236.173 595.402L227.515 560.506L192.488 551.717L183.698 516.69L148.671 507.9L139.882 472.874L104.855 464.084L96.0653 429.057L61.0384 420.268L52.2489 385.241L17.3532 376.582L8.56372 341.556L-26.4632 332.766L-35.2527 297.739L-70.2796 288.95L-79.0691 253.923L-114.096 245.133L-122.885 210.106L-157.912 201.317L-166.702 166.29L-201.729 157.5L-210.518 122.474" stroke="#E5E5E5" stroke-miterlimit="10"/>
<path d="M396.746 785.098L388.087 750.202L353.06 741.413L344.271 706.386L309.244 697.597L300.454 662.57L265.428 653.78L256.638 618.753L221.611 609.964L212.953 575.068L177.926 566.279L169.136 531.252L134.11 522.462L125.32 487.435L90.2931 478.646L81.5036 443.619L46.4767 434.829L37.6872 399.802L2.79151 391.144L-5.99798 356.117L-41.0249 347.328L-49.8144 312.301L-84.8413 303.511L-93.6308 268.484L-128.658 259.695L-137.447 224.668L-172.474 215.879L-181.264 180.852L-216.29 172.062L-225.08 137.035" stroke="#E5E5E5" stroke-miterlimit="10"/>
<path d="M382.184 799.66L373.525 764.764L338.499 755.975L329.709 720.948L294.682 712.158L285.893 677.131L250.866 668.342L242.076 633.315L207.049 624.526L198.391 589.63L163.364 580.84L154.575 545.813L119.548 537.024L110.758 501.997L75.7314 493.208L66.9418 458.181L31.915 449.391L23.1254 414.364L-11.7703 405.706L-20.5598 370.679L-55.5867 361.89L-64.3762 326.863L-99.403 318.073L-108.193 283.046L-143.219 274.257L-152.009 239.23L-187.036 230.44L-195.825 195.413L-230.852 186.624L-239.642 151.597" stroke="#E5E5E5" stroke-miterlimit="10"/>
<path d="M367.622 814.222L358.964 779.326L323.937 770.536L315.147 735.509L280.12 726.72L271.331 691.693L236.304 682.904L227.515 647.877L192.488 639.087L183.829 604.191L148.802 595.402L140.013 560.375L104.986 551.586L96.1965 516.559L61.1696 507.769L52.3801 472.742L17.3532 463.953L8.5637 428.926L-26.332 420.268L-35.1215 385.241L-70.1484 376.451L-78.9379 341.424L-113.965 332.635L-122.754 297.608L-157.781 288.818L-166.571 253.792L-201.598 245.002L-210.387 209.975L-245.414 201.186L-254.203 166.159" stroke="#E5E5E5" stroke-miterlimit="10"/>
<path d="M353.06 828.783L344.402 793.888L309.375 785.098L300.586 750.071L265.559 741.282L256.769 706.255L221.742 697.465L212.953 662.439L177.926 653.649L169.268 618.753L134.241 609.964L125.451 574.937L90.4242 566.147L81.6347 531.121L46.6079 522.331L37.8183 487.304L2.79145 478.515L-5.99808 443.488L-40.8938 434.829L-49.6833 399.803L-84.7102 391.013L-93.4997 355.986L-128.527 347.197L-137.316 312.17L-172.343 303.38L-181.132 268.353L-216.159 259.564L-224.949 224.537L-259.976 215.747L-268.765 180.721" stroke="#E5E5E5" stroke-miterlimit="10"/>
<path d="M338.499 843.345L329.84 808.449L294.813 799.66L286.024 764.633L250.997 755.843L242.207 720.817L207.181 712.027L198.391 677L163.364 668.211L154.706 633.315L119.679 624.525L110.889 589.499L75.8626 580.709L67.0731 545.682L32.0462 536.893L23.2567 501.866L-11.7702 493.076L-20.5598 458.049L-55.4555 449.391L-64.2449 414.364L-99.2718 405.575L-108.061 370.548L-143.088 361.758L-151.878 326.731L-186.905 317.942L-195.694 282.915L-230.721 274.125L-239.511 239.099L-274.537 230.309L-283.327 195.282" stroke="#E5E5E5" stroke-miterlimit="10"/>
<path d="M323.937 857.907L315.279 823.011L280.252 814.222L271.462 779.195L236.435 770.405L227.646 735.378L192.619 726.589L183.829 691.562L148.802 682.772L140.144 647.877L105.117 639.087L96.3277 604.06L61.3009 595.271L52.5114 560.244L17.4845 551.454L8.69495 516.428L-26.3319 507.638L-35.1215 472.611L-70.0172 463.953L-78.8067 428.926L-113.834 420.136L-122.623 385.11L-157.65 376.32L-166.439 341.293L-201.466 332.504L-210.256 297.477L-245.283 288.687L-254.072 253.66L-289.099 244.871L-297.889 209.844" stroke="#E5E5E5" stroke-miterlimit="10"/>
<path d="M309.375 872.469L300.717 837.573L265.69 828.783L256.9 793.756L221.873 784.967L213.084 749.94L178.057 741.151L169.268 706.124L134.241 697.334L125.582 662.438L90.5555 653.649L81.766 618.622L46.7391 609.833L37.9496 574.806L2.92271 566.016L-5.86682 530.989L-40.8937 522.2L-49.6832 487.173L-84.5789 478.515L-93.3684 443.488L-128.395 434.698L-137.185 399.671L-172.212 390.882L-181.001 355.855L-216.028 347.065L-224.818 312.038L-259.845 303.249L-268.634 268.222L-303.661 259.433L-312.45 224.406" stroke="#E5E5E5" stroke-miterlimit="10"/>
<path d="M294.813 887.03L286.155 852.135L251.128 843.345L242.339 808.318L207.312 799.529L198.522 764.502L163.495 755.712L154.706 720.685L119.679 711.896L111.021 677L75.9937 668.211L67.2042 633.184L32.1773 624.394L23.3878 589.367L-11.6391 580.578L-20.4286 545.551L-55.4555 536.762L-64.245 501.735L-99.1407 493.076L-107.93 458.049L-142.957 449.26L-151.747 414.233L-186.773 405.444L-195.563 370.417L-230.59 361.627L-239.379 326.6L-274.406 317.811L-283.196 282.784L-318.223 273.994L-327.012 238.968" stroke="#E5E5E5" stroke-miterlimit="10"/>
<path d="M280.252 901.592L271.593 866.696L236.566 857.907L227.777 822.88L192.75 814.091L183.96 779.064L148.934 770.274L140.144 735.247L105.117 726.458L96.4588 691.562L61.4319 682.773L52.6424 647.746L17.6156 638.956L8.82605 603.929L-26.2008 595.14L-34.9904 560.113L-70.0172 551.323L-78.8068 516.296L-113.702 507.638L-122.492 472.611L-157.519 463.822L-166.308 428.795L-201.335 420.005L-210.125 384.978L-245.152 376.189L-253.941 341.162L-288.968 332.373L-297.758 297.346L-332.784 288.556L-341.574 253.529" stroke="#E5E5E5" stroke-miterlimit="10"/>
</g>
</svg>
