<svg width="375" height="833" viewBox="0 0 375 833" fill="none" xmlns="http://www.w3.org/2000/svg">
<mask id="mask0" mask-type="alpha" maskUnits="userSpaceOnUse" x="0" y="0" width="375" height="833">
<rect width="375" height="833" fill="#FF7800"/>
</mask>
<g mask="url(#mask0)">
<path d="M1004.02 618.484L995.365 565.249L960.338 551.84L951.549 498.405L916.522 484.996L907.732 431.561L872.705 418.152L863.916 364.717L828.889 351.308L820.231 298.073L785.204 284.665L776.414 231.229L741.387 217.821L732.598 164.385L697.571 150.977L688.782 97.5415L653.755 84.1326L644.965 30.6975L610.069 17.4887L601.28 -35.9464L566.253 -49.3552L557.463 -102.79L522.437 -116.199L513.647 -169.634L478.62 -183.043L469.831 -236.478L434.804 -249.887L426.014 -303.322L390.987 -316.731L382.198 -370.166" stroke="#E5E5E5" stroke-miterlimit="10"/>
<path d="M989.462 640.699L980.804 587.464L945.777 574.055L936.987 520.62L901.96 507.211L893.171 453.776L858.144 440.367L849.354 386.932L814.328 373.523L805.669 320.288L770.642 306.879L761.853 253.444L726.826 240.035L718.036 186.6L683.01 173.191L674.22 119.756L639.193 106.347L630.404 52.9119L595.508 39.7032L586.718 -13.7319L551.691 -27.1408L542.902 -80.576L507.875 -93.9848L499.086 -147.42L464.059 -160.829L455.269 -214.264L420.242 -227.673L411.453 -281.108L376.426 -294.517L367.636 -347.952" stroke="#E5E5E5" stroke-miterlimit="10"/>
<path d="M974.9 662.913L966.242 609.678L931.215 596.27L922.426 542.834L887.399 529.426L878.609 475.99L843.582 462.582L834.793 409.146L799.766 395.738L791.108 342.503L756.081 329.094L747.291 275.659L712.264 262.25L703.475 208.815L668.448 195.406L659.658 141.971L624.632 128.562L615.842 75.1266L580.946 61.9179L572.157 8.48282L537.13 -4.92602L528.34 -58.3612L493.314 -71.77L484.524 -125.205L449.497 -138.614L440.708 -192.049L405.681 -205.458L396.891 -258.893L361.864 -272.302L353.075 -325.737" stroke="#E5E5E5" stroke-miterlimit="10"/>
<path d="M960.338 685.128L951.68 631.893L916.653 618.484L907.864 565.049L872.837 551.64L864.047 498.205L829.02 484.796L820.231 431.361L785.204 417.952L776.546 364.717L741.519 351.308L732.729 297.873L697.702 284.464L688.913 231.029L653.886 217.62L645.096 164.185L610.07 150.776L601.28 97.3412L566.384 84.1325L557.595 30.6973L522.568 17.2885L513.778 -36.1467L478.752 -49.5555L469.962 -102.991L434.935 -116.399L426.146 -169.835L391.119 -183.244L382.329 -236.679L347.302 -250.087L338.513 -303.523" stroke="#E5E5E5" stroke-miterlimit="10"/>
<path d="M945.777 707.343L937.119 654.108L902.092 640.699L893.302 587.264L858.275 573.855L849.486 520.42L814.459 507.011L805.669 453.576L770.642 440.167L761.984 386.932L726.957 373.523L718.168 320.088L683.141 306.679L674.351 253.244L639.324 239.835L630.535 186.4L595.508 172.991L586.719 119.556L551.823 106.347L543.033 52.912L508.006 39.5031L499.217 -13.932L464.19 -27.3408L455.401 -80.776L420.374 -94.1848L411.584 -147.62L376.557 -161.029L367.768 -214.464L332.741 -227.873L323.951 -281.308" stroke="#E5E5E5" stroke-miterlimit="10"/>
<path d="M931.215 729.558L922.557 676.323L887.53 662.914L878.74 609.479L843.713 596.07L834.924 542.635L799.897 529.226L791.107 475.791L756.08 462.382L747.422 409.147L712.395 395.738L703.606 342.303L668.579 328.894L659.789 275.459L624.762 262.05L615.973 208.615L580.946 195.206L572.157 141.771L537.261 128.562L528.471 75.127L493.444 61.7182L484.655 8.28302L449.628 -5.12576L440.839 -58.5609L405.812 -71.9697L397.022 -125.405L361.995 -138.814L353.206 -192.249L318.179 -205.658L309.389 -259.093" stroke="#E5E5E5" stroke-miterlimit="10"/>
<path d="M916.653 751.772L907.995 698.537L872.968 685.128L864.178 631.693L829.151 618.284L820.362 564.849L785.335 551.44L776.545 498.005L741.518 484.596L732.86 431.361L697.833 417.953L689.044 364.517L654.017 351.109L645.227 297.673L610.2 284.265L601.411 230.829L566.384 217.421L557.595 163.985L522.699 150.777L513.909 97.3416L478.882 83.9328L470.093 30.4976L435.066 17.0888L426.276 -36.3464L391.25 -49.7552L382.46 -103.19L347.433 -116.599L338.644 -170.034L303.617 -183.443L294.827 -236.878" stroke="#E5E5E5" stroke-miterlimit="10"/>
<path d="M902.092 773.987L893.433 720.751L858.407 707.343L849.617 653.908L814.59 640.499L805.801 587.064L770.774 573.655L761.984 520.22L726.957 506.811L718.299 453.576L683.272 440.167L674.483 386.732L639.456 373.323L630.666 319.888L595.639 306.479L586.85 253.044L551.823 239.635L543.033 186.2L508.138 172.991L499.348 119.556L464.321 106.147L455.532 52.712L420.505 39.3032L411.715 -14.132L376.689 -27.5408L367.899 -80.9759L332.872 -94.3848L324.083 -147.82L289.056 -161.229L280.266 -214.664" stroke="#E5E5E5" stroke-miterlimit="10"/>
<path d="M887.53 796.201L878.871 742.966L843.845 729.557L835.055 676.122L800.028 662.713L791.239 609.278L756.212 595.869L747.422 542.434L712.395 529.025L703.737 475.79L668.71 462.382L659.921 408.946L624.894 395.538L616.104 342.102L581.077 328.694L572.288 275.258L537.261 261.85L528.471 208.414L493.576 195.206L484.786 141.771L449.759 128.362L440.97 74.9266L405.943 61.5178L397.153 8.08264L362.127 -5.32615L353.337 -58.7613L318.31 -72.1702L309.521 -125.605L274.494 -139.014L265.704 -192.449" stroke="#E5E5E5" stroke-miterlimit="10"/>
<path d="M872.968 818.416L864.31 765.181L829.283 751.772L820.494 698.337L785.467 684.928L776.677 631.493L741.65 618.084L732.861 564.649L697.834 551.24L689.176 498.005L654.149 484.596L645.359 431.161L610.332 417.752L601.543 364.317L566.516 350.908L557.726 297.473L522.699 284.064L513.91 230.629L479.014 217.42L470.225 163.985L435.198 150.576L426.408 97.1411L391.381 83.7323L382.592 30.2972L347.565 16.8884L338.776 -36.5468L303.749 -49.9556L294.959 -103.391L259.932 -116.8L251.143 -170.235" stroke="#E5E5E5" stroke-miterlimit="10"/>
<path d="M858.406 840.63L849.748 787.395L814.721 773.987L805.932 720.551L770.905 707.143L762.115 653.707L727.088 640.299L718.299 586.863L683.272 573.455L674.614 520.22L639.587 506.811L630.797 453.376L595.77 439.967L586.981 386.532L551.954 373.123L543.164 319.688L508.137 306.279L499.348 252.844L464.452 239.635L455.663 186.2L420.636 172.791L411.846 119.356L376.819 105.947L368.03 52.5117L333.003 39.103L324.213 -14.3322L289.187 -27.7411L280.397 -81.1762L245.37 -94.585L236.581 -148.02" stroke="#E5E5E5" stroke-miterlimit="10"/>
<path d="M843.845 862.845L835.186 809.61L800.16 796.201L791.37 742.766L756.343 729.357L747.554 675.922L712.527 662.513L703.737 609.078L668.71 595.669L660.052 542.434L625.025 529.025L616.236 475.59L581.209 462.181L572.419 408.746L537.392 395.337L528.603 341.902L493.576 328.493L484.786 275.058L449.891 261.849L441.101 208.414L406.074 195.005L397.285 141.57L362.258 128.161L353.468 74.7262L318.441 61.3174L309.652 7.8822L274.625 -5.52665L265.835 -58.9618L230.809 -72.3706L222.019 -125.806" stroke="#E5E5E5" stroke-miterlimit="10"/>
<path d="M829.283 885.06L820.624 831.825L785.598 818.416L776.808 764.981L741.781 751.572L732.992 698.137L697.965 684.728L689.175 631.293L654.148 617.884L645.49 564.649L610.463 551.24L601.674 497.805L566.647 484.396L557.857 430.961L522.83 417.552L514.041 364.117L479.014 350.708L470.224 297.273L435.329 284.064L426.539 230.629L391.512 217.22L382.723 163.785L347.696 150.376L338.906 96.941L303.88 83.5322L295.09 30.0971L260.063 16.6882L251.274 -36.7469L216.247 -50.1557L207.457 -103.591" stroke="#E5E5E5" stroke-miterlimit="10"/>
<path d="M814.721 907.274L806.063 854.039L771.036 840.631L762.246 787.195L727.22 773.787L718.43 720.351L683.403 706.943L674.614 653.507L639.587 640.099L630.928 586.863L595.901 573.455L587.112 520.019L552.085 506.611L543.296 453.175L508.269 439.767L499.479 386.331L464.452 372.923L455.663 319.487L420.767 306.279L411.978 252.844L376.951 239.435L368.161 186L333.134 172.591L324.345 119.156L289.318 105.747L280.528 52.3115L245.501 38.9027L236.712 -14.5325L201.685 -27.9413L192.895 -81.3765" stroke="#E5E5E5" stroke-miterlimit="10"/>
<path d="M800.159 929.489L791.501 876.254L756.474 862.845L747.684 809.41L712.658 796.001L703.868 742.566L668.841 729.157L660.052 675.722L625.025 662.313L616.366 609.078L581.34 595.669L572.55 542.234L537.523 528.825L528.734 475.39L493.707 461.981L484.917 408.546L449.89 395.137L441.101 341.702L406.205 328.494L397.416 275.058L362.389 261.65L353.599 208.214L318.572 194.806L309.783 141.37L274.756 127.962L265.967 74.5264L230.94 61.1176L222.15 7.68248L187.123 -5.72637L178.334 -59.1615" stroke="#E5E5E5" stroke-miterlimit="10"/>
<path d="M785.598 951.703L776.939 898.468L741.912 885.06L733.123 831.624L698.096 818.216L689.307 764.78L654.28 751.372L645.49 697.936L610.463 684.528L601.805 631.293L566.778 617.884L557.988 564.449L522.962 551.04L514.172 497.605L479.145 484.196L470.356 430.761L435.329 417.352L426.539 363.917L391.644 350.708L382.854 297.273L347.827 283.864L339.038 230.429L304.011 217.02L295.221 163.585L260.194 150.176L251.405 96.7409L216.378 83.332L207.588 29.8969L172.562 16.4881L163.772 -36.9471" stroke="#E5E5E5" stroke-miterlimit="10"/>
<path d="M771.036 973.918L762.377 920.683L727.35 907.274L718.561 853.839L683.534 840.431L674.745 786.995L639.718 773.587L630.928 720.151L595.901 706.743L587.243 653.508L552.216 640.099L543.426 586.664L508.4 573.255L499.61 519.82L464.583 506.411L455.794 452.976L420.767 439.567L411.977 386.132L377.082 372.923L368.292 319.488L333.265 306.079L324.476 252.644L289.449 239.235L280.659 185.8L245.632 172.391L236.843 118.956L201.816 105.547L193.026 52.1118L158 38.703L149.21 -14.7322" stroke="#E5E5E5" stroke-miterlimit="10"/>
<path d="M756.474 996.133L747.816 942.898L712.789 929.489L703.999 876.054L668.973 862.645L660.183 809.21L625.156 795.801L616.367 742.366L581.34 728.957L572.681 675.722L537.654 662.313L528.865 608.878L493.838 595.469L485.049 542.034L450.022 528.625L441.232 475.19L406.205 461.781L397.416 408.346L362.52 395.137L353.731 341.702L318.704 328.293L309.914 274.858L274.887 261.449L266.098 208.014L231.071 194.605L222.281 141.17L187.254 127.761L178.465 74.3263L143.438 60.9175L134.649 7.48235" stroke="#E5E5E5" stroke-miterlimit="10"/>
<path d="M741.912 1018.35L733.254 965.112L698.227 951.704L689.437 898.268L654.41 884.86L645.621 831.424L610.594 818.016L601.805 764.58L566.778 751.172L558.119 697.937L523.092 684.528L514.303 631.093L479.276 617.684L470.487 564.249L435.46 550.84L426.67 497.405L391.643 483.996L382.854 430.561L347.958 417.352L339.169 363.917L304.142 350.508L295.352 297.073L260.325 283.664L251.536 230.229L216.509 216.82L207.719 163.385L172.692 149.976L163.903 96.541L128.876 83.1322L120.087 29.6971" stroke="#E5E5E5" stroke-miterlimit="10"/>
<path d="M727.351 1040.56L718.692 987.327L683.665 973.918L674.876 920.483L639.849 907.074L631.059 853.639L596.033 840.23L587.243 786.795L552.216 773.386L543.558 720.151L508.531 706.743L499.741 653.307L464.715 639.899L455.925 586.463L420.898 573.055L412.109 519.619L377.082 506.211L368.292 452.775L333.396 439.567L324.607 386.131L289.58 372.723L280.791 319.287L245.764 305.879L236.974 252.443L201.947 239.035L193.158 185.599L158.131 172.191L149.341 118.755L114.314 105.347L105.525 51.9115" stroke="#E5E5E5" stroke-miterlimit="10"/>
<path d="M712.789 1062.78L704.131 1009.54L669.104 996.133L660.314 942.698L625.287 929.289L616.498 875.854L581.471 862.445L572.682 809.01L537.655 795.601L528.996 742.366L493.969 728.957L485.18 675.522L450.153 662.113L441.363 608.678L406.337 595.269L397.547 541.834L362.52 528.425L353.731 474.99L318.835 461.781L310.045 408.346L275.019 394.937L266.229 341.502L231.202 328.093L222.413 274.658L187.386 261.249L178.596 207.814L143.569 194.405L134.78 140.97L99.7529 127.561L90.9634 74.1262" stroke="#E5E5E5" stroke-miterlimit="10"/>
<path d="M698.227 1084.99L689.569 1031.76L654.542 1018.35L645.752 964.912L610.725 951.503L601.936 898.068L566.909 884.659L558.12 831.224L523.093 817.815L514.434 764.58L479.407 751.172L470.618 697.736L435.591 684.328L426.802 630.892L391.775 617.484L382.985 564.048L347.958 550.64L339.169 497.204L304.273 483.996L295.483 430.561L260.457 417.152L251.667 363.717L216.64 350.308L207.851 296.873L172.824 283.464L164.034 230.029L129.007 216.62L120.218 163.185L85.191 149.776L76.4015 96.3407" stroke="#E5E5E5" stroke-miterlimit="10"/>
<path d="M683.666 1107.21L675.007 1053.97L639.98 1040.56L631.191 987.127L596.164 973.718L587.374 920.283L552.348 906.874L543.558 853.439L508.531 840.03L499.873 786.795L464.846 773.386L456.056 719.951L421.029 706.542L412.24 653.107L377.213 639.698L368.424 586.263L333.397 572.854L324.607 519.419L289.711 506.211L280.922 452.775L245.895 439.367L237.105 385.931L202.079 372.523L193.289 319.087L158.262 305.679L149.473 252.243L114.446 238.835L105.656 185.399L70.6294 171.991L61.8399 118.555" stroke="#E5E5E5" stroke-miterlimit="10"/>
<path d="M669.104 1129.42L660.445 1076.19L625.418 1062.78L616.629 1009.34L581.602 995.933L572.812 942.498L537.785 929.089L528.996 875.654L493.969 862.245L485.311 809.01L450.284 795.601L441.494 742.166L406.467 728.757L397.678 675.322L362.651 661.913L353.862 608.478L318.835 595.069L310.045 541.634L275.149 528.425L266.36 474.99L231.333 461.581L222.543 408.146L187.517 394.737L178.727 341.302L143.7 327.893L134.911 274.458L99.8838 261.049L91.0943 207.614L56.0674 194.205L47.2779 140.77" stroke="#E5E5E5" stroke-miterlimit="10"/>
<path d="M654.542 1151.64L645.884 1098.4L610.857 1084.99L602.067 1031.56L567.04 1018.15L558.251 964.712L523.224 951.303L514.434 897.868L479.408 884.459L470.749 831.224L435.722 817.815L426.933 764.38L391.906 750.972L383.116 697.536L348.09 684.128L339.3 630.692L304.273 617.284L295.484 563.848L260.588 550.64L251.798 497.205L216.771 483.796L207.982 430.36L172.955 416.952L164.165 363.517L129.139 350.108L120.349 296.673L85.3222 283.264L76.5327 229.829L41.5058 216.42L32.7163 162.985" stroke="#E5E5E5" stroke-miterlimit="10"/>
<path d="M639.98 1173.85L631.322 1120.61L596.295 1107.21L587.505 1053.77L552.478 1040.36L543.689 986.927L508.662 973.518L499.872 920.083L464.846 906.674L456.187 853.439L421.16 840.03L412.371 786.595L377.344 773.186L368.554 719.751L333.528 706.342L324.738 652.907L289.711 639.498L280.922 586.063L246.026 572.854L237.236 519.419L202.21 506.01L193.42 452.575L158.393 439.166L149.604 385.731L114.577 372.322L105.787 318.887L70.7604 305.478L61.9709 252.043L26.944 238.634L18.1545 185.199" stroke="#E5E5E5" stroke-miterlimit="10"/>
<path d="M625.418 1196.06L616.76 1142.83L581.733 1129.42L572.944 1075.99L537.917 1062.58L529.127 1009.14L494.1 995.733L485.311 942.298L450.284 928.889L441.626 875.654L406.599 862.245L397.809 808.81L362.782 795.401L353.993 741.966L318.966 728.557L310.177 675.122L275.15 661.713L266.36 608.278L231.464 595.069L222.675 541.634L187.648 528.225L178.858 474.79L143.832 461.381L135.042 407.946L100.015 394.537L91.2257 341.102L56.1988 327.693L47.4093 274.258L12.3824 260.849L3.59289 207.414" stroke="#E5E5E5" stroke-miterlimit="10"/>
<path d="M610.856 1218.28L602.198 1165.04L567.171 1151.64L558.382 1098.2L523.355 1084.79L514.565 1031.36L479.538 1017.95L470.749 964.512L435.722 951.103L427.064 897.868L392.037 884.46L383.247 831.024L348.22 817.616L339.431 764.18L304.404 750.772L295.614 697.336L260.588 683.928L251.798 630.492L216.902 617.284L208.113 563.849L173.086 550.44L164.296 497.005L129.27 483.596L120.48 430.161L85.4532 416.752L76.6637 363.317L41.6368 349.908L32.8473 296.473L-2.17963 283.064L-10.9691 229.629" stroke="#E5E5E5" stroke-miterlimit="10"/>
<path d="M596.295 1240.49L587.637 1187.26L552.61 1173.85L543.82 1120.41L508.793 1107.01L500.004 1053.57L464.977 1040.16L456.187 986.727L421.16 973.318L412.502 920.083L377.475 906.674L368.686 853.239L333.659 839.83L324.869 786.395L289.842 772.986L281.053 719.551L246.026 706.142L237.237 652.707L202.341 639.498L193.551 586.063L158.524 572.654L149.735 519.219L114.708 505.81L105.918 452.375L70.8916 438.966L62.1021 385.531L27.0752 372.122L18.2857 318.687L-16.7412 305.278L-25.5307 251.843" stroke="#E5E5E5" stroke-miterlimit="10"/>
<path d="M581.733 1262.71L573.075 1209.47L538.048 1196.06L529.259 1142.63L494.232 1129.22L485.442 1075.79L450.415 1062.38L441.626 1008.94L406.599 995.532L397.941 942.297L362.914 928.889L354.124 875.454L319.097 862.045L310.308 808.61L275.281 795.201L266.491 741.766L231.465 728.357L222.675 674.922L187.779 661.713L178.99 608.278L143.963 594.869L135.173 541.434L100.147 528.025L91.3571 474.59L56.3302 461.181L47.5407 407.746L12.5138 394.337L3.72428 340.902L-31.3026 327.493L-40.0921 274.058" stroke="#E5E5E5" stroke-miterlimit="10"/>
<path d="M567.171 1284.92L558.513 1231.69L523.486 1218.28L514.697 1164.84L479.67 1151.43L470.88 1098L435.853 1084.59L427.064 1031.16L392.037 1017.75L383.379 964.512L348.352 951.103L339.562 897.668L304.535 884.259L295.746 830.824L260.719 817.415L251.929 763.98L216.903 750.571L208.113 697.136L173.217 683.927L164.428 630.492L129.401 617.083L120.611 563.648L85.5845 550.239L76.795 496.804L41.7681 483.395L32.9786 429.96L-2.0483 416.551L-10.8378 363.116L-45.8647 349.707L-54.6542 296.272" stroke="#E5E5E5" stroke-miterlimit="10"/>
<path d="M552.61 1307.14L543.952 1253.9L508.925 1240.49L500.135 1187.06L465.108 1173.65L456.319 1120.21L421.292 1106.81L412.502 1053.37L377.475 1039.96L368.817 986.727L333.79 973.318L325.001 919.883L289.974 906.474L281.184 853.039L246.157 839.63L237.368 786.195L202.341 772.786L193.552 719.351L158.656 706.142L149.866 652.707L114.839 639.298L106.05 585.863L71.0231 572.454L62.2335 519.019L27.2067 505.61L18.4171 452.175L-16.6098 438.766L-25.3993 385.331L-60.4261 371.922L-69.2156 318.487" stroke="#E5E5E5" stroke-miterlimit="10"/>
<path d="M538.048 1329.35L529.39 1276.12L494.363 1262.71L485.573 1209.27L450.546 1195.86L441.757 1142.43L406.73 1129.02L397.94 1075.59L362.913 1062.18L354.255 1008.94L319.228 995.532L310.439 942.097L275.412 928.688L266.622 875.253L231.595 861.845L222.806 808.409L187.779 795.001L178.989 741.565L144.094 728.357L135.304 674.922L100.277 661.513L91.4879 608.078L56.461 594.669L47.6715 541.234L12.6446 527.825L3.85507 474.39L-31.1718 460.981L-39.9613 407.546L-74.9882 394.137L-83.7777 340.702" stroke="#E5E5E5" stroke-miterlimit="10"/>
<path d="M523.486 1351.57L514.828 1298.33L479.801 1284.92L471.012 1231.49L435.985 1218.08L427.195 1164.64L392.168 1151.24L383.379 1097.8L348.352 1084.39L339.694 1031.16L304.667 1017.75L295.877 964.312L260.85 950.903L252.061 897.468L217.034 884.059L208.244 830.624L173.217 817.215L164.428 763.78L129.532 750.571L120.743 697.136L85.7157 683.727L76.9262 630.292L41.8993 616.883L33.1098 563.448L-1.91708 550.039L-10.7066 496.604L-45.7335 483.195L-54.523 429.76L-89.5499 416.351L-98.3394 362.916" stroke="#E5E5E5" stroke-miterlimit="10"/>
<path d="M508.924 1373.78L500.266 1320.55L465.239 1307.14L456.45 1253.7L421.423 1240.29L412.633 1186.86L377.606 1173.45L368.817 1120.01L333.79 1106.61L325.132 1053.37L290.105 1039.96L281.315 986.527L246.288 973.118L237.499 919.683L202.472 906.274L193.682 852.839L158.656 839.43L149.866 785.995L114.97 772.786L106.181 719.351L71.1539 705.942L62.3644 652.507L27.3375 639.098L18.548 585.663L-16.4789 572.254L-25.2684 518.819L-60.2953 505.41L-69.0848 451.975L-104.112 438.566L-112.901 385.131" stroke="#E5E5E5" stroke-miterlimit="10"/>
<path d="M494.363 1396L485.704 1342.76L450.678 1329.35L441.888 1275.92L406.861 1262.51L398.072 1209.07L363.045 1195.66L354.255 1142.23L319.228 1128.82L310.57 1075.58L275.543 1062.18L266.754 1008.74L231.727 995.332L222.937 941.897L187.91 928.488L179.121 875.053L144.094 861.644L135.304 808.209L100.409 795L91.6192 741.565L56.5923 728.156L47.8027 674.721L12.7759 661.312L3.98633 607.877L-31.0405 594.469L-39.8301 541.033L-74.857 527.625L-83.6465 474.189L-118.673 460.781L-127.463 407.346" stroke="#E5E5E5" stroke-miterlimit="10"/>
<path d="M479.801 1418.21L471.143 1364.98L436.116 1351.57L427.327 1298.13L392.3 1284.72L383.51 1231.29L348.483 1217.88L339.694 1164.44L304.667 1151.03L296.009 1097.8L260.982 1084.39L252.192 1030.96L217.165 1017.55L208.376 964.112L173.349 950.703L164.559 897.268L129.532 883.859L120.743 830.424L85.8472 817.215L77.0577 763.78L42.0308 750.371L33.2412 696.936L-1.78563 683.527L-10.5752 630.092L-45.602 616.683L-54.3916 563.248L-89.4185 549.839L-98.208 496.404L-133.235 482.995L-142.024 429.56" stroke="#E5E5E5" stroke-miterlimit="10"/>
<path d="M465.239 1440.43L456.581 1387.19L421.554 1373.78L412.765 1320.35L377.738 1306.94L368.948 1253.5L333.921 1240.09L325.132 1186.66L290.105 1173.25L281.447 1120.01L246.42 1106.61L237.63 1053.17L202.603 1039.76L193.814 986.326L158.787 972.918L149.997 919.482L114.97 906.074L106.181 852.638L71.2852 839.43L62.4957 785.995L27.4688 772.586L18.6793 719.151L-16.3476 705.742L-25.1371 652.307L-60.164 638.898L-68.9535 585.463L-103.98 572.054L-112.77 518.619L-147.797 505.21L-156.586 451.775" stroke="#E5E5E5" stroke-miterlimit="10"/>
<path d="M450.677 1462.64L442.019 1409.4L406.992 1396L398.203 1342.56L363.176 1329.15L354.386 1275.72L319.359 1262.31L310.57 1208.87L275.543 1195.46L266.885 1142.23L231.858 1128.82L223.068 1075.38L188.041 1061.98L179.252 1008.54L144.225 995.132L135.436 941.697L100.409 928.288L91.6191 874.853L56.7234 861.644L47.9339 808.209L12.907 794.8L4.11748 741.365L-30.9094 727.956L-39.6989 674.521L-74.7258 661.112L-83.5153 607.677L-118.542 594.268L-127.332 540.833L-162.359 527.424L-171.148 473.989" stroke="#E5E5E5" stroke-miterlimit="10"/>
<path d="M436.116 1484.85L427.457 1431.62L392.431 1418.21L383.641 1364.78L348.614 1351.37L339.825 1297.93L304.798 1284.52L296.008 1231.09L260.981 1217.68L252.323 1164.44L217.296 1151.03L208.507 1097.6L173.48 1084.19L164.69 1030.76L129.663 1017.35L120.874 963.912L85.8469 950.503L77.0574 897.068L42.1617 883.859L33.3722 830.424L-1.6547 817.015L-10.4442 763.58L-45.4711 750.171L-54.2606 696.736L-89.2875 683.327L-98.077 629.892L-133.104 616.483L-141.893 563.048L-176.92 549.639L-185.71 496.204" stroke="#E5E5E5" stroke-miterlimit="10"/>
<path d="M421.554 1507.07L412.896 1453.83L377.869 1440.43L369.079 1386.99L334.053 1373.58L325.263 1320.15L290.236 1306.74L281.447 1253.3L246.42 1239.89L237.761 1186.66L202.735 1173.25L193.945 1119.81L158.918 1106.41L150.129 1052.97L115.102 1039.56L106.312 986.126L71.2853 972.717L62.4958 919.282L27.6001 906.073L18.8106 852.638L-16.2163 839.229L-25.0059 785.794L-60.0327 772.386L-68.8223 718.95L-103.849 705.542L-112.639 652.106L-147.666 638.698L-156.455 585.262L-191.482 571.854L-200.271 518.418" stroke="#E5E5E5" stroke-miterlimit="10"/>
<path d="M406.992 1529.28L398.334 1476.05L363.307 1462.64L354.518 1409.2L319.491 1395.8L310.701 1342.36L275.674 1328.95L266.885 1275.52L231.858 1262.11L223.2 1208.87L188.173 1195.46L179.383 1142.03L144.356 1128.62L135.567 1075.18L100.54 1061.78L91.7505 1008.34L56.7236 994.932L47.9341 941.497L13.0384 928.288L4.24886 874.853L-30.778 861.444L-39.5676 808.009L-74.5944 794.6L-83.384 741.165L-118.411 727.756L-127.2 674.321L-162.227 660.912L-171.017 607.477L-206.044 594.068L-214.833 540.633" stroke="#E5E5E5" stroke-miterlimit="10"/>
<path d="M392.431 1551.5L383.772 1498.26L348.745 1484.85L339.956 1431.42L304.929 1418.01L296.14 1364.58L261.113 1351.17L252.323 1297.73L217.296 1284.32L208.638 1231.09L173.611 1217.68L164.822 1164.24L129.795 1150.83L121.005 1097.4L85.9782 1083.99L77.1887 1030.56L42.1618 1017.15L33.3723 963.712L-1.5234 950.503L-10.3129 897.068L-45.3398 883.659L-54.1293 830.224L-89.1562 816.815L-97.9457 763.38L-132.973 749.971L-141.762 696.536L-176.789 683.127L-185.579 629.692L-220.605 616.283L-229.395 562.848" stroke="#E5E5E5" stroke-miterlimit="10"/>
<path d="M377.869 1573.71L369.211 1520.48L334.184 1507.07L325.394 1453.63L290.367 1440.23L281.578 1386.79L246.551 1373.38L237.761 1319.95L202.735 1306.54L194.076 1253.3L159.049 1239.89L150.26 1186.46L115.233 1173.05L106.443 1119.61L71.4165 1106.21L62.627 1052.77L27.6001 1039.36L18.8106 985.926L-16.0851 972.718L-24.8746 919.282L-59.9015 905.874L-68.691 852.438L-103.718 839.03L-112.507 785.594L-147.534 772.186L-156.324 718.75L-191.351 705.342L-200.14 651.907L-235.167 638.498L-243.957 585.063" stroke="#E5E5E5" stroke-miterlimit="10"/>
<path d="M363.307 1595.93L354.649 1542.69L319.622 1529.28L310.832 1475.85L275.806 1462.44L267.016 1409L231.989 1395.6L223.2 1342.16L188.173 1328.75L179.514 1275.52L144.488 1262.11L135.698 1208.67L100.671 1195.26L91.8816 1141.83L56.8547 1128.42L48.0652 1074.98L13.0383 1061.58L4.2488 1008.14L-30.6469 994.932L-39.4364 941.497L-74.4633 928.088L-83.2528 874.653L-118.28 861.244L-127.069 807.809L-162.096 794.4L-170.886 740.965L-205.912 727.556L-214.702 674.121L-249.729 660.712L-258.518 607.277" stroke="#E5E5E5" stroke-miterlimit="10"/>
<path d="M348.745 1618.14L340.087 1564.91L305.06 1551.5L296.271 1498.06L261.244 1484.65L252.454 1431.22L217.427 1417.81L208.638 1364.38L173.611 1350.97L164.953 1297.73L129.926 1284.32L121.136 1230.89L86.1094 1217.48L77.3199 1164.04L42.293 1150.63L33.5034 1097.2L-1.52343 1083.79L-10.313 1030.36L-45.2087 1017.15L-53.9982 963.712L-89.0251 950.303L-97.8146 896.868L-132.841 883.459L-141.631 830.024L-176.658 816.615L-185.447 763.18L-220.474 749.771L-229.264 696.336L-264.291 682.927L-273.08 629.492" stroke="#E5E5E5" stroke-miterlimit="10"/>
<path d="M334.184 1640.36L325.526 1587.12L290.499 1573.71L281.709 1520.28L246.682 1506.87L237.893 1453.43L202.866 1440.02L194.076 1386.59L159.049 1373.18L150.391 1319.95L115.364 1306.54L106.575 1253.1L71.5478 1239.69L62.7583 1186.26L27.7314 1172.85L18.9419 1119.41L-16.085 1106.01L-24.8746 1052.57L-59.7703 1039.36L-68.5598 985.926L-103.587 972.517L-112.376 919.082L-147.403 905.673L-156.193 852.238L-191.219 838.829L-200.009 785.394L-235.036 771.985L-243.825 718.55L-278.852 705.141L-287.642 651.706" stroke="#E5E5E5" stroke-miterlimit="10"/>
<path d="M319.622 1662.57L310.963 1609.34L275.937 1595.93L267.147 1542.49L232.12 1529.08L223.331 1475.65L188.304 1462.24L179.514 1408.8L144.487 1395.4L135.829 1342.16L100.802 1328.75L92.0127 1275.32L56.9858 1261.91L48.1963 1208.47L13.1694 1195.06L4.3799 1141.63L-30.647 1128.22L-39.4365 1074.78L-74.3322 1061.58L-83.1217 1008.14L-118.149 994.732L-126.938 941.297L-161.965 927.888L-170.755 874.453L-205.781 861.044L-214.571 807.609L-249.598 794.2L-258.387 740.765L-293.414 727.356L-302.204 673.921" stroke="#E5E5E5" stroke-miterlimit="10"/>
<path d="M305.06 1684.79L296.402 1631.55L261.375 1618.14L252.585 1564.71L217.558 1551.3L208.769 1497.86L173.742 1484.45L164.953 1431.02L129.926 1417.61L121.267 1364.38L86.2404 1350.97L77.4509 1297.53L42.4241 1284.12L33.6345 1230.69L-1.39233 1217.28L-10.1819 1163.84L-45.2087 1150.43L-53.9983 1097L-88.894 1083.79L-97.6835 1030.36L-132.71 1016.95L-141.5 963.512L-176.527 950.103L-185.316 896.668L-220.343 883.259L-229.133 829.824L-264.16 816.415L-272.949 762.98L-307.976 749.571L-316.765 696.136" stroke="#E5E5E5" stroke-miterlimit="10"/>
<path d="M290.499 1707L281.84 1653.77L246.813 1640.36L238.024 1586.92L202.997 1573.51L194.207 1520.08L159.181 1506.67L150.391 1453.23L115.364 1439.82L106.706 1386.59L71.6789 1373.18L62.8894 1319.75L27.8625 1306.34L19.073 1252.9L-15.9539 1239.49L-24.7434 1186.06L-59.7703 1172.65L-68.5598 1119.21L-103.455 1106.01L-112.245 1052.57L-147.272 1039.16L-156.061 985.726L-191.088 972.317L-199.878 918.882L-234.905 905.473L-243.694 852.038L-278.721 838.629L-287.511 785.194L-322.537 771.785L-331.327 718.35" stroke="#E5E5E5" stroke-miterlimit="10"/>
<path d="M275.937 1729.22L267.278 1675.98L232.252 1662.57L223.462 1609.14L188.435 1595.73L179.646 1542.29L144.619 1528.88L135.829 1475.45L100.802 1462.04L92.1441 1408.8L57.1172 1395.4L48.3276 1341.96L13.3008 1328.55L4.51126 1275.12L-30.5156 1261.71L-39.3051 1208.27L-74.332 1194.86L-83.1216 1141.43L-118.017 1128.22L-126.807 1074.78L-161.834 1061.38L-170.623 1007.94L-205.65 994.532L-214.44 941.097L-249.466 927.688L-258.256 874.253L-293.283 860.844L-302.072 807.409L-337.099 794L-345.889 740.565" stroke="#E5E5E5" stroke-miterlimit="10"/>
<path d="M261.375 1751.43L252.717 1698.19L217.69 1684.79L208.9 1631.35L173.873 1617.94L165.084 1564.51L130.057 1551.1L121.267 1497.66L86.2406 1484.25L77.5823 1431.02L42.5554 1417.61L33.7659 1364.18L-1.26103 1350.77L-10.0505 1297.33L-45.0774 1283.92L-53.8669 1230.49L-88.8938 1217.08L-97.6834 1163.64L-132.579 1150.43L-141.369 1097L-176.395 1083.59L-185.185 1030.16L-220.212 1016.75L-229.001 963.311L-264.028 949.903L-272.818 896.467L-307.845 883.058L-316.634 829.623L-351.661 816.215L-360.451 762.779" stroke="#E5E5E5" stroke-miterlimit="10"/>
<path d="M246.813 1773.64L238.155 1720.41L203.128 1707L194.339 1653.57L159.312 1640.16L150.522 1586.72L115.495 1573.31L106.706 1519.88L71.6791 1506.47L63.0208 1453.23L27.9939 1439.82L19.2044 1386.39L-15.8225 1372.98L-24.612 1319.55L-59.6389 1306.14L-68.4284 1252.7L-103.455 1239.29L-112.245 1185.86L-147.141 1172.65L-155.93 1119.21L-190.957 1105.81L-199.746 1052.37L-234.773 1038.96L-243.563 985.526L-278.59 972.117L-287.379 918.682L-322.406 905.273L-331.196 851.838L-366.222 838.429L-375.012 784.994" stroke="#E5E5E5" stroke-miterlimit="10"/>
<path d="M232.251 1795.86L223.593 1742.62L188.566 1729.22L179.777 1675.78L144.75 1662.37L135.96 1608.94L100.933 1595.53L92.1439 1542.09L57.1171 1528.68L48.4587 1475.45L13.4318 1462.04L4.64232 1408.6L-30.3846 1395.2L-39.1741 1341.76L-74.201 1328.35L-82.9905 1274.92L-118.017 1261.51L-126.807 1208.07L-161.703 1194.86L-170.492 1141.43L-205.519 1128.02L-214.309 1074.58L-249.335 1061.18L-258.125 1007.74L-293.152 994.332L-301.941 940.897L-336.968 927.488L-345.758 874.053L-380.785 860.644L-389.574 807.209" stroke="#E5E5E5" stroke-miterlimit="10"/>
</g>
</svg>
