<svg width="189" height="321" viewBox="0 0 189 321" fill="none" xmlns="http://www.w3.org/2000/svg">
<mask id="mask0" mask-type="alpha" maskUnits="userSpaceOnUse" x="0" y="0" width="189" height="321">
<rect width="189" height="321" fill="#FF7800"/>
</mask>
<g mask="url(#mask0)">
<g clip-path="url(#clip0)">
<path d="M728.794 360.699L721.395 330.88L691.464 323.369L683.953 293.438L654.022 285.927L646.511 255.996L616.58 248.485L609.069 218.554L579.138 211.043L571.739 181.224L541.808 173.713L534.297 143.782L504.365 136.271L496.855 106.339L466.923 98.8285L459.412 68.8972L429.481 61.3863L421.97 31.455L392.151 24.0562L384.64 -5.87507L354.709 -13.3859L347.198 -43.3173L317.267 -50.8281L309.756 -80.7594L279.824 -88.2703L272.314 -118.202L242.382 -125.712L234.871 -155.644L204.94 -163.155L197.429 -193.086" stroke="#E5E5E5" stroke-miterlimit="10"/>
</g>
<g clip-path="url(#clip1)">
<path d="M716.351 373.143L708.952 343.324L679.021 335.813L671.51 305.881L641.579 298.371L634.068 268.439L604.136 260.928L596.626 230.997L566.694 223.486L559.295 193.667L529.364 186.156L521.853 156.225L491.922 148.714L484.411 118.783L454.48 111.272L446.969 81.3405L417.038 73.8297L409.527 43.8983L379.708 36.4996L372.197 6.56829L342.265 -0.942579L334.755 -30.8739L304.823 -38.3847L297.312 -68.3161L267.381 -75.8269L259.87 -105.758L229.939 -113.269L222.428 -143.2L192.497 -150.711L184.986 -180.643" stroke="#E5E5E5" stroke-miterlimit="10"/>
</g>
<g clip-path="url(#clip2)">
<path d="M703.908 385.586L696.509 355.767L666.578 348.256L659.067 318.325L629.135 310.814L621.625 280.883L591.693 273.372L584.182 243.44L554.251 235.929L546.852 206.11L516.921 198.599L509.41 168.668L479.479 161.157L471.968 131.226L442.037 123.715L434.526 93.7838L404.595 86.2729L397.084 56.3416L367.264 48.9428L359.754 19.0115L329.822 11.5007L322.311 -18.4307L292.38 -25.9415L284.869 -55.8728L254.938 -63.3837L247.427 -93.315L217.496 -100.826L209.985 -130.757L180.054 -138.268L172.543 -168.199" stroke="#E5E5E5" stroke-miterlimit="10"/>
</g>
<g clip-path="url(#clip3)">
<path d="M691.464 398.029L684.066 368.21L654.134 360.699L646.623 330.768L616.692 323.257L609.181 293.326L579.25 285.815L571.739 255.884L541.808 248.373L534.409 218.554L504.478 211.043L496.967 181.111L467.036 173.601L459.525 143.669L429.593 136.158L422.082 106.227L392.151 98.7163L384.64 68.7849L354.821 61.3862L347.31 31.4549L317.379 23.944L309.868 -5.98731L279.937 -13.4981L272.426 -43.4295L242.495 -50.9403L234.984 -80.8716L205.052 -88.3825L197.542 -118.314L167.61 -125.825L160.099 -155.756" stroke="#E5E5E5" stroke-miterlimit="10"/>
</g>
<g clip-path="url(#clip4)">
<path d="M679.021 410.473L671.622 380.654L641.691 373.143L634.18 343.212L604.249 335.701L596.738 305.769L566.806 298.258L559.295 268.327L529.364 260.816L521.965 230.997L492.034 223.486L484.523 193.555L454.592 186.044L447.081 156.113L417.15 148.602L409.639 118.671L379.708 111.16L372.197 81.2284L342.377 73.8297L334.867 43.8984L304.935 36.3875L297.424 6.45617L267.493 -1.05466L259.982 -30.986L230.051 -38.4968L222.54 -68.4282L192.609 -75.939L185.098 -105.87L155.167 -113.381L147.656 -143.312" stroke="#E5E5E5" stroke-miterlimit="10"/>
</g>
<g clip-path="url(#clip5)">
<path d="M666.577 422.916L659.179 393.097L629.247 385.586L621.736 355.655L591.805 348.144L584.294 318.213L554.363 310.702L546.852 280.771L516.921 273.26L509.522 243.44L479.591 235.93L472.08 205.998L442.149 198.487L434.638 168.556L404.706 161.045L397.196 131.114L367.264 123.603L359.753 93.6718L329.934 86.273L322.423 56.3417L292.492 48.8309L284.981 18.8995L255.05 11.3887L247.539 -18.5426L217.608 -26.0535L210.097 -55.9848L180.165 -63.4957L172.655 -93.427L142.723 -100.938L135.212 -130.869" stroke="#E5E5E5" stroke-miterlimit="10"/>
</g>
<g clip-path="url(#clip6)">
<path d="M654.134 435.359L646.736 405.54L616.804 398.029L609.293 368.098L579.362 360.587L571.851 330.656L541.92 323.145L534.409 293.214L504.478 285.703L497.079 255.884L467.148 248.373L459.637 218.442L429.705 210.931L422.195 180.999L392.263 173.489L384.752 143.557L354.821 136.046L347.31 106.115L317.491 98.7163L309.98 68.785L280.049 61.2741L272.538 31.3428L242.607 23.8319L235.096 -6.09939L205.165 -13.6102L197.654 -43.5416L167.722 -51.0524L160.211 -80.9837L130.28 -88.4946L122.769 -118.426" stroke="#E5E5E5" stroke-miterlimit="10"/>
</g>
<g clip-path="url(#clip7)">
<path d="M641.691 447.803L634.292 417.984L604.361 410.473L596.85 380.541L566.919 373.031L559.408 343.099L529.477 335.588L521.966 305.657L492.034 298.146L484.636 268.327L454.704 260.816L447.193 230.885L417.262 223.374L409.751 193.443L379.82 185.932L372.309 156.001L342.378 148.49L334.867 118.558L305.048 111.16L297.537 81.2283L267.605 73.7175L260.095 43.7861L230.163 36.2753L222.652 6.34396L192.721 -1.16687L185.21 -31.0982L155.279 -38.6091L147.768 -68.5404L117.837 -76.0512L110.326 -105.983" stroke="#E5E5E5" stroke-miterlimit="10"/>
</g>
<g clip-path="url(#clip8)">
<path d="M629.247 460.246L621.849 430.427L591.917 422.916L584.406 392.985L554.475 385.474L546.964 355.543L517.033 348.032L509.522 318.101L479.591 310.59L472.192 280.771L442.261 273.26L434.75 243.328L404.818 235.818L397.308 205.886L367.376 198.375L359.865 168.444L329.934 160.933L322.423 131.002L292.604 123.603L285.093 93.6718L255.162 86.1609L247.651 56.2296L217.72 48.7188L210.209 18.7874L180.278 11.2766L172.767 -18.6547L142.835 -26.1656L135.325 -56.0969L105.393 -63.6077L97.8823 -93.539" stroke="#E5E5E5" stroke-miterlimit="10"/>
</g>
<g clip-path="url(#clip9)">
<path d="M616.804 472.69L609.405 442.87L579.474 435.36L571.963 405.428L542.032 397.917L534.521 367.986L504.59 360.475L497.079 330.544L467.147 323.033L459.749 293.214L429.817 285.703L422.306 255.772L392.375 248.261L384.864 218.33L354.933 210.819L347.422 180.887L317.491 173.377L309.98 143.445L280.161 136.046L272.65 106.115L242.719 98.6043L235.208 68.673L205.276 61.1621L197.765 31.2308L167.834 23.72L160.323 -6.21136L130.392 -13.7222L122.881 -43.6535L92.9498 -51.1644L85.439 -81.0957" stroke="#E5E5E5" stroke-miterlimit="10"/>
</g>
<g clip-path="url(#clip10)">
<path d="M604.361 485.133L596.962 455.314L567.031 447.803L559.52 417.872L529.589 410.361L522.078 380.43L492.146 372.919L484.636 342.987L454.704 335.476L447.306 305.657L417.374 298.146L409.863 268.215L379.932 260.704L372.421 230.773L342.49 223.262L334.979 193.331L305.048 185.82L297.537 155.889L267.718 148.49L260.207 118.559L230.275 111.048L222.765 81.1163L192.833 73.6055L185.322 43.6742L155.391 36.1633L147.88 6.232L117.949 -1.27887L110.438 -31.2102L80.5067 -38.721L72.9959 -68.6523" stroke="#E5E5E5" stroke-miterlimit="10"/>
</g>
<g clip-path="url(#clip11)">
<path d="M591.917 497.576L584.519 467.757L554.587 460.246L547.077 430.315L517.145 422.804L509.634 392.873L479.703 385.362L472.192 355.431L442.261 347.92L434.862 318.101L404.931 310.59L397.42 280.658L367.489 273.147L359.978 243.216L330.046 235.705L322.536 205.774L292.604 198.263L285.093 168.332L255.274 160.933L247.763 131.002L217.832 123.491L210.321 93.5596L180.39 86.0487L172.879 56.1174L142.948 48.6066L135.437 18.6752L105.506 11.1644L97.9947 -18.7669L68.0634 -26.2778L60.5525 -56.2091" stroke="#E5E5E5" stroke-miterlimit="10"/>
</g>
<g clip-path="url(#clip12)">
<path d="M579.474 510.02L572.075 480.2L542.144 472.69L534.633 442.758L504.702 435.247L497.191 405.316L467.26 397.805L459.749 367.874L429.818 360.363L422.419 330.544L392.487 323.033L384.977 293.102L355.045 285.591L347.534 255.66L317.603 248.149L310.092 218.217L280.161 210.707L272.65 180.775L242.831 173.376L235.32 143.445L205.389 135.934L197.878 106.003L167.947 98.4921L160.436 68.5608L130.504 61.0499L122.993 31.1186L93.0622 23.6077L85.5513 -6.32356L55.62 -13.8344L48.1092 -43.7657" stroke="#E5E5E5" stroke-miterlimit="10"/>
</g>
<g clip-path="url(#clip13)">
<path d="M567.031 522.463L559.632 492.644L529.701 485.133L522.19 455.202L492.259 447.691L484.748 417.759L454.816 410.249L447.305 380.317L417.374 372.806L409.975 342.987L380.044 335.476L372.533 305.545L342.602 298.034L335.091 268.103L305.16 260.592L297.649 230.661L267.718 223.15L260.207 193.219L230.387 185.82L222.877 155.888L192.945 148.378L185.434 118.446L155.503 110.935L147.992 81.0041L118.061 73.4933L110.55 43.562L80.6188 36.0511L73.108 6.1198L43.1766 -1.39107L35.6658 -31.3224" stroke="#E5E5E5" stroke-miterlimit="10"/>
</g>
<g clip-path="url(#clip14)">
<path d="M554.587 534.906L547.189 505.087L517.257 497.576L509.746 467.645L479.815 460.134L472.304 430.203L442.373 422.692L434.862 392.761L404.931 385.25L397.532 355.431L367.601 347.92L360.09 317.988L330.159 310.478L322.648 280.546L292.716 273.035L285.206 243.104L255.274 235.593L247.763 205.662L217.944 198.263L210.433 168.332L180.502 160.821L172.991 130.89L143.06 123.379L135.549 93.4475L105.618 85.9366L98.1068 56.0053L68.1754 48.4944L60.6646 18.5632L30.7333 11.0523L23.2224 -18.879" stroke="#E5E5E5" stroke-miterlimit="10"/>
</g>
<g clip-path="url(#clip15)">
<path d="M542.144 547.35L534.745 517.531L504.814 510.02L497.303 480.088L467.372 472.577L459.861 442.646L429.93 435.135L422.419 405.204L392.487 397.693L385.089 367.874L355.157 360.363L347.647 330.432L317.715 322.921L310.204 292.99L280.273 285.479L272.762 255.547L242.831 248.037L235.32 218.105L205.501 210.706L197.99 180.775L168.059 173.264L160.548 143.333L130.616 135.822L123.106 105.891L93.1743 98.38L85.6634 68.4487L55.7321 60.9378L48.2212 31.0065L18.2899 23.4956L10.7791 -6.43565" stroke="#E5E5E5" stroke-miterlimit="10"/>
</g>
<g clip-path="url(#clip16)">
<path d="M529.701 559.793L522.302 529.974L492.371 522.463L484.86 492.532L454.928 485.021L447.418 455.09L417.486 447.579L409.975 417.647L380.044 410.137L372.645 380.317L342.714 372.806L335.203 342.875L305.272 335.364L297.761 305.433L267.83 297.922L260.319 267.991L230.388 260.48L222.877 230.549L193.057 223.15L185.547 193.219L155.615 185.708L148.104 155.776L118.173 148.266L110.662 118.334L80.7309 110.823L73.22 80.892L43.2887 73.3812L35.7779 43.4499L5.84655 35.939L-1.66428 6.00771" stroke="#E5E5E5" stroke-miterlimit="10"/>
</g>
<g clip-path="url(#clip17)">
<path d="M517.257 572.236L509.859 542.417L479.927 534.906L472.416 504.975L442.485 497.464L434.974 467.533L405.043 460.022L397.532 430.091L367.601 422.58L360.202 392.761L330.271 385.25L322.76 355.318L292.828 347.808L285.318 317.876L255.386 310.365L247.875 280.434L217.944 272.923L210.433 242.992L180.614 235.593L173.103 205.662L143.172 198.151L135.661 168.22L105.73 160.709L98.2189 130.778L68.2876 123.267L60.7767 93.3354L30.8454 85.8245L23.3345 55.8932L-6.59681 48.3824L-14.1076 18.4511" stroke="#E5E5E5" stroke-miterlimit="10"/>
</g>
<g clip-path="url(#clip18)">
<path d="M504.814 584.68L497.415 554.861L467.484 547.35L459.973 517.418L430.042 509.908L422.531 479.976L392.6 472.465L385.089 442.534L355.157 435.023L347.759 405.204L317.827 397.693L310.316 367.762L280.385 360.251L272.874 330.32L242.943 322.809L235.432 292.878L205.501 285.367L197.99 255.435L168.171 248.037L160.66 218.105L130.729 210.594L123.218 180.663L93.2864 173.152L85.7755 143.221L55.8442 135.71L48.3333 105.779L18.402 98.2679L10.8912 68.3366L-19.0402 60.8257L-26.551 30.8944" stroke="#E5E5E5" stroke-miterlimit="10"/>
</g>
<g clip-path="url(#clip19)">
<path d="M492.371 597.123L484.972 567.304L455.041 559.793L447.53 529.862L417.598 522.351L410.088 492.42L380.156 484.909L372.645 454.977L342.714 447.467L335.315 417.647L305.384 410.137L297.873 380.205L267.942 372.694L260.431 342.763L230.5 335.252L222.989 305.321L193.057 297.81L185.547 267.879L155.727 260.48L148.217 230.549L118.285 223.038L110.774 193.106L80.843 185.596L73.3321 155.664L43.4008 148.153L35.89 118.222L5.95864 110.711L-1.5522 80.78L-31.4835 73.2691L-38.9944 43.3378" stroke="#E5E5E5" stroke-miterlimit="10"/>
</g>
<g clip-path="url(#clip20)">
<path d="M479.927 609.567L472.528 579.747L442.597 572.236L435.086 542.305L405.155 534.794L397.644 504.863L367.713 497.352L360.202 467.421L330.271 459.91L322.872 430.091L292.941 422.58L285.43 392.649L255.498 385.138L247.988 355.206L218.056 347.696L210.545 317.764L180.614 310.253L173.103 280.322L143.284 272.923L135.773 242.992L105.842 235.481L98.3309 205.55L68.3996 198.039L60.8888 168.108L30.9575 160.597L23.4466 130.665L-6.48472 123.155L-13.9956 93.2233L-43.9269 85.7124L-51.4377 55.7811" stroke="#E5E5E5" stroke-miterlimit="10"/>
</g>
<g clip-path="url(#clip21)">
<path d="M467.484 622.01L460.085 592.191L430.154 584.68L422.643 554.749L392.712 547.238L385.201 517.306L355.269 509.795L347.759 479.864L317.827 472.353L310.429 442.534L280.497 435.023L272.986 405.092L243.055 397.581L235.544 367.65L205.613 360.139L198.102 330.208L168.171 322.697L160.66 292.765L130.841 285.367L123.33 255.435L93.3985 247.924L85.8876 217.993L55.9563 210.482L48.4454 180.551L18.5141 173.04L11.0033 143.109L-18.9281 135.598L-26.4389 105.667L-56.3702 98.1558L-63.8811 68.2245" stroke="#E5E5E5" stroke-miterlimit="10"/>
</g>
<g clip-path="url(#clip22)">
<path d="M455.041 634.453L447.642 604.634L417.71 597.123L410.2 567.192L380.268 559.681L372.757 529.75L342.826 522.239L335.315 492.308L305.384 484.797L297.985 454.977L268.054 447.467L260.543 417.535L230.612 410.024L223.101 380.093L193.17 372.582L185.659 342.651L155.727 335.14L148.216 305.209L118.397 297.81L110.886 267.879L80.9551 260.368L73.4442 230.437L43.5129 222.926L36.0021 192.994L6.07076 185.484L-1.44011 155.552L-31.3714 148.041L-38.8823 118.11L-68.8136 110.599L-76.3244 80.6679" stroke="#E5E5E5" stroke-miterlimit="10"/>
</g>
<g clip-path="url(#clip23)">
<path d="M442.597 646.897L435.198 617.077L405.267 609.567L397.756 579.635L367.825 572.124L360.314 542.193L330.383 534.682L322.872 504.751L292.941 497.24L285.542 467.421L255.611 459.91L248.1 429.979L218.168 422.468L210.657 392.536L180.726 385.026L173.215 355.094L143.284 347.583L135.773 317.652L105.954 310.253L98.4431 280.322L68.5117 272.811L61.0009 242.88L31.0696 235.369L23.5587 205.438L-6.3726 197.927L-13.8835 167.996L-43.8148 160.485L-51.3256 130.553L-81.257 123.043L-88.7678 93.1112" stroke="#E5E5E5" stroke-miterlimit="10"/>
</g>
<g clip-path="url(#clip24)">
<path d="M430.154 659.34L422.755 629.521L392.824 622.01L385.313 592.079L355.382 584.568L347.871 554.636L317.939 547.126L310.429 517.194L280.497 509.683L273.098 479.864L243.167 472.353L235.656 442.422L205.725 434.911L198.214 404.98L168.283 397.469L160.772 367.538L130.841 360.027L123.33 330.095L93.5105 322.697L85.9997 292.765L56.0684 285.255L48.5575 255.323L18.6262 247.812L11.1153 217.881L-18.816 210.37L-26.3268 180.439L-56.2582 172.928L-63.769 142.997L-93.7003 135.486L-101.211 105.555" stroke="#E5E5E5" stroke-miterlimit="10"/>
</g>
<g clip-path="url(#clip25)">
<path d="M417.71 671.783L410.312 641.964L380.38 634.453L372.87 604.522L342.938 597.011L335.427 567.08L305.496 559.569L297.985 529.638L268.054 522.127L260.655 492.308L230.724 484.797L223.213 454.865L193.282 447.355L185.771 417.423L155.839 409.912L148.329 379.981L118.397 372.47L110.886 342.539L81.0672 335.14L73.5564 305.209L43.625 297.698L36.1142 267.767L6.18288 260.256L-1.32799 230.324L-31.2593 222.814L-38.7702 192.882L-68.7015 185.371L-76.2123 155.44L-106.144 147.929L-113.654 117.998" stroke="#E5E5E5" stroke-miterlimit="10"/>
</g>
<g clip-path="url(#clip26)">
<path d="M405.267 684.227L397.868 654.407L367.937 646.897L360.426 616.965L330.495 609.454L322.984 579.523L293.053 572.012L285.542 542.081L255.611 534.57L248.212 504.751L218.28 497.24L210.77 467.309L180.838 459.798L173.327 429.867L143.396 422.356L135.885 392.424L105.954 384.914L98.4431 354.982L68.6238 347.583L61.113 317.652L31.1817 310.141L23.6708 280.21L-6.26048 272.699L-13.7713 242.768L-43.7026 235.257L-51.2135 205.326L-81.1448 197.815L-88.6557 167.884L-118.587 160.373L-126.098 130.441" stroke="#E5E5E5" stroke-miterlimit="10"/>
</g>
<g clip-path="url(#clip27)">
<path d="M392.824 696.67L385.425 666.851L355.494 659.34L347.983 629.409L318.051 621.898L310.541 591.967L280.609 584.456L273.098 554.524L243.167 547.013L235.768 517.194L205.837 509.683L198.326 479.752L168.395 472.241L160.884 442.31L130.953 434.799L123.442 404.868L93.5106 397.357L85.9997 367.426L56.1805 360.027L48.6697 330.096L18.7383 322.585L11.2275 292.653L-18.7038 285.143L-26.2147 255.211L-56.146 247.7L-63.6569 217.769L-93.5882 210.258L-101.099 180.327L-131.03 172.816L-138.541 142.885" stroke="#E5E5E5" stroke-miterlimit="10"/>
</g>
<g clip-path="url(#clip28)">
<path d="M380.38 709.113L372.982 679.294L343.05 671.783L335.539 641.852L305.608 634.341L298.097 604.41L268.166 596.899L260.655 566.968L230.724 559.457L223.325 529.638L193.394 522.127L185.883 492.195L155.952 484.685L148.441 454.753L118.509 447.242L110.999 417.311L81.0672 409.8L73.5563 379.869L43.7371 372.47L36.2263 342.539L6.29497 335.028L-1.2159 305.097L-31.1472 297.586L-38.6581 267.655L-68.5894 260.144L-76.1002 230.212L-106.032 222.702L-113.542 192.77L-143.474 185.259L-150.985 155.328" stroke="#E5E5E5" stroke-miterlimit="10"/>
</g>
<g clip-path="url(#clip29)">
<path d="M367.937 721.557L360.538 691.738L330.607 684.227L323.096 654.295L293.165 646.785L285.654 616.853L255.723 609.342L248.212 579.411L218.28 571.9L210.882 542.081L180.95 534.57L173.44 504.639L143.508 497.128L135.997 467.197L106.066 459.686L98.5552 429.754L68.6239 422.244L61.113 392.312L31.2938 384.914L23.7829 354.982L-6.14839 347.471L-13.6593 317.54L-43.5906 310.029L-51.1014 280.098L-81.0327 272.587L-88.5436 242.656L-118.475 235.145L-125.986 205.214L-155.917 197.703L-163.428 167.771" stroke="#E5E5E5" stroke-miterlimit="10"/>
</g>
<g clip-path="url(#clip30)">
<path d="M355.494 734L348.095 704.181L318.164 696.67L310.653 666.739L280.721 659.228L273.211 629.297L243.279 621.786L235.768 591.854L205.837 584.344L198.438 554.524L168.507 547.013L160.996 517.082L131.065 509.571L123.554 479.64L93.6227 472.129L86.1118 442.198L56.1805 434.687L48.6696 404.756L18.8504 397.357L11.3396 367.426L-18.5918 359.915L-26.1026 329.983L-56.0339 322.473L-63.5448 292.541L-93.4761 285.03L-100.987 255.099L-130.918 247.588L-138.429 217.657L-168.36 210.146L-175.871 180.215" stroke="#E5E5E5" stroke-miterlimit="10"/>
</g>
<g clip-path="url(#clip31)">
<path d="M343.05 746.443L335.652 716.624L305.72 709.113L298.209 679.182L268.278 671.671L260.767 641.74L230.836 634.229L223.325 604.298L193.394 596.787L185.995 566.968L156.064 559.457L148.553 529.526L118.621 522.015L111.111 492.083L81.1793 484.573L73.6685 454.641L43.7371 447.13L36.2263 417.199L6.40705 409.8L-1.10378 379.869L-31.0351 372.358L-38.546 342.427L-68.4773 334.916L-75.9881 304.985L-105.919 297.474L-113.43 267.542L-143.362 260.032L-150.872 230.1L-180.804 222.589L-188.315 192.658" stroke="#E5E5E5" stroke-miterlimit="10"/>
</g>
<g clip-path="url(#clip32)">
<path d="M330.607 758.887L323.208 729.068L293.277 721.557L285.766 691.625L255.835 684.114L248.324 654.183L218.393 646.672L210.882 616.741L180.95 609.23L173.552 579.411L143.62 571.9L136.109 541.969L106.178 534.458L98.6673 504.527L68.736 497.016L61.2251 467.084L31.2938 459.574L23.7829 429.642L-6.03631 422.244L-13.5471 392.312L-43.4785 384.801L-50.9893 354.87L-80.9206 347.359L-88.4315 317.428L-118.363 309.917L-125.874 279.986L-155.805 272.475L-163.316 242.544L-193.247 235.033L-200.758 205.101" stroke="#E5E5E5" stroke-miterlimit="10"/>
</g>
<g clip-path="url(#clip33)">
<path d="M318.164 771.33L310.765 741.511L280.834 734L273.323 704.069L243.391 696.558L235.88 666.627L205.949 659.116L198.438 629.184L168.507 621.674L161.108 591.854L131.177 584.344L123.666 554.412L93.7348 546.901L86.2239 516.97L56.2926 509.459L48.7817 479.528L18.8504 472.017L11.3396 442.086L-18.4797 434.687L-25.9905 404.756L-55.9218 397.245L-63.4327 367.313L-93.364 359.803L-100.875 329.871L-130.806 322.361L-138.317 292.429L-168.248 284.918L-175.759 254.987L-205.691 247.476L-213.201 217.545" stroke="#E5E5E5" stroke-miterlimit="10"/>
</g>
<g clip-path="url(#clip34)">
<path d="M305.72 783.774L298.321 753.954L268.39 746.443L260.879 716.512L230.948 709.001L223.437 679.07L193.506 671.559L185.995 641.628L156.064 634.117L148.665 604.298L118.734 596.787L111.223 566.856L81.2914 559.345L73.7806 529.413L43.8492 521.903L36.3384 491.971L6.40706 484.46L-1.10381 454.529L-30.923 447.13L-38.4339 417.199L-68.3652 409.688L-75.8761 379.757L-105.807 372.246L-113.318 342.315L-143.25 334.804L-150.76 304.873L-180.692 297.362L-188.203 267.43L-218.134 259.92L-225.645 229.988" stroke="#E5E5E5" stroke-miterlimit="10"/>
</g>
<g clip-path="url(#clip35)">
<path d="M293.277 796.217L285.878 766.398L255.947 758.887L248.436 728.956L218.505 721.445L210.994 691.513L181.062 684.003L173.552 654.071L143.62 646.56L136.222 616.741L106.29 609.23L98.7794 579.299L68.848 571.788L61.3372 541.857L31.4059 534.346L23.895 504.415L-6.0363 496.904L-13.5472 466.972L-43.3664 459.574L-50.8772 429.642L-80.8085 422.132L-88.3194 392.2L-118.251 384.689L-125.762 354.758L-155.693 347.247L-163.204 317.316L-193.135 309.805L-200.646 279.874L-230.577 272.363L-238.088 242.432" stroke="#E5E5E5" stroke-miterlimit="10"/>
</g>
</g>
<defs>
<clipPath id="clip0">
<rect x="728.458" y="361.708" width="768.11" height="17.5976" transform="rotate(-135 728.458 361.708)" fill="white"/>
</clipPath>
<clipPath id="clip1">
<rect x="716.014" y="374.152" width="768.11" height="17.5976" transform="rotate(-135 716.014 374.152)" fill="white"/>
</clipPath>
<clipPath id="clip2">
<rect x="703.571" y="386.595" width="768.11" height="17.5976" transform="rotate(-135 703.571 386.595)" fill="white"/>
</clipPath>
<clipPath id="clip3">
<rect x="691.128" y="399.038" width="768.11" height="17.5976" transform="rotate(-135 691.128 399.038)" fill="white"/>
</clipPath>
<clipPath id="clip4">
<rect x="678.684" y="411.482" width="768.11" height="17.5976" transform="rotate(-135 678.684 411.482)" fill="white"/>
</clipPath>
<clipPath id="clip5">
<rect x="666.241" y="423.925" width="768.11" height="17.5976" transform="rotate(-135 666.241 423.925)" fill="white"/>
</clipPath>
<clipPath id="clip6">
<rect x="653.798" y="436.368" width="768.11" height="17.5976" transform="rotate(-135 653.798 436.368)" fill="white"/>
</clipPath>
<clipPath id="clip7">
<rect x="641.354" y="448.812" width="768.11" height="17.5976" transform="rotate(-135 641.354 448.812)" fill="white"/>
</clipPath>
<clipPath id="clip8">
<rect x="628.911" y="461.255" width="768.11" height="17.5976" transform="rotate(-135 628.911 461.255)" fill="white"/>
</clipPath>
<clipPath id="clip9">
<rect x="616.468" y="473.699" width="768.11" height="17.5976" transform="rotate(-135 616.468 473.699)" fill="white"/>
</clipPath>
<clipPath id="clip10">
<rect x="604.024" y="486.142" width="768.11" height="17.5976" transform="rotate(-135 604.024 486.142)" fill="white"/>
</clipPath>
<clipPath id="clip11">
<rect x="591.581" y="498.585" width="768.11" height="17.5976" transform="rotate(-135 591.581 498.585)" fill="white"/>
</clipPath>
<clipPath id="clip12">
<rect x="579.138" y="511.029" width="768.11" height="17.5976" transform="rotate(-135 579.138 511.029)" fill="white"/>
</clipPath>
<clipPath id="clip13">
<rect x="566.694" y="523.472" width="768.11" height="17.5976" transform="rotate(-135 566.694 523.472)" fill="white"/>
</clipPath>
<clipPath id="clip14">
<rect x="554.251" y="535.915" width="768.11" height="17.5976" transform="rotate(-135 554.251 535.915)" fill="white"/>
</clipPath>
<clipPath id="clip15">
<rect x="541.808" y="548.359" width="768.11" height="17.5976" transform="rotate(-135 541.808 548.359)" fill="white"/>
</clipPath>
<clipPath id="clip16">
<rect x="529.364" y="560.802" width="768.11" height="17.5976" transform="rotate(-135 529.364 560.802)" fill="white"/>
</clipPath>
<clipPath id="clip17">
<rect x="516.921" y="573.245" width="768.11" height="17.5976" transform="rotate(-135 516.921 573.245)" fill="white"/>
</clipPath>
<clipPath id="clip18">
<rect x="504.478" y="585.689" width="768.11" height="17.5976" transform="rotate(-135 504.478 585.689)" fill="white"/>
</clipPath>
<clipPath id="clip19">
<rect x="492.034" y="598.132" width="768.11" height="17.5976" transform="rotate(-135 492.034 598.132)" fill="white"/>
</clipPath>
<clipPath id="clip20">
<rect x="479.591" y="610.575" width="768.11" height="17.5976" transform="rotate(-135 479.591 610.575)" fill="white"/>
</clipPath>
<clipPath id="clip21">
<rect x="467.147" y="623.019" width="768.11" height="17.5976" transform="rotate(-135 467.147 623.019)" fill="white"/>
</clipPath>
<clipPath id="clip22">
<rect x="454.704" y="635.462" width="768.11" height="17.5976" transform="rotate(-135 454.704 635.462)" fill="white"/>
</clipPath>
<clipPath id="clip23">
<rect x="442.261" y="647.906" width="768.11" height="17.5976" transform="rotate(-135 442.261 647.906)" fill="white"/>
</clipPath>
<clipPath id="clip24">
<rect x="429.817" y="660.349" width="768.11" height="17.5976" transform="rotate(-135 429.817 660.349)" fill="white"/>
</clipPath>
<clipPath id="clip25">
<rect x="417.374" y="672.792" width="768.11" height="17.5976" transform="rotate(-135 417.374 672.792)" fill="white"/>
</clipPath>
<clipPath id="clip26">
<rect x="404.931" y="685.236" width="768.11" height="17.5976" transform="rotate(-135 404.931 685.236)" fill="white"/>
</clipPath>
<clipPath id="clip27">
<rect x="392.487" y="697.679" width="768.11" height="17.5976" transform="rotate(-135 392.487 697.679)" fill="white"/>
</clipPath>
<clipPath id="clip28">
<rect x="380.044" y="710.122" width="768.11" height="17.5976" transform="rotate(-135 380.044 710.122)" fill="white"/>
</clipPath>
<clipPath id="clip29">
<rect x="367.601" y="722.566" width="768.11" height="17.5976" transform="rotate(-135 367.601 722.566)" fill="white"/>
</clipPath>
<clipPath id="clip30">
<rect x="355.157" y="735.009" width="768.11" height="17.5976" transform="rotate(-135 355.157 735.009)" fill="white"/>
</clipPath>
<clipPath id="clip31">
<rect x="342.714" y="747.452" width="768.11" height="17.5976" transform="rotate(-135 342.714 747.452)" fill="white"/>
</clipPath>
<clipPath id="clip32">
<rect x="330.271" y="759.896" width="768.11" height="17.5976" transform="rotate(-135 330.271 759.896)" fill="white"/>
</clipPath>
<clipPath id="clip33">
<rect x="317.827" y="772.339" width="768.11" height="17.5976" transform="rotate(-135 317.827 772.339)" fill="white"/>
</clipPath>
<clipPath id="clip34">
<rect x="305.384" y="784.782" width="768.11" height="17.5976" transform="rotate(-135 305.384 784.782)" fill="white"/>
</clipPath>
<clipPath id="clip35">
<rect x="292.94" y="797.226" width="768.11" height="17.5976" transform="rotate(-135 292.94 797.226)" fill="white"/>
</clipPath>
</defs>
</svg>
