<svg width="49" height="45" viewBox="0 0 49 45" fill="none" xmlns="http://www.w3.org/2000/svg">
<path d="M48.2344 7.21843C47.775 6.91126 47.1625 7.06485 46.7031 7.37201L32.1562 17.0478V8.60068C32.1562 7.67918 31.5438 7.06485 30.625 7.06485C30.3188 7.06485 29.8594 7.21843 29.7062 7.37201L17.6094 17.3549H12.25V2.91809C12.25 2.15017 11.7906 1.53584 11.025 1.38225L4.9 0C4.44063 0 3.98125 0 3.675 0.307167C3.21563 0.614335 3.0625 1.07509 3.0625 1.53584V17.3549H1.53125C0.6125 17.3549 0 17.9693 0 18.8908V43.4642C0 44.3857 0.6125 45 1.53125 45H47.4688C48.3875 45 49 44.3857 49 43.4642V8.60068C49 7.98635 48.6937 7.37201 48.2344 7.21843ZM6.125 3.53242L9.1875 4.14676V17.3549H6.125V3.53242ZM45.9375 41.9283H3.0625V20.4266H18.0688C18.375 20.4266 18.8344 20.273 18.9875 20.1195L29.0938 11.8259V19.9659C29.0938 20.8874 29.7062 21.5017 30.625 21.5017C30.9312 21.5017 31.2375 21.3481 31.5438 21.1945L45.9375 11.3652V41.9283Z" fill="white"/>
<path d="M18.375 23.4983H6.125V26.57H18.375V23.4983Z" fill="white"/>
<path d="M18.375 29.6416H6.125V32.7133H18.375V29.6416Z" fill="white"/>
<path d="M18.375 35.785H6.125V38.8567H18.375V35.785Z" fill="white"/>
<path d="M29.0938 25.0341H26.0312V29.6416H29.0938V25.0341Z" fill="white"/>
<path d="M29.0938 34.2491H26.0312V38.8567H29.0938V34.2491Z" fill="white"/>
<path d="M35.2188 25.0341H32.1562V29.6416H35.2188V25.0341Z" fill="white"/>
<path d="M35.2188 34.2491H32.1562V38.8567H35.2188V34.2491Z" fill="white"/>
<path d="M41.3438 25.0341H38.2812V29.6416H41.3438V25.0341Z" fill="white"/>
<path d="M41.3438 34.2491H38.2812V38.8567H41.3438V34.2491Z" fill="white"/>
</svg>
