<svg width="55" height="55" viewBox="0 0 55 55" fill="none" xmlns="http://www.w3.org/2000/svg">
<path d="M54.6945 12.5278C54.3889 11 53.3195 9.77777 51.7917 9.47222L42.7778 7.48611C40.7917 7.02777 38.8056 7.48611 37.2778 8.70833L10.6945 27.9583L3.20835 27.6528C1.68057 27.6528 0.305573 28.875 0.305573 30.4028C0.305573 31.3194 0.611128 32.2361 1.37502 32.6944L9.01391 38.6528C9.93057 39.7222 10.5417 39.5694 25.6667 31.3194L27.0417 45.6805C27.0417 46.4444 27.6528 47.2083 28.4167 47.5139C28.7222 47.6667 29.0278 47.6667 29.1806 47.6667C29.7917 47.6667 30.25 47.3611 30.7083 47.0555L34.375 43.6944C34.6806 43.3889 34.9861 42.9305 35.1389 42.4722L38.5 24.2917C44 21.2361 49.1945 18.3333 52.8611 16.3472C54.0833 15.5833 54.8472 14.0556 54.6945 12.5278ZM51.3333 13.5972C47.5139 15.7361 42.1667 18.7917 36.3611 22L35.75 22.3056L32.2361 41.7083L29.9445 43.6944L28.2639 26.4305L26.2778 27.5C15.2778 33.6111 11.6111 35.4444 10.3889 35.9028L3.81946 30.7083L11.6111 31.0139L39.1111 11C40.0278 10.3889 41.0972 10.0833 42.1667 10.3889L51.0278 12.375C51.3334 12.375 51.4861 12.6806 51.4861 12.9861C51.6389 13.1389 51.4861 13.4444 51.3333 13.5972Z" fill="white"/>
<path d="M10.6944 19.0972L16.1944 20.625L18.6389 18.7917L12.5278 16.9583L15.2778 15.2778L23.6806 14.9722L27.1944 12.375L15.2778 12.9861C14.9722 12.9861 14.5139 12.9861 14.2083 13.2917L10.2361 15.5833C9.31945 16.1944 9.01389 17.2639 9.625 18.3333C9.77778 18.6389 10.2361 19.0972 10.6944 19.0972Z" fill="white"/>
</svg>
