<svg width="51" height="51" viewBox="0 0 51 51" fill="none" xmlns="http://www.w3.org/2000/svg">
<path d="M45.3333 7.08333H5.66667C4.10834 7.08333 2.83334 8.35833 2.83334 9.91666V41.0833C2.83334 42.6417 4.10834 43.9167 5.66667 43.9167H45.3333C46.8917 43.9167 48.1667 42.6417 48.1667 41.0833V9.91666C48.1667 8.35833 46.8917 7.08333 45.3333 7.08333ZM5.66667 41.0833V9.91666H45.3333V41.0833H5.66667Z" fill="white"/>
<path d="M22.1 21.5333L13.6 34L7.93333 28.9L9.35 27.2L13.175 30.6L22.1 17.5667L31.7333 31.7333L41.225 19.125L43.0667 20.4L31.5917 35.5583L22.1 21.5333Z" fill="white"/>
</svg>
