<svg width="48" height="48" viewBox="0 0 48 48" fill="none" xmlns="http://www.w3.org/2000/svg">
<path d="M28.8 38.6667C28.8 37.8667 28.2667 37.3333 27.4667 37.3333H19.4667C18.6667 37.3333 18.1333 37.8667 18.1333 38.6667C18.1333 39.4667 18.6667 40 19.4667 40H27.4667C28.2667 40 28.8 39.4667 28.8 38.6667Z" fill="white"/>
<path d="M30 32H22C21.2 32 20.6667 32.5333 20.6667 33.3333C20.6667 34.1333 21.2 34.6667 22 34.6667H30C30.8 34.6667 31.3333 34.1333 31.3333 33.3333C31.3333 32.5333 30.8 32 30 32Z" fill="white"/>
<path d="M29.3333 42.6667H21.3333C20.5333 42.6667 20 43.2 20 44C20 44.8 20.5333 45.3333 21.3333 45.3333H29.3333C30.1333 45.3333 30.6667 44.8 30.6667 44C30.6667 43.2 30.1333 42.6667 29.3333 42.6667Z" fill="white"/>
<path d="M43.6 42.6667H34.2667C33.4667 42.6667 32.9333 43.2 32.9333 44C32.9333 44.8 33.4667 45.3333 34.2667 45.3333H43.6C44.4 45.3333 44.9333 44.8 44.9333 44C44.9333 43.2 44.4 42.6667 43.6 42.6667Z" fill="white"/>
<path d="M44.9333 37.3333H35.6C34.8 37.3333 34.2667 37.8667 34.2667 38.6667C34.2667 39.4667 34.8 40 35.6 40H44.9333C45.7333 40 46.2667 39.4667 46.2667 38.6667C46.2667 37.8667 45.7333 37.3333 44.9333 37.3333Z" fill="white"/>
<path d="M44.9333 34.6667C44.5333 30 43.3333 25.3333 41.2 21.2C39.2 17.3333 36.2667 14.1333 32.8 11.6L36 4.53334C36.2667 4.13334 36.1333 3.60001 35.8667 3.20001C35.6 2.93334 35.2 2.66667 34.8 2.66667H13.0667C12.2667 2.66667 11.7333 3.2 11.7333 4.00001C11.7333 4.13334 11.7333 4.40001 11.8667 4.53334L15.0667 11.6C11.6 14.1333 8.66667 17.3333 6.66667 21.0667C3.73333 26.4 2.93333 32.9333 2.66667 37.4667C2.53333 38.8 3.06667 40.1333 4 41.0667C4.93333 42 6.26667 42.5333 7.6 42.5333H16V40H7.6C6.93333 40 6.4 39.7333 6 39.3333C5.6 38.9333 5.33333 38.2667 5.46667 37.7333C5.6 34.2667 6.4 27.6 9.2 22.4C11.2 18.6667 14 15.6 17.6 13.3333H18.9333C18 14.5333 17.2 15.8667 16.4 17.2C15.6 18.6667 14.9333 20.1333 14.4 21.6L16.2667 22.8C16.8 21.2 17.4667 19.6 18.2667 18.1333C19.2 16.4 20.2667 14.8 21.4667 13.2H22.8C23.7333 15.3333 24.2667 17.6 24.6667 19.8667C24.9333 21.6 25.0667 23.3333 25.0667 25.0667L27.2 23.6C27.2 22.2667 26.9333 20.9333 26.8 19.6C26.4 17.4667 25.8667 15.3333 25.0667 13.2H26.1333L27.3333 10.5333H17.7333L15.2 5.20001H32.8L29.4667 12.5333C30 12.8 30.5333 13.2 31.0667 13.6C34.4 15.8667 37.0667 18.8 38.9333 22.4C40.8 26.2667 42 30.4 42.4 34.6667H44.9333Z" fill="white"/>
</svg>
