<svg width="48" height="48" viewBox="0 0 48 48" fill="none" xmlns="http://www.w3.org/2000/svg">
<path d="M33.6 16.4L25.7333 24.1333C23.7333 23.2 21.3333 24 20.4 26C19.4667 28 20.2667 30.4 22.2667 31.3333C24.2667 32.2667 26.6667 31.4667 27.6 29.4667C28.1333 28.4 28.1333 27.0667 27.6 26L35.4667 18.2667L33.6 16.4Z" fill="white"/>
<path d="M24 5.6C11.8667 5.6 2 15.4667 2 27.6C2 32.8 3.86667 37.8667 7.2 41.8667L7.6 42.4H40.4L40.8 41.8667C48.6667 32.6667 47.4667 18.6667 38.2667 10.9333C34.2667 7.46667 29.2 5.6 24 5.6ZM39.0667 39.7333H8.93333C6.53333 36.8 5.06667 33.0667 4.8 29.3333H9.33333V26.6667H4.66667C4.93333 22.4 6.53333 18.4 9.33333 15.2L12.5333 18.4L14.4 16.5333L11.2 13.2C14.4 10.4 18.4 8.66667 22.6667 8.4V13.0667H25.3333V8.4C35.0667 9.06667 42.6667 16.9333 43.2 26.5333H38.5333V29.2H43.2C42.9333 33.0667 41.4667 36.6667 39.0667 39.7333Z" fill="white"/>
</svg>
