<svg width="165" height="38" viewBox="0 0 165 38" fill="none" xmlns="http://www.w3.org/2000/svg">
<path d="M21.2288 31.5212C28.9333 31.5212 36.1666 33.5135 42.4575 37.0237L21.2288 0L0 37C6.29088 33.5135 13.5242 31.5212 21.2288 31.5212Z" fill="#FF7800"/>
<path d="M58.7148 27.7263H55.2278L63.003 9.27374H66.655L74.5952 27.7263H70.9432L68.8462 22.6981H62.7674L63.9219 19.7334H67.621L64.7465 12.8077L58.7148 27.7263Z" fill="white"/>
<path d="M81.9227 9.27374H78.5299V27.7263H81.9227V9.27374Z" fill="white"/>
<path d="M84.3495 24.7616L83.4071 27.7263H89.2032V24.7616H84.3495Z" fill="white"/>
<path d="M99.8058 14.2071H96.413V27.7263H99.8058V14.2071Z" fill="white"/>
<path d="M105.06 9.27374H91.1588V12.2385H105.06V9.27374Z" fill="white"/>
<path d="M121.694 19.9231V16.8635H115.78L114.602 19.9231H121.694Z" fill="white"/>
<path d="M112.953 9.27374H109.584V27.7263H112.953V9.27374Z" fill="white"/>
<path d="M124.098 9.27374H120.728V27.7263H124.098V9.27374Z" fill="white"/>
<path d="M149.12 27.7263H145.633L153.408 9.27374H157.06L165 27.7263H161.348L159.275 22.6981H153.196L154.35 19.7334H158.049L155.151 12.8077L149.12 27.7263Z" fill="white"/>
<path d="M132.862 24.7616L132.909 12.2148H142.075V9.27374H129.54V27.7263H142.263V24.7616H132.862Z" fill="white"/>
<path d="M141.651 19.9231V16.8635H135.713L134.535 19.9231H141.651Z" fill="white"/>
</svg>
